{
.appVersion = "1125";
DisplayStrings = (
"straßen/_part_bowl bahnfijahr\012grnannpyn\012\012the quick uZzobrown fSrnso/_part_bowl/_part_bowl dpx jumps over\012the lazy dogs\012",
"anrtfnpqyß",
"abcdefghijklmn/n_bow o/_part_bowl pqrkasßaececcftuvwxyz",
C,
"AIBCDEFGHIJ\012KOLMNOPQIPRSTUVvvwvWHXVNWHIYCZz",
"Climbing \012VNHWViean  s yecah\012nonnoo"
);
date = "2017-07-05 13:14:12 +0000";
designer = "Mirco Monsees";
familyName = Shakespeare;
fontMaster = (
{
ascender = 800;
capHeight = 700;
descender = -200;
id = "1B5E7594-BD1E-41E1-80E1-0DE241437139";
userData = {
GSCornerRadius = 47;
};
weight = Light;
weightValue = 65;
xHeight = 500;
},
{
ascender = 806;
capHeight = 706;
custom = Black;
descender = -200;
iconName = Bold;
id = "5A1ECF60-5C3D-4C60-84B4-C69E600E0422";
userData = {
GSCornerRadius = 40;
};
weightValue = 175;
xHeight = 506;
}
);
glyphs = (
{
color = 1;
glyphname = A;
lastChange = "2018-03-25 13:33:18 +0000";
layers = (
{
background = {
components = (
{
name = H;
transform = "{1, 0, 0, 1, -10, 0}";
}
);
};
layerId = "1B5E7594-BD1E-41E1-80E1-0DE241437139";
paths = (
{
closed = 1;
nodes = (
"216 215 LINE",
"480 215 LINE",
"481 261 LINE",
"217 261 LINE"
);
},
{
closed = 1;
nodes = (
"511 73 LINE SMOOTH",
"517 53 OFFCURVE",
"502 38 OFFCURVE",
"483 35 CURVE SMOOTH",
"431 28 LINE",
"431 -3 LINE",
"550 0 LINE",
"675 -3 LINE",
"675 28 LINE",
"622 37 LINE SMOOTH",
"606 40 OFFCURVE",
"591 52 OFFCURVE",
"586 69 CURVE SMOOTH",
"398 705 LINE",
"390 711 LINE",
"323 695 LINE",
"124 83 LINE SMOOTH",
"115 57 OFFCURVE",
"104 43 OFFCURVE",
"80 38 CURVE SMOOTH",
"33 28 LINE",
"33 -3 LINE",
"146 0 LINE",
"278 -3 LINE",
"278 28 LINE",
"214 40 LINE SMOOTH",
"185 45 OFFCURVE",
"177 61 OFFCURVE",
"184 83 CURVE SMOOTH",
"354 629 LINE"
);
}
);
width = 708;
},
{
background = {
components = (
{
name = V;
transform = "{-1, 0, 0, -1, 680, 703}";
}
);
};
layerId = "5A1ECF60-5C3D-4C60-84B4-C69E600E0422";
paths = (
{
closed = 1;
nodes = (
"207 189 LINE",
"408 189 LINE",
"408 288 LINE",
"207 288 LINE"
);
},
{
closed = 1;
nodes = (
"329 500 LINE",
"395 130 LINE SMOOTH",
"399 108 OFFCURVE",
"390 92 OFFCURVE",
"367 89 CURVE SMOOTH",
"343 86 LINE",
"343 -3 LINE",
"527 0 LINE",
"691 -3 LINE",
"691 86 LINE",
"659 89 LINE SMOOTH",
"639 91 OFFCURVE",
"627 101 OFFCURVE",
"622 121 CURVE SMOOTH",
"486 698 LINE",
"468 716 LINE",
"237 684 LINE",
"88 134 LINE SMOOTH",
"83 116 OFFCURVE",
"64 99 OFFCURVE",
"46 95 CURVE SMOOTH",
"0 86 LINE",
"0 -3 LINE",
"131 0 LINE",
"303 -3 LINE",
"303 86 LINE",
"268 93 LINE SMOOTH",
"246 97 OFFCURVE",
"239 116 OFFCURVE",
"243 138 CURVE SMOOTH",
"310 500 LINE"
);
}
);
width = 684;
},
{
associatedMasterId = "1B5E7594-BD1E-41E1-80E1-0DE241437139";
background = {
components = (
{
name = n;
transform = "{1, 0, 0, 1, 205, 210}";
}
);
};
layerId = "B8DDF668-9570-4839-8254-475FDD86D5ED";
name = "Mar 24 18, 11:48";
paths = (
{
closed = 1;
nodes = (
"216 215 LINE",
"480 215 LINE",
"481 261 LINE",
"217 261 LINE"
);
},
{
closed = 1;
nodes = (
"511 73 LINE SMOOTH",
"517 53 OFFCURVE",
"502 38 OFFCURVE",
"483 35 CURVE SMOOTH",
"431 28 LINE",
"431 -3 LINE",
"550 0 LINE",
"675 -3 LINE",
"675 28 LINE",
"622 37 LINE SMOOTH",
"606 40 OFFCURVE",
"591 52 OFFCURVE",
"586 69 CURVE SMOOTH",
"396 708 LINE",
"388 714 LINE",
"341 707 OFFCURVE",
"268 698 OFFCURVE",
"218 693 CURVE",
"218 661 LINE",
"288 657 LINE SMOOTH",
"308 656 OFFCURVE",
"309 641 OFFCURVE",
"302 621 CURVE SMOOTH",
"124 83 LINE SMOOTH",
"115 57 OFFCURVE",
"104 43 OFFCURVE",
"80 38 CURVE SMOOTH",
"33 28 LINE",
"33 -3 LINE",
"146 0 LINE",
"278 -3 LINE",
"278 28 LINE",
"214 40 LINE SMOOTH",
"185 45 OFFCURVE",
"177 61 OFFCURVE",
"184 83 CURVE SMOOTH",
"352 619 LINE"
);
}
);
width = 708;
},
{
associatedMasterId = "5A1ECF60-5C3D-4C60-84B4-C69E600E0422";
layerId = "CF9093F7-A231-4E4E-A851-3B74EE9DCD64";
name = "Mar 25 18, 12:33";
paths = (
{
closed = 1;
nodes = (
"197 189 LINE",
"398 189 LINE",
"398 288 LINE",
"197 288 LINE"
);
},
{
closed = 1;
nodes = (
"395 130 LINE SMOOTH",
"400 108 OFFCURVE",
"390 92 OFFCURVE",
"367 89 CURVE SMOOTH",
"343 86 LINE",
"343 -3 LINE",
"516 0 LINE",
"680 -3 LINE",
"680 86 LINE",
"648 89 LINE SMOOTH",
"628 91 OFFCURVE",
"616 101 OFFCURVE",
"611 121 CURVE SMOOTH",
"454 700 LINE",
"436 718 LINE",
"341 704 OFFCURVE",
"248 694 OFFCURVE",
"155 690 CURVE",
"155 600 LINE",
"182 599 LINE SMOOTH",
"214 598 OFFCURVE",
"226 580 OFFCURVE",
"216 550 CURVE SMOOTH",
"78 134 LINE SMOOTH",
"72 116 OFFCURVE",
"54 99 OFFCURVE",
"36 95 CURVE SMOOTH",
"-10 86 LINE",
"-10 -3 LINE",
"121 0 LINE",
"275 -3 LINE",
"275 86 LINE",
"240 93 LINE SMOOTH",
"218 97 OFFCURVE",
"210 116 OFFCURVE",
"215 138 CURVE SMOOTH",
"307 505 LINE"
);
}
);
width = 670;
}
);
leftKerningGroup = A;
rightKerningGroup = A;
unicode = 0041;
},
{
glyphname = B;
lastChange = "2018-03-25 14:41:16 +0000";
layers = (
{
components = (
{
alignment = -1;
name = I;
}
);
layerId = "1B5E7594-BD1E-41E1-80E1-0DE241437139";
paths = (
{
closed = 1;
nodes = (
"318 709 OFFCURVE",
"527 721 OFFCURVE",
"527 539 CURVE SMOOTH",
"527 377 OFFCURVE",
"405 343 OFFCURVE",
"148 333 CURVE",
"166 380 LINE",
"364 373 OFFCURVE",
"453 406 OFFCURVE",
"453 529 CURVE SMOOTH",
"453 631 OFFCURVE",
"362 674 OFFCURVE",
"162 648 CURVE",
"164 700 LINE"
);
},
{
closed = 1;
nodes = (
"167 47 LINE",
"404 29 OFFCURVE",
"485 62 OFFCURVE",
"485 193 CURVE SMOOTH",
"485 309 OFFCURVE",
"376 343 OFFCURVE",
"164 326 CURVE",
"158 369 LINE",
"322 385 OFFCURVE",
"558 392 OFFCURVE",
"558 200 CURVE SMOOTH",
"558 37 OFFCURVE",
"436 -14 OFFCURVE",
"242 -2 CURVE"
);
}
);
width = 573;
},
{
components = (
{
name = I;
}
);
layerId = "5A1ECF60-5C3D-4C60-84B4-C69E600E0422";
paths = (
{
closed = 1;
nodes = (
"418 712 OFFCURVE",
"645 727 OFFCURVE",
"645 545 CURVE SMOOTH",
"645 383 OFFCURVE",
"503 336 OFFCURVE",
"228 336 CURVE",
"226 407 LINE",
"395 393 OFFCURVE",
"413 430 OFFCURVE",
"413 498 CURVE SMOOTH",
"413 594 OFFCURVE",
"379 609 OFFCURVE",
"281 602 CURVE",
"264 706 LINE"
);
},
{
closed = 1;
nodes = (
"281 99 LINE",
"409 90 OFFCURVE",
"435 128 OFFCURVE",
"435 203 CURVE SMOOTH",
"435 297 OFFCURVE",
"386 312 OFFCURVE",
"244 299 CURVE",
"238 372 LINE",
"483 372 OFFCURVE",
"668 376 OFFCURVE",
"668 181 CURVE SMOOTH",
"668 18 OFFCURVE",
"478 -10 OFFCURVE",
"324 -2 CURVE"
);
}
);
width = 683;
}
);
leftMetricsKey = I;
unicode = 0042;
},
{
glyphname = C;
lastChange = "2018-03-25 18:21:40 +0000";
layers = (
{
background = {
components = (
{
name = G;
transform = "{1, 0, 0, 1, -2, 0}";
}
);
};
layerId = "1B5E7594-BD1E-41E1-80E1-0DE241437139";
paths = (
{
closed = 1;
nodes = (
"60 100 OFFCURVE",
"187 -18 OFFCURVE",
"368 -18 CURVE SMOOTH",
"429 -18 OFFCURVE",
"513 -9 OFFCURVE",
"573 28 CURVE",
"564 155 LINE",
"518 155 LINE",
"522 52 OFFCURVE",
"500 36 OFFCURVE",
"390 31 CURVE SMOOTH",
"239 24 OFFCURVE",
"131 149 OFFCURVE",
"135 337 CURVE SMOOTH",
"139 541 OFFCURVE",
"267 666 OFFCURVE",
"439 666 CURVE SMOOTH",
"511 666 OFFCURVE",
"521 644 OFFCURVE",
"517 556 CURVE",
"560 556 LINE",
"580 702 LINE",
"532 709 OFFCURVE",
"487 712 OFFCURVE",
"445 712 CURVE SMOOTH",
"207 712 OFFCURVE",
"70 575 OFFCURVE",
"65 334 CURVE SMOOTH"
);
}
);
width = 598;
},
{
background = {
components = (
{
name = G;
transform = "{1, 0, 0, 1, -5, 0}";
}
);
};
layerId = "5A1ECF60-5C3D-4C60-84B4-C69E600E0422";
paths = (
{
closed = 1;
nodes = (
"41 103 OFFCURVE",
"172 -12 OFFCURVE",
"345 -15 CURVE SMOOTH",
"448 -17 OFFCURVE",
"545 3 OFFCURVE",
"619 38 CURVE",
"602 272 LINE",
"472 272 LINE",
"479 170 OFFCURVE",
"452 122 OFFCURVE",
"383 122 CURVE SMOOTH",
"288 122 OFFCURVE",
"284 209 OFFCURVE",
"285 338 CURVE SMOOTH",
"286 512 OFFCURVE",
"315 597 OFFCURVE",
"383 600 CURVE SMOOTH",
"443 603 OFFCURVE",
"477 595 OFFCURVE",
"460 452 CURVE",
"591 452 LINE",
"622 699 LINE",
"249 786 OFFCURVE",
"41 650 OFFCURVE",
"41 336 CURVE SMOOTH"
);
}
);
width = 666;
},
{
associatedMasterId = "1B5E7594-BD1E-41E1-80E1-0DE241437139";
background = {
components = (
{
name = G;
transform = "{1, 0, 0, 1, -2, 0}";
},
{
name = c;
transform = "{1, 0, 0, 1, 140, 0}";
}
);
};
layerId = "C38DFC00-1771-43F6-9DA6-3A465B4DEF4F";
name = "Mar 25 18, 12:27";
paths = (
{
closed = 1;
nodes = (
"63 100 OFFCURVE",
"187 -18 OFFCURVE",
"368 -18 CURVE SMOOTH",
"429 -18 OFFCURVE",
"496 -3 OFFCURVE",
"568 27 CURVE",
"588 86 LINE",
"581 93 LINE",
"328 -20 OFFCURVE",
"135 77 OFFCURVE",
"135 337 CURVE SMOOTH",
"135 565 OFFCURVE",
"258 667 OFFCURVE",
"439 667 CURVE SMOOTH",
"511 667 OFFCURVE",
"521 652 OFFCURVE",
"517 567 CURVE",
"562 567 LINE",
"580 703 LINE",
"532 710 OFFCURVE",
"487 713 OFFCURVE",
"445 713 CURVE SMOOTH",
"198 713 OFFCURVE",
"67 589 OFFCURVE",
"65 334 CURVE SMOOTH"
);
}
);
width = 598;
},
{
associatedMasterId = "5A1ECF60-5C3D-4C60-84B4-C69E600E0422";
background = {
components = (
{
name = G;
transform = "{1, 0, 0, 1, -1, 0}";
}
);
};
layerId = "2B65548D-12F0-441F-A740-560E3DA292F4";
name = "Mar 25 18, 13:53";
paths = (
{
closed = 1;
nodes = (
"45 103 OFFCURVE",
"176 -11 OFFCURVE",
"349 -15 CURVE SMOOTH",
"471 -18 OFFCURVE",
"565 15 OFFCURVE",
"610 40 CURVE",
"588 143 LINE",
"552 167 LINE",
"359 82 OFFCURVE",
"288 162 OFFCURVE",
"289 338 CURVE SMOOTH",
"290 512 OFFCURVE",
"319 596 OFFCURVE",
"387 600 CURVE SMOOTH",
"436 603 OFFCURVE",
"461 595 OFFCURVE",
"444 452 CURVE",
"575 452 LINE",
"626 699 LINE",
"253 786 OFFCURVE",
"45 650 OFFCURVE",
"45 336 CURVE SMOOTH"
);
}
);
width = 670;
}
);
leftMetricsKey = O;
unicode = 0043;
},
{
color = 1;
glyphname = D;
lastChange = "2018-03-25 13:33:42 +0000";
layers = (
{
background = {
components = (
{
name = O;
transform = "{1, 0, 0, 1, -29, 0}";
}
);
};
components = (
{
name = I;
}
);
layerId = "1B5E7594-BD1E-41E1-80E1-0DE241437139";
paths = (
{
closed = 1;
nodes = (
"509 727 OFFCURVE",
"640 616 OFFCURVE",
"640 365 CURVE SMOOTH",
"640 120 OFFCURVE",
"536 -34 OFFCURVE",
"202 2 CURVE",
"202 41 LINE",
"490 31 OFFCURVE",
"571 148 OFFCURVE",
"571 365 CURVE SMOOTH",
"571 567 OFFCURVE",
"454 675 OFFCURVE",
"206 660 CURVE",
"184 700 LINE"
);
}
);
width = 652;
},
{
background = {
components = (
{
name = i;
transform = "{1, 0, 0, 1, 8, 0}";
}
);
};
components = (
{
name = I;
}
);
layerId = "5A1ECF60-5C3D-4C60-84B4-C69E600E0422";
paths = (
{
closed = 1;
nodes = (
"541 727 OFFCURVE",
"679 643 OFFCURVE",
"679 359 CURVE SMOOTH",
"679 100 OFFCURVE",
"552 -23 OFFCURVE",
"278 0 CURVE",
"283 103 LINE",
"418 95 OFFCURVE",
"440 139 OFFCURVE",
"440 365 CURVE SMOOTH",
"440 573 OFFCURVE",
"415 607 OFFCURVE",
"278 592 CURVE",
"264 706 LINE"
);
}
);
width = 689;
}
);
leftMetricsKey = I;
unicode = 0044;
},
{
color = 1;
glyphname = E;
lastChange = "2018-03-25 14:41:45 +0000";
layers = (
{
background = {
components = (
{
name = H;
transform = "{1, 0, 0, 1, -1, 0}";
}
);
};
guideLines = (
{
angle = 90;
position = "{578, 664}";
}
);
layerId = "1B5E7594-BD1E-41E1-80E1-0DE241437139";
paths = (
{
closed = 1;
nodes = (
"39 30 LINE",
"87 38 LINE SMOOTH",
"111 42 OFFCURVE",
"123 55 OFFCURVE",
"123 79 CURVE SMOOTH",
"123 610 LINE SMOOTH",
"123 634 OFFCURVE",
"110 658 OFFCURVE",
"86 661 CURVE SMOOTH",
"40 667 LINE",
"40 702 LINE",
"183 700 LINE",
"504 705 LINE",
"512 689 LINE",
"495 567 LINE",
"454 567 LINE",
"459 644 OFFCURVE",
"449 656 OFFCURVE",
"401 656 CURVE SMOOTH",
"221 655 LINE SMOOTH",
"199 655 OFFCURVE",
"190 632 OFFCURVE",
"190 611 CURVE SMOOTH",
"190 358 LINE",
"353 360 LINE SMOOTH",
"370 360 OFFCURVE",
"385 370 OFFCURVE",
"388 388 CURVE SMOOTH",
"395 427 LINE",
"429 427 LINE",
"429 244 LINE",
"396 244 LINE",
"388 285 LINE SMOOTH",
"385 302 OFFCURVE",
"370 310 OFFCURVE",
"353 310 CURVE SMOOTH",
"190 310 LINE",
"190 88 LINE SMOOTH",
"190 64 OFFCURVE",
"193 37 OFFCURVE",
"237 38 CURVE SMOOTH",
"405 43 LINE SMOOTH",
"457 45 OFFCURVE",
"474 54 OFFCURVE",
"490 133 CURVE",
"532 133 LINE",
"514 -4 LINE",
"188 0 LINE",
"39 -3 LINE"
);
}
);
width = 586;
},
{
background = {
components = (
{
name = I;
transform = "{1, 0, 0, 1, 1, 0}";
}
);
};
guideLines = (
{
position = "{-656, 611}";
}
);
layerId = "5A1ECF60-5C3D-4C60-84B4-C69E600E0422";
paths = (
{
closed = 1;
nodes = (
"30 89 LINE",
"52 91 LINE SMOOTH",
"73 93 OFFCURVE",
"87 108 OFFCURVE",
"87 129 CURVE",
"82 573 LINE",
"82 594 OFFCURVE",
"71 606 OFFCURVE",
"50 610 CURVE SMOOTH",
"31 614 LINE",
"31 708 LINE",
"217 705 LINE",
"555 712 LINE",
"581 690 LINE",
"555 511 LINE",
"445 511 LINE",
"452 575 OFFCURVE",
"440 599 OFFCURVE",
"393 600 CURVE SMOOTH",
"327 601 LINE SMOOTH",
"312 601 OFFCURVE",
"303 592 OFFCURVE",
"303 574 CURVE SMOOTH",
"301 385 LINE",
"355 385 LINE SMOOTH",
"383 385 OFFCURVE",
"396 395 OFFCURVE",
"400 414 CURVE SMOOTH",
"407 451 LINE",
"497 451 LINE",
"497 231 LINE",
"407 231 LINE",
"402 263 LINE SMOOTH",
"399 282 OFFCURVE",
"384 292 OFFCURVE",
"357 292 CURVE SMOOTH",
"300 292 LINE",
"299 139 LINE SMOOTH",
"299 120 OFFCURVE",
"306 107 OFFCURVE",
"325 108 CURVE SMOOTH",
"421 111 LINE SMOOTH",
"467 112 OFFCURVE",
"480 132 OFFCURVE",
"488 186 CURVE",
"597 186 LINE",
"577 -4 LINE",
"213 0 LINE",
"30 -3 LINE"
);
}
);
width = 617;
}
);
leftMetricsKey = I;
unicode = 0045;
},
{
color = 1;
glyphname = F;
lastChange = "2018-03-25 14:41:51 +0000";
layers = (
{
background = {
components = (
{
name = G;
transform = "{1, 0, 0, 1, -44, 0}";
}
);
};
layerId = "1B5E7594-BD1E-41E1-80E1-0DE241437139";
paths = (
{
closed = 1;
nodes = (
"39 39 LINE",
"87 47 LINE SMOOTH",
"111 51 OFFCURVE",
"123 64 OFFCURVE",
"123 88 CURVE SMOOTH",
"123 610 LINE SMOOTH",
"123 634 OFFCURVE",
"110 652 OFFCURVE",
"86 655 CURVE SMOOTH",
"40 661 LINE",
"40 704 LINE",
"195 700 LINE",
"480 706 LINE",
"488 690 LINE",
"471 567 LINE",
"428 567 LINE",
"433 644 OFFCURVE",
"424 658 OFFCURVE",
"376 657 CURVE SMOOTH",
"226 653 LINE SMOOTH",
"202 652 OFFCURVE",
"190 635 OFFCURVE",
"190 611 CURVE SMOOTH",
"190 348 LINE",
"330 350 LINE SMOOTH",
"347 350 OFFCURVE",
"361 357 OFFCURVE",
"364 375 CURVE SMOOTH",
"372 417 LINE",
"406 417 LINE",
"406 234 LINE",
"373 234 LINE",
"364 276 LINE SMOOTH",
"360 293 OFFCURVE",
"347 300 OFFCURVE",
"330 300 CURVE SMOOTH",
"190 300 LINE",
"190 88 LINE SMOOTH",
"190 64 OFFCURVE",
"204 51 OFFCURVE",
"228 48 CURVE SMOOTH",
"315 36 LINE",
"315 -2 LINE",
"185 0 LINE",
"39 -3 LINE"
);
}
);
width = 529;
},
{
background = {
components = (
{
name = E;
transform = "{1, 0, 0, 1, -5, 0}";
}
);
};
layerId = "5A1ECF60-5C3D-4C60-84B4-C69E600E0422";
paths = (
{
closed = 1;
nodes = (
"30 89 LINE",
"52 91 LINE SMOOTH",
"73 93 OFFCURVE",
"87 108 OFFCURVE",
"87 129 CURVE SMOOTH",
"82 574 LINE SMOOTH",
"82 595 OFFCURVE",
"71 607 OFFCURVE",
"50 611 CURVE SMOOTH",
"31 615 LINE",
"31 709 LINE",
"304 706 LINE",
"550 712 LINE",
"566 690 LINE",
"540 512 LINE",
"428 512 LINE",
"435 576 OFFCURVE",
"419 602 OFFCURVE",
"380 601 CURVE SMOOTH",
"323 600 LINE SMOOTH",
"310 600 OFFCURVE",
"303 593 OFFCURVE",
"303 580 CURVE SMOOTH",
"301 374 LINE",
"341 374 LINE SMOOTH",
"371 374 OFFCURVE",
"378 384 OFFCURVE",
"382 403 CURVE SMOOTH",
"389 440 LINE",
"480 440 LINE",
"480 220 LINE",
"389 220 LINE",
"383 253 LINE SMOOTH",
"380 272 OFFCURVE",
"372 281 OFFCURVE",
"343 281 CURVE SMOOTH",
"300 281 LINE",
"299 140 LINE SMOOTH",
"299 107 OFFCURVE",
"317 92 OFFCURVE",
"346 91 CURVE SMOOTH",
"393 89 LINE",
"393 -4 LINE",
"214 0 LINE",
"30 -3 LINE"
);
}
);
width = 571;
}
);
leftMetricsKey = I;
unicode = 0046;
},
{
color = 1;
glyphname = G;
lastChange = "2018-03-25 14:20:44 +0000";
layers = (
{
background = {
components = (
{
name = O;
transform = "{1, 0, 0, 1, -2, 0}";
}
);
};
guideLines = (
{
angle = 90;
position = "{734, 679}";
},
{
angle = 90;
position = "{596, 358}";
}
);
layerId = "1B5E7594-BD1E-41E1-80E1-0DE241437139";
paths = (
{
closed = 1;
nodes = (
"61 91 OFFCURVE",
"184 -21 OFFCURVE",
"380 -21 CURVE SMOOTH",
"445 -21 OFFCURVE",
"518 -8 OFFCURVE",
"597 17 CURVE",
"593 227 LINE SMOOTH",
"593 252 OFFCURVE",
"603 261 OFFCURVE",
"620 265 CURVE SMOOTH",
"654 273 LINE",
"654 305 LINE",
"561 303 LINE",
"432 306 LINE",
"432 276 LINE",
"494 266 LINE SMOOTH",
"516 262 OFFCURVE",
"527 250 OFFCURVE",
"527 227 CURVE SMOOTH",
"527 48 LINE",
"244 -28 OFFCURVE",
"136 128 OFFCURVE",
"138 343 CURVE SMOOTH",
"140 551 OFFCURVE",
"239 671 OFFCURVE",
"397 672 CURVE SMOOTH",
"522 673 OFFCURVE",
"547 658 OFFCURVE",
"541 557 CURVE",
"585 557 LINE",
"603 701 LINE",
"538 713 OFFCURVE",
"473 719 OFFCURVE",
"419 719 CURVE SMOOTH",
"191 719 OFFCURVE",
"69 600 OFFCURVE",
"65 343 CURVE SMOOTH"
);
}
);
width = 722;
},
{
background = {
components = (
{
name = O;
transform = "{1, 0, 0, 1, -4, 0}";
}
);
};
layerId = "5A1ECF60-5C3D-4C60-84B4-C69E600E0422";
paths = (
{
closed = 1;
nodes = (
"41 119 OFFCURVE",
"143 -16 OFFCURVE",
"371 -16 CURVE SMOOTH",
"470 -16 OFFCURVE",
"553 7 OFFCURVE",
"628 43 CURVE",
"624 211 LINE SMOOTH",
"623 232 OFFCURVE",
"630 250 OFFCURVE",
"650 253 CURVE SMOOTH",
"672 256 LINE",
"672 347 LINE",
"521 342 LINE",
"367 347 LINE",
"367 256 LINE",
"399 252 LINE SMOOTH",
"423 249 OFFCURVE",
"431 234 OFFCURVE",
"431 195 CURVE SMOOTH",
"430 111 LINE",
"282 78 OFFCURVE",
"283 172 OFFCURVE",
"286 361 CURVE SMOOTH",
"289 546 OFFCURVE",
"314 609 OFFCURVE",
"421 602 CURVE SMOOTH",
"465 599 OFFCURVE",
"475 573 OFFCURVE",
"463 488 CURVE",
"587 488 LINE",
"632 700 LINE",
"236 775 OFFCURVE",
"41 680 OFFCURVE",
"41 336 CURVE SMOOTH"
);
}
);
width = 715;
},
{
associatedMasterId = "5A1ECF60-5C3D-4C60-84B4-C69E600E0422";
background = {
components = (
{
name = O;
}
);
};
layerId = "FFBE79FE-4737-42BF-946A-5A0623E20EF4";
name = "Mar 25 18, 13:35";
paths = (
{
closed = 1;
nodes = (
"20 119 OFFCURVE",
"137 -16 OFFCURVE",
"365 -16 CURVE SMOOTH",
"464 -16 OFFCURVE",
"567 7 OFFCURVE",
"642 43 CURVE",
"638 211 LINE SMOOTH",
"637 232 OFFCURVE",
"644 250 OFFCURVE",
"664 253 CURVE SMOOTH",
"686 256 LINE",
"686 347 LINE",
"535 342 LINE",
"381 347 LINE",
"381 256 LINE",
"413 252 LINE SMOOTH",
"437 249 OFFCURVE",
"444 228 OFFCURVE",
"444 189 CURVE SMOOTH",
"444 111 LINE",
"296 78 OFFCURVE",
"242 172 OFFCURVE",
"245 361 CURVE SMOOTH",
"248 546 OFFCURVE",
"318 609 OFFCURVE",
"425 602 CURVE SMOOTH",
"464 599 OFFCURVE",
"474 573 OFFCURVE",
"462 488 CURVE",
"586 488 LINE",
"631 700 LINE",
"566 714 OFFCURVE",
"503 721 OFFCURVE",
"445 721 CURVE SMOOTH",
"184 721 OFFCURVE",
"20 585 OFFCURVE",
"20 336 CURVE SMOOTH"
);
}
);
width = 719;
}
);
leftMetricsKey = O;
unicode = 0047;
},
{
glyphname = H;
lastChange = "2018-03-25 17:34:45 +0000";
layers = (
{
background = {
components = (
{
name = n;
transform = "{1, 0, 0, 1, 68, 0}";
}
);
};
components = (
{
alignment = -1;
name = I;
},
{
alignment = -1;
name = I;
transform = "{1, 0, 0, 1, 407, 0}";
}
);
layerId = "1B5E7594-BD1E-41E1-80E1-0DE241437139";
paths = (
{
closed = 1;
nodes = (
"556 368 LINE",
"556 325 LINE",
"145 325 LINE",
"145 368 LINE"
);
}
);
width = 727;
},
{
components = (
{
name = I;
},
{
name = I;
transform = "{1, 0, 0, 1, 379, 0}";
}
);
layerId = "5A1ECF60-5C3D-4C60-84B4-C69E600E0422";
paths = (
{
closed = 1;
nodes = (
"546 391 LINE",
"546 292 LINE",
"203 292 LINE",
"203 391 LINE"
);
}
);
width = 757;
}
);
leftMetricsKey = I;
rightMetricsKey = I;
unicode = 0048;
},
{
color = 1;
glyphname = I;
lastChange = "2018-03-25 17:55:06 +0000";
layers = (
{
background = {
paths = (
{
closed = 1;
nodes = (
"281 672 LINE",
"233 664 LINE SMOOTH",
"209 660 OFFCURVE",
"197 647 OFFCURVE",
"197 623 CURVE SMOOTH",
"197 88 LINE SMOOTH",
"197 64 OFFCURVE",
"210 46 OFFCURVE",
"234 43 CURVE SMOOTH",
"280 37 LINE",
"280 -7 LINE",
"167 -2 LINE",
"41 -7 LINE",
"41 37 LINE",
"94 45 LINE SMOOTH",
"118 49 OFFCURVE",
"130 63 OFFCURVE",
"130 87 CURVE SMOOTH",
"130 623 LINE SMOOTH",
"130 647 OFFCURVE",
"117 659 OFFCURVE",
"93 663 CURVE SMOOTH",
"39 672 LINE",
"39 701 LINE",
"162 698 LINE",
"281 701 LINE"
);
}
);
};
layerId = "1B5E7594-BD1E-41E1-80E1-0DE241437139";
paths = (
{
closed = 1;
nodes = (
"39 26 LINE",
"87 34 LINE SMOOTH",
"111 38 OFFCURVE",
"123 51 OFFCURVE",
"123 75 CURVE SMOOTH",
"123 621 LINE SMOOTH",
"123 645 OFFCURVE",
"110 663 OFFCURVE",
"86 666 CURVE SMOOTH",
"40 672 LINE",
"40 704 LINE",
"153 700 LINE",
"279 704 LINE",
"279 672 LINE",
"226 664 LINE SMOOTH",
"202 660 OFFCURVE",
"190 646 OFFCURVE",
"190 622 CURVE SMOOTH",
"190 75 LINE SMOOTH",
"190 51 OFFCURVE",
"203 39 OFFCURVE",
"227 35 CURVE SMOOTH",
"281 26 LINE",
"281 -3 LINE",
"158 0 LINE",
"39 -3 LINE"
);
}
);
width = 320;
},
{
background = {
components = (
{
name = l;
transform = "{1, 0, 0, 1, 24, 0}";
}
);
};
layerId = "5A1ECF60-5C3D-4C60-84B4-C69E600E0422";
paths = (
{
closed = 1;
nodes = (
"30 89 LINE",
"52 91 LINE SMOOTH",
"73 93 OFFCURVE",
"87 108 OFFCURVE",
"87 129 CURVE SMOOTH",
"82 579 LINE SMOOTH",
"82 600 OFFCURVE",
"71 612 OFFCURVE",
"50 616 CURVE SMOOTH",
"31 620 LINE",
"31 709 LINE",
"197 706 LINE",
"358 709 LINE",
"358 620 LINE",
"336 617 LINE SMOOTH",
"315 614 OFFCURVE",
"303 601 OFFCURVE",
"303 580 CURVE SMOOTH",
"299 126 LINE SMOOTH",
"299 105 OFFCURVE",
"311 93 OFFCURVE",
"332 91 CURVE SMOOTH",
"357 89 LINE",
"357 -3 LINE",
"193 0 LINE",
"30 -3 LINE"
);
}
);
width = 378;
}
);
unicode = 0049;
},
{
color = 1;
glyphname = J;
lastChange = "2018-03-25 14:41:58 +0000";
layers = (
{
background = {
components = (
{
name = I;
transform = "{1, 0, 0, 1, -1, 0}";
}
);
};
layerId = "1B5E7594-BD1E-41E1-80E1-0DE241437139";
paths = (
{
closed = 1;
nodes = (
"39 704 LINE",
"152 700 LINE",
"278 704 LINE",
"278 671 LINE",
"226 664 LINE SMOOTH",
"204 661 OFFCURVE",
"191 649 OFFCURVE",
"191 631 CURVE SMOOTH",
"191 65 LINE",
"173 -18 OFFCURVE",
"147 -80 OFFCURVE",
"95 -178 CURVE",
"56 -154 LINE",
"93 -75 OFFCURVE",
"121 8 OFFCURVE",
"121 165 CURVE SMOOTH",
"121 630 LINE SMOOTH",
"121 650 OFFCURVE",
"108 663 OFFCURVE",
"85 666 CURVE SMOOTH",
"39 671 LINE"
);
}
);
width = 311;
},
{
background = {
components = (
{
name = j;
transform = "{1, 0, 0, 1, 30, 0}";
}
);
};
layerId = "5A1ECF60-5C3D-4C60-84B4-C69E600E0422";
paths = (
{
closed = 1;
nodes = (
"30 709 LINE",
"192 706 LINE",
"345 709 LINE",
"345 615 LINE",
"325 612 LINE SMOOTH",
"304 609 OFFCURVE",
"292 596 OFFCURVE",
"292 575 CURVE SMOOTH",
"293 25 LINE",
"253 -64 OFFCURVE",
"198 -133 OFFCURVE",
"131 -185 CURVE",
"32 -137 LINE",
"70 -45 OFFCURVE",
"85 32 OFFCURVE",
"84 170 CURVE SMOOTH",
"82 575 LINE SMOOTH",
"82 596 OFFCURVE",
"70 609 OFFCURVE",
"49 612 CURVE SMOOTH",
"30 615 LINE"
);
}
);
width = 369;
}
);
leftMetricsKey = I;
unicode = 004A;
},
{
color = 1;
glyphname = K;
lastChange = "2018-03-27 18:31:01 +0000";
layers = (
{
background = {
paths = (
{
closed = 1;
nodes = (
"203 483 LINE SMOOTH",
"203 549 OFFCURVE",
"204 600 OFFCURVE",
"206 627 CURVE",
"237 630 OFFCURVE",
"270 638 OFFCURVE",
"291 647 CURVE",
"291 664 OFFCURVE",
"289 688 OFFCURVE",
"284 698 CURVE",
"254 695 OFFCURVE",
"189 694 OFFCURVE",
"156 694 CURVE SMOOTH",
"109 694 OFFCURVE",
"68 698 OFFCURVE",
"22 698 CURVE",
"17 689 OFFCURVE",
"14 665 OFFCURVE",
"14 647 CURVE",
"46 644 OFFCURVE",
"83 635 OFFCURVE",
"105 627 CURVE",
"109 602 OFFCURVE",
"110 549 OFFCURVE",
"110 483 CURVE SMOOTH",
"110 130 LINE SMOOTH",
"110 107 OFFCURVE",
"109 92 OFFCURVE",
"105 67 CURVE",
"83 60 OFFCURVE",
"46 50 OFFCURVE",
"14 47 CURVE",
"14 29 OFFCURVE",
"17 5 OFFCURVE",
"22 -4 CURVE",
"68 -4 OFFCURVE",
"109 0 OFFCURVE",
"156 0 CURVE SMOOTH",
"189 0 OFFCURVE",
"254 -1 OFFCURVE",
"284 -4 CURVE",
"289 6 OFFCURVE",
"291 30 OFFCURVE",
"291 47 CURVE",
"270 57 OFFCURVE",
"237 64 OFFCURVE",
"206 67 CURVE",
"204 94 OFFCURVE",
"203 123 OFFCURVE",
"203 153 CURVE SMOOTH",
"203 268 LINE",
"235 284 OFFCURVE",
"269 300 OFFCURVE",
"307 317 CURVE",
"362 242 OFFCURVE",
"440 125 OFFCURVE",
"481 61 CURVE",
"459 54 OFFCURVE",
"436 50 OFFCURVE",
"413 47 CURVE",
"413 29 OFFCURVE",
"416 5 OFFCURVE",
"421 -4 CURVE",
"455 -4 OFFCURVE",
"501 0 OFFCURVE",
"547 0 CURVE SMOOTH",
"581 0 OFFCURVE",
"638 -2 OFFCURVE",
"669 -4 CURVE",
"674 6 OFFCURVE",
"676 30 OFFCURVE",
"676 47 CURVE",
"655 57 OFFCURVE",
"622 64 OFFCURVE",
"591 67 CURVE",
"516 175 OFFCURVE",
"431 293 OFFCURVE",
"372 372 CURVE",
"427 452 OFFCURVE",
"484 528 OFFCURVE",
"562 627 CURVE",
"594 630 OFFCURVE",
"623 638 OFFCURVE",
"644 647 CURVE",
"644 664 OFFCURVE",
"642 688 OFFCURVE",
"636 698 CURVE",
"606 695 OFFCURVE",
"544 694 OFFCURVE",
"511 694 CURVE SMOOTH",
"464 694 OFFCURVE",
"443 698 OFFCURVE",
"397 698 CURVE",
"392 689 OFFCURVE",
"389 665 OFFCURVE",
"389 647 CURVE",
"420 644 OFFCURVE",
"450 637 OFFCURVE",
"472 630 CURVE",
"427 571 OFFCURVE",
"358 475 OFFCURVE",
"312 407 CURVE",
"283 387 OFFCURVE",
"242 363 OFFCURVE",
"203 341 CURVE"
);
}
);
};
components = (
{
name = I;
}
);
layerId = "1B5E7594-BD1E-41E1-80E1-0DE241437139";
paths = (
{
closed = 1;
nodes = (
"521 700 LINE",
"624 704 LINE",
"624 672 LINE",
"590 662 LINE SMOOTH",
"567 655 OFFCURVE",
"551 641 OFFCURVE",
"534 621 CURVE SMOOTH",
"172 197 LINE",
"164 260 LINE",
"467 619 LINE SMOOTH",
"486 642 OFFCURVE",
"472 661 OFFCURVE",
"444 666 CURVE SMOOTH",
"408 672 LINE",
"408 704 LINE"
);
},
{
closed = 1;
nodes = (
"342 409 LINE",
"547 63 LINE SMOOTH",
"559 43 OFFCURVE",
"570 42 OFFCURVE",
"589 49 CURVE SMOOTH",
"639 68 LINE",
"649 47 LINE",
"625 4 LINE",
"551 -29 OFFCURVE",
"499 0 OFFCURVE",
"468 59 CURVE SMOOTH",
"291 390 LINE"
);
}
);
width = 666;
},
{
components = (
{
name = I;
}
);
layerId = "5A1ECF60-5C3D-4C60-84B4-C69E600E0422";
paths = (
{
closed = 1;
nodes = (
"549 704 LINE",
"692 707 LINE",
"692 617 LINE",
"642 605 LINE SMOOTH",
"624 601 OFFCURVE",
"607 587 OFFCURVE",
"594 573 CURVE SMOOTH",
"289 227 LINE",
"271 344 LINE",
"442 560 LINE SMOOTH",
"458 580 OFFCURVE",
"448 606 OFFCURVE",
"423 610 CURVE SMOOTH",
"391 615 LINE",
"391 706 LINE"
);
},
{
closed = 1;
nodes = (
"482 460 LINE",
"632 151 LINE SMOOTH",
"641 132 OFFCURVE",
"656 124 OFFCURVE",
"676 128 CURVE SMOOTH",
"710 135 LINE",
"724 113 LINE",
"679 1 LINE",
"476 -51 OFFCURVE",
"427 48 OFFCURVE",
"398 134 CURVE SMOOTH",
"335 321 LINE"
);
}
);
width = 714;
}
);
leftMetricsKey = I;
unicode = 004B;
},
{
color = 1;
glyphname = L;
lastChange = "2018-03-25 17:52:17 +0000";
layers = (
{
background = {
components = (
{
name = I;
transform = "{1, 0, 0, 1, -1, 0}";
}
);
};
layerId = "1B5E7594-BD1E-41E1-80E1-0DE241437139";
paths = (
{
closed = 1;
nodes = (
"39 26 LINE",
"87 34 LINE SMOOTH",
"111 38 OFFCURVE",
"123 51 OFFCURVE",
"123 75 CURVE SMOOTH",
"123 620 LINE SMOOTH",
"123 644 OFFCURVE",
"110 662 OFFCURVE",
"86 665 CURVE SMOOTH",
"40 671 LINE",
"40 704 LINE",
"153 700 LINE",
"279 704 LINE",
"279 671 LINE",
"226 663 LINE SMOOTH",
"202 659 OFFCURVE",
"190 645 OFFCURVE",
"190 621 CURVE SMOOTH",
"190 84 LINE SMOOTH",
"190 60 OFFCURVE",
"203 41 OFFCURVE",
"227 42 CURVE SMOOTH",
"365 46 LINE SMOOTH",
"417 48 OFFCURVE",
"433 54 OFFCURVE",
"449 133 CURVE",
"493 133 LINE",
"475 -2 LINE",
"156 0 LINE",
"39 -3 LINE"
);
}
);
width = 535;
},
{
background = {
components = (
{
name = I;
}
);
};
layerId = "5A1ECF60-5C3D-4C60-84B4-C69E600E0422";
paths = (
{
closed = 1;
nodes = (
"30 89 LINE",
"52 91 LINE SMOOTH",
"73 93 OFFCURVE",
"87 108 OFFCURVE",
"87 129 CURVE",
"82 574 LINE",
"82 595 OFFCURVE",
"71 607 OFFCURVE",
"50 611 CURVE SMOOTH",
"31 615 LINE",
"31 709 LINE",
"187 706 LINE",
"352 709 LINE",
"352 615 LINE",
"332 612 LINE SMOOTH",
"311 609 OFFCURVE",
"299 596 OFFCURVE",
"299 575 CURVE SMOOTH",
"295 126 LINE SMOOTH",
"295 120 OFFCURVE",
"296 115 OFFCURVE",
"298 111 CURVE",
"382 112 LINE SMOOTH",
"440 113 OFFCURVE",
"452 134 OFFCURVE",
"463 205 CURVE",
"561 205 LINE",
"537 -6 LINE",
"177.089 -0.116 LINE",
"30 -3 LINE"
);
}
);
width = 561;
}
);
leftMetricsKey = I;
unicode = 004C;
},
{
glyphname = M;
lastChange = "2018-03-25 17:49:18 +0000";
layers = (
{
background = {
components = (
{
name = H;
transform = "{1, 0, 0, 1, 137, 0}";
}
);
};
layerId = "1B5E7594-BD1E-41E1-80E1-0DE241437139";
paths = (
{
closed = 1;
nodes = (
"166 0 LINE",
"272 -4 LINE",
"272 26 LINE",
"212 38 LINE SMOOTH",
"189 43 OFFCURVE",
"177 57 OFFCURVE",
"177 82 CURVE SMOOTH",
"173 621 LINE",
"397 -9 LINE",
"450 16 LINE",
"669 619 LINE",
"667 79 LINE SMOOTH",
"667 55 OFFCURVE",
"654 38 OFFCURVE",
"631 35 CURVE SMOOTH",
"566 26 LINE",
"566 -4 LINE",
"680 0 LINE",
"823 -4 LINE",
"823 28 LINE",
"765 35 LINE SMOOTH",
"743 38 OFFCURVE",
"733 59 OFFCURVE",
"733 83 CURVE SMOOTH",
"732 620 LINE SMOOTH",
"732 643 OFFCURVE",
"738 657 OFFCURVE",
"761 661 CURVE SMOOTH",
"815 671 LINE",
"815 704 LINE",
"723 700 LINE",
"643 702 LINE",
"430 99 LINE",
"216 702 LINE",
"142 700 LINE",
"42 704 LINE",
"42 669 LINE",
"87 663 LINE SMOOTH",
"111 660 OFFCURVE",
"123 644 OFFCURVE",
"123 620 CURVE SMOOTH",
"124 83 LINE SMOOTH",
"124 60 OFFCURVE",
"114 35 OFFCURVE",
"92 33 CURVE SMOOTH",
"39 28 LINE",
"39 -4 LINE"
);
}
);
width = 862;
},
{
background = {
components = (
{
name = I;
transform = "{1, 0, 0, 1, 501, 0}";
},
{
name = N;
transform = "{1, 0, 0, 1, -19, 0}";
}
);
};
layerId = "5A1ECF60-5C3D-4C60-84B4-C69E600E0422";
paths = (
{
closed = 1;
nodes = (
"150 0 LINE",
"302 -3 LINE",
"302 86 LINE",
"252 95 LINE SMOOTH",
"231 99 OFFCURVE",
"220 110 OFFCURVE",
"220 132 CURVE SMOOTH",
"217 408 LINE",
"365 -5 LINE",
"451 10 LINE",
"583 408 LINE",
"583 127 LINE SMOOTH",
"583 106 OFFCURVE",
"571 93 OFFCURVE",
"550 90 CURVE SMOOTH",
"522 86 LINE",
"522 -4 LINE",
"684 0 LINE",
"852 -3 LINE",
"852 86 LINE",
"819 91 LINE SMOOTH",
"798 94 OFFCURVE",
"787 107 OFFCURVE",
"787 128 CURVE SMOOTH",
"787 574 LINE SMOOTH",
"787 595 OFFCURVE",
"798 608 OFFCURVE",
"819 611 CURVE SMOOTH",
"847 615 LINE",
"847 709 LINE",
"706 706 LINE",
"574 709 LINE",
"451 358 LINE",
"328 710 LINE",
"188 706 LINE",
"32 709 LINE",
"32 615 LINE",
"64 609 LINE SMOOTH",
"85 605 OFFCURVE",
"96 593 OFFCURVE",
"96 572 CURVE SMOOTH",
"96 128 LINE SMOOTH",
"96 107 OFFCURVE",
"85 94 OFFCURVE",
"64 91 CURVE SMOOTH",
"30 86 LINE",
"30 -3 LINE"
);
}
);
width = 872;
}
);
leftMetricsKey = I;
rightMetricsKey = I;
unicode = 004D;
},
{
color = 1;
glyphname = N;
lastChange = "2018-03-25 18:23:41 +0000";
layers = (
{
background = {
components = (
{
name = H;
transform = "{1, 0, 0, 1, 2, 0}";
}
);
};
layerId = "1B5E7594-BD1E-41E1-80E1-0DE241437139";
paths = (
{
closed = 1;
nodes = (
"150 0 LINE",
"273 -4 LINE",
"273 30 LINE",
"213 41 LINE SMOOTH",
"190 45 OFFCURVE",
"178 58 OFFCURVE",
"178 87 CURVE SMOOTH",
"175 639 LINE",
"563 -21 LINE",
"601 -10 LINE",
"601 615 LINE SMOOTH",
"601 638 OFFCURVE",
"612 659 OFFCURVE",
"635 662 CURVE SMOOTH",
"686 669 LINE",
"686 704 LINE",
"573 700 LINE",
"453 701 LINE",
"453 666 LINE",
"506 661 LINE SMOOTH",
"535 658 OFFCURVE",
"549 646 OFFCURVE",
"549 615 CURVE SMOOTH",
"553 135 LINE",
"221 704 LINE",
"139 700 LINE",
"46 704 LINE",
"46 668 LINE",
"91 662 LINE SMOOTH",
"115 659 OFFCURVE",
"125 642 OFFCURVE",
"125 618 CURVE SMOOTH",
"125 88 LINE SMOOTH",
"125 63 OFFCURVE",
"115 44 OFFCURVE",
"92 40 CURVE SMOOTH",
"39 30 LINE",
"39 -4 LINE"
);
}
);
width = 708;
},
{
background = {
components = (
{
name = H;
transform = "{1, 0, 0, 1, 15, 0}";
}
);
};
layerId = "5A1ECF60-5C3D-4C60-84B4-C69E600E0422";
paths = (
{
closed = 1;
nodes = (
"168 0 LINE",
"342 -3 LINE",
"342 89 LINE",
"296 95 LINE SMOOTH",
"255 100 OFFCURVE",
"246 108 OFFCURVE",
"245 144 CURVE SMOOTH",
"241 403 LINE",
"465 -14 LINE",
"676 7 LINE",
"676 566 LINE SMOOTH",
"676 587 OFFCURVE",
"686 600 OFFCURVE",
"706 605 CURVE SMOOTH",
"745 615 LINE",
"745 709 LINE",
"620 706 LINE",
"445 709 LINE",
"445 615 LINE",
"501 605 LINE SMOOTH",
"525 601 OFFCURVE",
"541 577 OFFCURVE",
"541 558 CURVE SMOOTH",
"541 263 LINE",
"331 709 LINE",
"180 706 LINE",
"44 709 LINE",
"44 615 LINE",
"82 608 LINE SMOOTH",
"103 604 OFFCURVE",
"113 591 OFFCURVE",
"113 570 CURVE SMOOTH",
"113 135 LINE SMOOTH",
"113 115 OFFCURVE",
"99 98 OFFCURVE",
"78 94 CURVE SMOOTH",
"44 88 LINE",
"44 -3 LINE"
);
}
);
width = 753;
},
{
associatedMasterId = "5A1ECF60-5C3D-4C60-84B4-C69E600E0422";
background = {
components = (
{
name = H;
transform = "{1, 0, 0, 1, 15, 0}";
}
);
};
backgroundImage = {
crop = "{{0, 0}, {522, 160}}";
imagePath = ../../../../Desktop/4727e6a4b0acdab98c17b3db3e0cf7.gif;
transform = "{4.27, 0, 0, 4.56, -1490, -20}";
};
layerId = "B0EC626A-5EF7-4134-BABA-7ED347DC724B";
name = "Mar 25 18, 18:35";
paths = (
{
closed = 1;
nodes = (
"168 0 LINE",
"322 -3 LINE",
"322 89 LINE",
"276 95 LINE SMOOTH",
"235 100 OFFCURVE",
"225 108 OFFCURVE",
"225 144 CURVE SMOOTH",
"221 433 LINE",
"465 -14 LINE",
"696 7 LINE",
"696 566 LINE SMOOTH",
"696 587 OFFCURVE",
"706 600 OFFCURVE",
"726 605 CURVE SMOOTH",
"765 615 LINE",
"765 709 LINE",
"640 706 LINE",
"465 709 LINE",
"465 615 LINE",
"521 605 LINE SMOOTH",
"545 601 OFFCURVE",
"561 577 OFFCURVE",
"561 558 CURVE SMOOTH",
"561 243 LINE",
"331 709 LINE",
"180 706 LINE",
"30 709 LINE",
"30 615 LINE",
"68 608 LINE SMOOTH",
"89 604 OFFCURVE",
"99 591 OFFCURVE",
"99 570 CURVE SMOOTH",
"99 135 LINE SMOOTH",
"99 115 OFFCURVE",
"85 98 OFFCURVE",
"64 94 CURVE SMOOTH",
"30 88 LINE",
"30 -3 LINE"
);
}
);
width = 753;
}
);
leftMetricsKey = I;
unicode = 004E;
},
{
color = 1;
glyphname = O;
lastChange = "2018-03-25 17:53:04 +0000";
layers = (
{
background = {
components = (
{
name = H;
transform = "{1, 0, 0, 1, 9, 0}";
}
);
};
layerId = "1B5E7594-BD1E-41E1-80E1-0DE241437139";
paths = (
{
closed = 1;
nodes = (
"558 -17 OFFCURVE",
"673 121 OFFCURVE",
"672 354 CURVE SMOOTH",
"671 591 OFFCURVE",
"553 718 OFFCURVE",
"369 718 CURVE SMOOTH",
"178 718 OFFCURVE",
"65 576 OFFCURVE",
"65 354 CURVE SMOOTH",
"65 111 OFFCURVE",
"177 -16 OFFCURVE",
"368 -17 CURVE SMOOTH"
);
},
{
closed = 1;
nodes = (
"225 31 OFFCURVE",
"141 166 OFFCURVE",
"141 357 CURVE SMOOTH",
"141 537 OFFCURVE",
"227 670 OFFCURVE",
"369 670 CURVE SMOOTH",
"513 670 OFFCURVE",
"600 550 OFFCURVE",
"600 357 CURVE SMOOTH",
"600 164 OFFCURVE",
"512 31 OFFCURVE",
"368 31 CURVE SMOOTH"
);
}
);
width = 737;
},
{
background = {
components = (
{
name = H;
transform = "{1, 0, 0, 1, -23, 0}";
}
);
paths = (
{
closed = 1;
nodes = (
"343 -58 LINE",
"362 -58 LINE",
"362 772 LINE",
"343 772 LINE"
);
}
);
};
layerId = "5A1ECF60-5C3D-4C60-84B4-C69E600E0422";
paths = (
{
closed = 1;
nodes = (
"567 -20 OFFCURVE",
"671 98 OFFCURVE",
"674 353 CURVE SMOOTH",
"678 607 OFFCURVE",
"574 727 OFFCURVE",
"352 725 CURVE SMOOTH",
"134 723 OFFCURVE",
"30 603 OFFCURVE",
"30 353 CURVE SMOOTH",
"30 98 OFFCURVE",
"134 -20 OFFCURVE",
"352 -20 CURVE SMOOTH"
);
},
{
closed = 1;
nodes = (
"294 105 OFFCURVE",
"279 155 OFFCURVE",
"278 345 CURVE SMOOTH",
"277 545 OFFCURVE",
"292 594 OFFCURVE",
"354 594 CURVE SMOOTH",
"413 594 OFFCURVE",
"428 545 OFFCURVE",
"429 345 CURVE SMOOTH",
"430 155 OFFCURVE",
"415 105 OFFCURVE",
"354 105 CURVE SMOOTH"
);
}
);
width = 704;
}
);
unicode = 004F;
},
{
color = 1;
glyphname = P;
lastChange = "2018-03-25 17:54:23 +0000";
layers = (
{
components = (
{
name = I;
}
);
layerId = "1B5E7594-BD1E-41E1-80E1-0DE241437139";
paths = (
{
closed = 1;
nodes = (
"385 716 OFFCURVE",
"527 691 OFFCURVE",
"527 509 CURVE SMOOTH",
"527 356 OFFCURVE",
"405 261 OFFCURVE",
"148 302 CURVE",
"166 344 LINE",
"381 323 OFFCURVE",
"453 375 OFFCURVE",
"453 509 CURVE SMOOTH",
"453 611 OFFCURVE",
"394 672 OFFCURVE",
"162 650 CURVE",
"164 700 LINE"
);
},
{
closed = 1;
nodes = (
"300 26 LINE",
"300 -3 LINE",
"281 -3 LINE",
"258 28 LINE"
);
}
);
width = 577;
},
{
components = (
{
name = I;
}
);
layerId = "5A1ECF60-5C3D-4C60-84B4-C69E600E0422";
paths = (
{
closed = 1;
nodes = (
"513 718 OFFCURVE",
"647 706 OFFCURVE",
"647 500 CURVE SMOOTH",
"647 288 OFFCURVE",
"465 217 OFFCURVE",
"228 273 CURVE",
"226 382 LINE",
"387 338 OFFCURVE",
"415 402 OFFCURVE",
"415 490 CURVE SMOOTH",
"415 587 OFFCURVE",
"372 602 OFFCURVE",
"281 595 CURVE",
"264 706 LINE"
);
},
{
closed = 1;
nodes = (
"388 89 LINE",
"388 -3 LINE",
"347 -3 LINE",
"347 89 LINE"
);
}
);
width = 645;
}
);
leftMetricsKey = I;
unicode = 0050;
},
{
color = 1;
glyphname = Q;
lastChange = "2018-03-25 17:55:50 +0000";
layers = (
{
background = {
components = (
{
name = R;
transform = "{1, 0, 0, 1, 56, -167}";
}
);
};
components = (
{
name = O;
}
);
layerId = "1B5E7594-BD1E-41E1-80E1-0DE241437139";
paths = (
{
closed = 1;
nodes = (
"479 -133 OFFCURVE",
"349 -89 OFFCURVE",
"232 10 CURVE SMOOTH",
"133 94 LINE",
"247 -118 OFFCURVE",
"464 -216 OFFCURVE",
"625 -167 CURVE",
"646 -114 LINE",
"638 -103 LINE"
);
}
);
width = 700;
},
{
associatedMasterId = "5A1ECF60-5C3D-4C60-84B4-C69E600E0422";
components = (
{
name = O;
}
);
layerId = "30201244-EAB5-4B4D-BFDE-DE8E7A0844E1";
name = "Sep 25 17, 14:14";
paths = (
{
closed = 1;
nodes = (
"226 -16 OFFCURVE",
"104 -59 OFFCURVE",
"76 -74 CURVE",
"66 -172 LINE",
"88 -194 LINE",
"173 -181 OFFCURVE",
"244 -177 OFFCURVE",
"320 -177 CURVE SMOOTH",
"416 -177 OFFCURVE",
"503 -189 OFFCURVE",
"551 -205 CURVE",
"651 -108 LINE",
"633 -54 LINE",
"244 -88 LINE",
"523 0 LINE",
"347 15 LINE"
);
}
);
width = 719;
},
{
background = {
components = (
{
name = R;
transform = "{1, 0, 0, 1, -43, -179}";
}
);
};
components = (
{
name = O;
}
);
layerId = "5A1ECF60-5C3D-4C60-84B4-C69E600E0422";
paths = (
{
closed = 1;
nodes = (
"531 -75 OFFCURVE",
"365 -59 OFFCURVE",
"265 0 CURVE SMOOTH",
"110 91 LINE",
"207 -102 OFFCURVE",
"388 -259 OFFCURVE",
"620 -180 CURVE",
"667 -66 LINE",
"652 -44 LINE"
);
}
);
width = 719;
}
);
leftMetricsKey = O;
unicode = 0051;
},
{
color = 1;
glyphname = R;
lastChange = "2018-03-27 18:41:41 +0000";
layers = (
{
background = {
paths = (
{
closed = 1;
nodes = (
"107 701 OFFCURVE",
"65 705 OFFCURVE",
"18 705 CURVE",
"13 696 OFFCURVE",
"10 671 OFFCURVE",
"10 653 CURVE",
"43 650 OFFCURVE",
"80 640 OFFCURVE",
"103 633 CURVE",
"107 607 OFFCURVE",
"108 553 OFFCURVE",
"108 484 CURVE SMOOTH",
"108 121 LINE SMOOTH",
"108 97 OFFCURVE",
"107 81 OFFCURVE",
"103 55 CURVE",
"80 48 OFFCURVE",
"43 38 OFFCURVE",
"10 35 CURVE",
"10 16 OFFCURVE",
"13 -8 OFFCURVE",
"18 -18 CURVE",
"65 -18 OFFCURVE",
"107 -14 OFFCURVE",
"155 -14 CURVE SMOOTH",
"190 -14 OFFCURVE",
"256 -15 OFFCURVE",
"287 -18 CURVE",
"293 -7 OFFCURVE",
"295 17 OFFCURVE",
"295 35 CURVE",
"273 45 OFFCURVE",
"239 52 OFFCURVE",
"207 55 CURVE",
"205 83 OFFCURVE",
"204 113 OFFCURVE",
"204 144 CURVE SMOOTH",
"204 288 LINE",
"241 281 OFFCURVE",
"285 277 OFFCURVE",
"326 277 CURVE SMOOTH",
"331 277 LINE",
"365 135 OFFCURVE",
"428 -33 OFFCURVE",
"557 -33 CURVE SMOOTH",
"590 -33 OFFCURVE",
"626 -23 OFFCURVE",
"667 -1 CURVE",
"669 18 OFFCURVE",
"665 35 OFFCURVE",
"653 48 CURVE",
"642 46 OFFCURVE",
"632 45 OFFCURVE",
"623 45 CURVE SMOOTH",
"515 45 OFFCURVE",
"455 177 OFFCURVE",
"416 298 CURVE",
"497 337 OFFCURVE",
"549 426 OFFCURVE",
"549 517 CURVE SMOOTH",
"549 609 OFFCURVE",
"503 708 OFFCURVE",
"355 708 CURVE SMOOTH",
"303 708 OFFCURVE",
"255 701 OFFCURVE",
"155 701 CURVE SMOOTH"
);
},
{
closed = 1;
nodes = (
"247 635 OFFCURVE",
"301 637 OFFCURVE",
"325 637 CURVE SMOOTH",
"402 637 OFFCURVE",
"451 578 OFFCURVE",
"451 486 CURVE SMOOTH",
"451 448 OFFCURVE",
"435 390 OFFCURVE",
"411 374 CURVE SMOOTH",
"396 364 OFFCURVE",
"367 347 OFFCURVE",
"303 347 CURVE SMOOTH",
"279 347 OFFCURVE",
"243 348 OFFCURVE",
"204 352 CURVE",
"204 484 LINE SMOOTH",
"204 552 OFFCURVE",
"205 606 OFFCURVE",
"207 634 CURVE"
);
}
);
};
components = (
{
name = I;
}
);
layerId = "1B5E7594-BD1E-41E1-80E1-0DE241437139";
paths = (
{
closed = 1;
nodes = (
"395 716 OFFCURVE",
"537 698 OFFCURVE",
"537 516 CURVE SMOOTH",
"537 354 OFFCURVE",
"424 270 OFFCURVE",
"176 299 CURVE",
"176 345 LINE",
"410 321 OFFCURVE",
"463 400 OFFCURVE",
"463 513 CURVE SMOOTH",
"463 615 OFFCURVE",
"404 674 OFFCURVE",
"172 652 CURVE",
"174 700 LINE"
);
},
{
closed = 1;
nodes = (
"360 319 LINE",
"513 63 LINE SMOOTH",
"525 43 OFFCURVE",
"536 42 OFFCURVE",
"555 49 CURVE SMOOTH",
"605 68 LINE",
"615 47 LINE",
"591 4 LINE",
"517 -29 OFFCURVE",
"464 1 OFFCURVE",
"434 59 CURVE SMOOTH",
"299 319 LINE"
);
}
);
width = 626;
},
{
background = {
components = (
{
name = P;
}
);
};
components = (
{
name = I;
}
);
layerId = "5A1ECF60-5C3D-4C60-84B4-C69E600E0422";
paths = (
{
closed = 1;
nodes = (
"511 718 OFFCURVE",
"655 707 OFFCURVE",
"655 501 CURVE SMOOTH",
"655 299 OFFCURVE",
"393 267 OFFCURVE",
"228 293 CURVE",
"226 394 LINE",
"385 380 OFFCURVE",
"423 415 OFFCURVE",
"423 493 CURVE SMOOTH",
"423 590 OFFCURVE",
"370 604 OFFCURVE",
"281 597 CURVE",
"264 706 LINE"
);
},
{
closed = 1;
nodes = (
"513 334 LINE",
"617 149 LINE SMOOTH",
"626 132 OFFCURVE",
"638 124 OFFCURVE",
"657 128 CURVE SMOOTH",
"695 135 LINE",
"709 113 LINE",
"663 0 LINE",
"457 -50 OFFCURVE",
"412 45 OFFCURVE",
"388 135 CURVE SMOOTH",
"335 332 LINE"
);
}
);
width = 705;
},
{
associatedMasterId = "1B5E7594-BD1E-41E1-80E1-0DE241437139";
background = {
components = (
{
name = K;
}
);
};
components = (
{
name = I;
}
);
layerId = "233930DF-364A-417E-A938-157FEC7E35CC";
name = "Mar 24 18, 12:00";
paths = (
{
closed = 1;
nodes = (
"385 716 OFFCURVE",
"527 698 OFFCURVE",
"527 516 CURVE SMOOTH",
"527 354 OFFCURVE",
"385 295 OFFCURVE",
"166 309 CURVE",
"166 355 LINE",
"371 338 OFFCURVE",
"453 400 OFFCURVE",
"453 513 CURVE SMOOTH",
"453 615 OFFCURVE",
"394 671 OFFCURVE",
"162 649 CURVE",
"164 700 LINE"
);
},
{
closed = 1;
nodes = (
"348 355 LINE",
"501 67 LINE SMOOTH",
"507 55 OFFCURVE",
"517 51 OFFCURVE",
"529 53 CURVE SMOOTH",
"584 62 LINE",
"588 52 LINE",
"568 0 LINE",
"492 -15 OFFCURVE",
"445 1 OFFCURVE",
"418 64 CURVE SMOOTH",
"297 343 LINE"
);
}
);
width = 626;
},
{
associatedMasterId = "1B5E7594-BD1E-41E1-80E1-0DE241437139";
background = {
paths = (
{
closed = 1;
nodes = (
"107 701 OFFCURVE",
"65 705 OFFCURVE",
"18 705 CURVE",
"13 696 OFFCURVE",
"10 671 OFFCURVE",
"10 653 CURVE",
"43 650 OFFCURVE",
"80 640 OFFCURVE",
"103 633 CURVE",
"107 607 OFFCURVE",
"108 553 OFFCURVE",
"108 484 CURVE SMOOTH",
"108 121 LINE SMOOTH",
"108 97 OFFCURVE",
"107 81 OFFCURVE",
"103 55 CURVE",
"80 48 OFFCURVE",
"43 38 OFFCURVE",
"10 35 CURVE",
"10 16 OFFCURVE",
"13 -8 OFFCURVE",
"18 -18 CURVE",
"65 -18 OFFCURVE",
"107 -14 OFFCURVE",
"155 -14 CURVE SMOOTH",
"190 -14 OFFCURVE",
"256 -15 OFFCURVE",
"287 -18 CURVE",
"293 -7 OFFCURVE",
"295 17 OFFCURVE",
"295 35 CURVE",
"273 45 OFFCURVE",
"239 52 OFFCURVE",
"207 55 CURVE",
"205 83 OFFCURVE",
"204 113 OFFCURVE",
"204 144 CURVE SMOOTH",
"204 288 LINE",
"241 281 OFFCURVE",
"285 277 OFFCURVE",
"326 277 CURVE SMOOTH",
"331 277 LINE",
"365 135 OFFCURVE",
"428 -33 OFFCURVE",
"557 -33 CURVE SMOOTH",
"590 -33 OFFCURVE",
"626 -23 OFFCURVE",
"667 -1 CURVE",
"669 18 OFFCURVE",
"665 35 OFFCURVE",
"653 48 CURVE",
"642 46 OFFCURVE",
"632 45 OFFCURVE",
"623 45 CURVE SMOOTH",
"515 45 OFFCURVE",
"455 177 OFFCURVE",
"416 298 CURVE",
"497 337 OFFCURVE",
"549 426 OFFCURVE",
"549 517 CURVE SMOOTH",
"549 609 OFFCURVE",
"503 708 OFFCURVE",
"355 708 CURVE SMOOTH",
"303 708 OFFCURVE",
"255 701 OFFCURVE",
"155 701 CURVE SMOOTH"
);
},
{
closed = 1;
nodes = (
"247 635 OFFCURVE",
"301 637 OFFCURVE",
"325 637 CURVE SMOOTH",
"402 637 OFFCURVE",
"451 578 OFFCURVE",
"451 486 CURVE SMOOTH",
"451 448 OFFCURVE",
"435 390 OFFCURVE",
"411 374 CURVE SMOOTH",
"396 364 OFFCURVE",
"367 347 OFFCURVE",
"303 347 CURVE SMOOTH",
"279 347 OFFCURVE",
"243 348 OFFCURVE",
"204 352 CURVE",
"204 484 LINE SMOOTH",
"204 552 OFFCURVE",
"205 606 OFFCURVE",
"207 634 CURVE"
);
}
);
};
components = (
{
name = I;
}
);
layerId = "38BFFFDA-7BE7-409D-87B5-B5FC6625FE70";
name = "Mar 27 18, 19:29";
paths = (
{
closed = 1;
nodes = (
"395 716 OFFCURVE",
"537 698 OFFCURVE",
"537 516 CURVE SMOOTH",
"537 354 OFFCURVE",
"424 270 OFFCURVE",
"176 299 CURVE",
"176 345 LINE",
"410 313 OFFCURVE",
"463 400 OFFCURVE",
"463 513 CURVE SMOOTH",
"463 615 OFFCURVE",
"404 671 OFFCURVE",
"172 649 CURVE",
"174 700 LINE"
);
},
{
closed = 1;
nodes = (
"380 340 LINE",
"477 75 OFFCURVE",
"523 42 OFFCURVE",
"571 55 CURVE SMOOTH",
"607 65 LINE",
"612 54 LINE",
"592 2 LINE",
"477 -34 OFFCURVE",
"423 22 OFFCURVE",
"327 333 CURVE"
);
}
);
width = 626;
}
);
leftMetricsKey = I;
unicode = 0052;
},
{
color = 1;
glyphname = S;
lastChange = "2018-03-27 18:43:52 +0000";
layers = (
{
background = {
paths = (
{
closed = 1;
nodes = (
"146 105 OFFCURVE",
"138 147 OFFCURVE",
"137 190 CURVE",
"121 195 OFFCURVE",
"103 198 OFFCURVE",
"87 195 CURVE",
"74 153 OFFCURVE",
"62 74 OFFCURVE",
"62 16 CURVE",
"93 -6 OFFCURVE",
"208 -31 OFFCURVE",
"295 -31 CURVE SMOOTH",
"437 -31 OFFCURVE",
"539 76 OFFCURVE",
"539 197 CURVE SMOOTH",
"539 321 OFFCURVE",
"430 364 OFFCURVE",
"330 404 CURVE SMOOTH",
"245 438 OFFCURVE",
"167 469 OFFCURVE",
"167 543 CURVE SMOOTH",
"167 589 OFFCURVE",
"187 614 OFFCURVE",
"199 620 CURVE SMOOTH",
"216 629 OFFCURVE",
"250 637 OFFCURVE",
"305 637 CURVE SMOOTH",
"338 637 OFFCURVE",
"402 629 OFFCURVE",
"421 620 CURVE",
"426 592 OFFCURVE",
"430 553 OFFCURVE",
"431 515 CURVE",
"447 509 OFFCURVE",
"463 509 OFFCURVE",
"479 512 CURVE",
"490 550 OFFCURVE",
"502 621 OFFCURVE",
"502 676 CURVE",
"446 698 OFFCURVE",
"370 712 OFFCURVE",
"287 712 CURVE SMOOTH",
"202 712 OFFCURVE",
"70 658 OFFCURVE",
"70 505 CURVE SMOOTH",
"70 400 OFFCURVE",
"174 357 OFFCURVE",
"270 318 CURVE SMOOTH",
"353 284 OFFCURVE",
"430 252 OFFCURVE",
"430 181 CURVE SMOOTH",
"430 131 OFFCURVE",
"416 89 OFFCURVE",
"395 73 CURVE SMOOTH",
"379 61 OFFCURVE",
"339 46 OFFCURVE",
"294 46 CURVE SMOOTH",
"246 46 OFFCURVE",
"189 55 OFFCURVE",
"151 75 CURVE"
);
}
);
};
guideLines = (
{
angle = 82;
position = "{120, 450}";
}
);
layerId = "1B5E7594-BD1E-41E1-80E1-0DE241437139";
paths = (
{
closed = 1;
nodes = (
"83 641 OFFCURVE",
"183 712 OFFCURVE",
"335 712 CURVE SMOOTH",
"379 712 OFFCURVE",
"438 708 OFFCURVE",
"498 686 CURVE",
"505 673 LINE",
"487 553 LINE",
"443 553 LINE",
"457 643 OFFCURVE",
"427 664 OFFCURVE",
"329 663 CURVE SMOOTH",
"209 662 OFFCURVE",
"143 615 OFFCURVE",
"142 526 CURVE SMOOTH",
"141 458 OFFCURVE",
"188 427 OFFCURVE",
"307 390 CURVE SMOOTH",
"411 358 OFFCURVE",
"530 329 OFFCURVE",
"530 190 CURVE SMOOTH",
"530 50 OFFCURVE",
"413 -16 OFFCURVE",
"256 -15 CURVE SMOOTH",
"179 -14 OFFCURVE",
"124 -5 OFFCURVE",
"71 24 CURVE",
"67 38 LINE",
"86 160 LINE",
"131 160 LINE",
"119 68 OFFCURVE",
"129 39 OFFCURVE",
"252 36 CURVE SMOOTH",
"392 33 OFFCURVE",
"464 87 OFFCURVE",
"466 165 CURVE SMOOTH",
"468 254 OFFCURVE",
"379 288 OFFCURVE",
"277 320 CURVE SMOOTH",
"170 354 OFFCURVE",
"71 394 OFFCURVE",
"77 522 CURVE SMOOTH"
);
}
);
width = 550;
},
{
background = {
components = (
{
name = C;
transform = "{1, 0, 0, 1, -11, 0}";
}
);
};
layerId = "5A1ECF60-5C3D-4C60-84B4-C69E600E0422";
paths = (
{
closed = 1;
nodes = (
"67 661 OFFCURVE",
"203 721 OFFCURVE",
"381 721 CURVE SMOOTH",
"439 721 OFFCURVE",
"513 717 OFFCURVE",
"588 698 CURVE",
"599 663 LINE",
"584 604 OFFCURVE",
"572 549 OFFCURVE",
"565 490 CURVE",
"448 490 LINE",
"457 537 OFFCURVE",
"463 595 OFFCURVE",
"393 605 CURVE SMOOTH",
"344 612 OFFCURVE",
"267 610 OFFCURVE",
"267 537 CURVE SMOOTH",
"267 485 OFFCURVE",
"335 467 OFFCURVE",
"414 444 CURVE SMOOTH",
"515 415 OFFCURVE",
"629 369 OFFCURVE",
"628 227 CURVE SMOOTH",
"627 64 OFFCURVE",
"542 -22 OFFCURVE",
"303 -18 CURVE SMOOTH",
"236 -17 OFFCURVE",
"149 -11 OFFCURVE",
"69 18 CURVE",
"53 46 LINE",
"75 106 OFFCURVE",
"92 165 OFFCURVE",
"102 221 CURVE",
"220 221 LINE",
"199 123 OFFCURVE",
"230 100 OFFCURVE",
"282 92 CURVE SMOOTH",
"339 83 OFFCURVE",
"418 89 OFFCURVE",
"420 156 CURVE SMOOTH",
"422 225 OFFCURVE",
"334 243 OFFCURVE",
"238 277 CURVE SMOOTH",
"150 308 OFFCURVE",
"65 364 OFFCURVE",
"66 488 CURVE SMOOTH"
);
}
);
width = 698;
}
);
unicode = 0053;
},
{
color = 1;
glyphname = T;
lastChange = "2018-03-25 13:35:27 +0000";
layers = (
{
layerId = "1B5E7594-BD1E-41E1-80E1-0DE241437139";
paths = (
{
closed = 1;
nodes = (
"44 704 LINE",
"293 700 LINE",
"542 704 LINE",
"546 688 LINE",
"538 649 OFFCURVE",
"532 608 OFFCURVE",
"526 567 CURVE",
"485 567 LINE",
"490 639 OFFCURVE",
"480 653 OFFCURVE",
"431 654 CURVE SMOOTH",
"327 656 LINE",
"323 643 OFFCURVE",
"324 626 OFFCURVE",
"324 611 CURVE SMOOTH",
"324 77 LINE SMOOTH",
"324 53 OFFCURVE",
"337 41 OFFCURVE",
"361 37 CURVE SMOOTH",
"415 28 LINE",
"415 -3 LINE",
"292 0 LINE",
"173 -3 LINE",
"173 28 LINE",
"221 36 LINE SMOOTH",
"245 40 OFFCURVE",
"257 53 OFFCURVE",
"257 77 CURVE SMOOTH",
"257 610 LINE SMOOTH",
"257 624 OFFCURVE",
"257 641 OFFCURVE",
"254 654 CURVE",
"146 652 LINE SMOOTH",
"106 651 OFFCURVE",
"97 640 OFFCURVE",
"97 567 CURVE",
"58 567 LINE",
"54 606 OFFCURVE",
"49 647 OFFCURVE",
"40 688 CURVE"
);
}
);
width = 586;
},
{
background = {
components = (
{
name = I;
transform = "{1, 0, 0, 1, 123, 0}";
}
);
};
layerId = "5A1ECF60-5C3D-4C60-84B4-C69E600E0422";
paths = (
{
closed = 1;
nodes = (
"16 710 LINE",
"316 706 LINE",
"618 710 LINE",
"644 688 LINE",
"634 629 OFFCURVE",
"626 567 OFFCURVE",
"618 502 CURVE",
"528 502 LINE",
"530 563 OFFCURVE",
"519 600 OFFCURVE",
"482 601 CURVE SMOOTH",
"425 603 LINE",
"424 589 OFFCURVE",
"424 579 OFFCURVE",
"424 560 CURVE SMOOTH",
"420 126 LINE SMOOTH",
"420 108 OFFCURVE",
"429 93 OFFCURVE",
"445 92 CURVE SMOOTH",
"524 85 LINE",
"524 -4 LINE",
"317 0 LINE",
"114 -4 LINE",
"114 85 LINE",
"181 92 LINE SMOOTH",
"200 94 OFFCURVE",
"212 109 OFFCURVE",
"212 129 CURVE",
"207 559 LINE SMOOTH",
"207 577 OFFCURVE",
"206 589 OFFCURVE",
"206 600 CURVE",
"145 596 LINE SMOOTH",
"114 594 OFFCURVE",
"101 563 OFFCURVE",
"102 502 CURVE",
"16 502 LINE",
"11 564 OFFCURVE",
"3 626 OFFCURVE",
"-10 688 CURVE"
);
}
);
width = 634;
}
);
unicode = 0054;
},
{
color = 1;
glyphname = U;
lastChange = "2018-03-25 17:49:45 +0000";
layers = (
{
background = {
components = (
{
name = H;
transform = "{1, 0, 0, 1, -17, 0}";
}
);
};
guideLines = (
{
position = "{259, 664}";
}
);
layerId = "1B5E7594-BD1E-41E1-80E1-0DE241437139";
paths = (
{
closed = 1;
nodes = (
"40 704 LINE",
"141 700 LINE",
"258 704 LINE",
"258 671 LINE",
"213 666 LINE SMOOTH",
"189 663 OFFCURVE",
"175 644 OFFCURVE",
"175 620 CURVE SMOOTH",
"173 285 LINE SMOOTH",
"172 115 OFFCURVE",
"218 49 OFFCURVE",
"350 49 CURVE SMOOTH",
"454 49 OFFCURVE",
"527 108 OFFCURVE",
"527 254 CURVE SMOOTH",
"527 611 LINE SMOOTH",
"527 648 OFFCURVE",
"513 661 OFFCURVE",
"478 665 CURVE SMOOTH",
"431 671 LINE",
"431 704 LINE",
"550 700 LINE",
"657 704 LINE",
"657 671 LINE",
"623 667 LINE SMOOTH",
"590 663 OFFCURVE",
"580 649 OFFCURVE",
"580 612 CURVE SMOOTH",
"580 245 LINE SMOOTH",
"580 75 OFFCURVE",
"507 -15 OFFCURVE",
"330 -15 CURVE SMOOTH",
"177 -15 OFFCURVE",
"103 66 OFFCURVE",
"103 248 CURVE SMOOTH",
"104 622 LINE SMOOTH",
"104 647 OFFCURVE",
"96 664 OFFCURVE",
"72 667 CURVE SMOOTH",
"40 671 LINE"
);
}
);
width = 690;
},
{
background = {
components = (
{
name = G;
transform = "{1, 0, 0, 1, -31, 0}";
}
);
};
layerId = "5A1ECF60-5C3D-4C60-84B4-C69E600E0422";
paths = (
{
closed = 1;
nodes = (
"-2 710 LINE",
"159 706 LINE",
"331 710 LINE",
"331 615 LINE",
"297 608 LINE SMOOTH",
"269 602 OFFCURVE",
"262 584 OFFCURVE",
"262 548 CURVE SMOOTH",
"260 267 LINE SMOOTH",
"259 180 OFFCURVE",
"302 143 OFFCURVE",
"374 143 CURVE SMOOTH",
"437 143 OFFCURVE",
"469 193 OFFCURVE",
"469 274 CURVE SMOOTH",
"469 552 LINE SMOOTH",
"469 586 OFFCURVE",
"451 608 OFFCURVE",
"415 611 CURVE SMOOTH",
"373 615 LINE",
"373 710 LINE",
"535 706 LINE",
"674 710 LINE",
"674 615 LINE",
"650 610 LINE SMOOTH",
"623 604 OFFCURVE",
"610 587 OFFCURVE",
"610 558 CURVE SMOOTH",
"610 285 LINE SMOOTH",
"610 117 OFFCURVE",
"548 -17 OFFCURVE",
"333 -17 CURVE SMOOTH",
"134 -17 OFFCURVE",
"49 71 OFFCURVE",
"50 278 CURVE SMOOTH",
"51 571 LINE SMOOTH",
"51 592 OFFCURVE",
"41 605 OFFCURVE",
"21 608 CURVE SMOOTH",
"-2 612 LINE"
);
}
);
width = 687;
}
);
unicode = 0055;
},
{
color = 1;
glyphname = V;
lastChange = "2018-03-25 18:14:52 +0000";
layers = (
{
background = {
components = (
{
name = W;
transform = "{1, 0, 0, 1, 25, 0}";
}
);
};
layerId = "1B5E7594-BD1E-41E1-80E1-0DE241437139";
paths = (
{
closed = 1;
nodes = (
"79 667 LINE SMOOTH",
"104 664 OFFCURVE",
"116 650 OFFCURVE",
"124 623 CURVE SMOOTH",
"312 -10 LINE",
"334 -2 OFFCURVE",
"357 7 OFFCURVE",
"379 15 CURVE",
"566 615 LINE SMOOTH",
"572 636 OFFCURVE",
"583 658 OFFCURVE",
"605 661 CURVE SMOOTH",
"655 668 LINE",
"655 704 LINE",
"533 700 LINE",
"402 704 LINE",
"402 668 LINE",
"459 661 LINE SMOOTH",
"497 656 OFFCURVE",
"504 628 OFFCURVE",
"497 602 CURVE SMOOTH",
"351 82 LINE",
"342 82 LINE",
"208 611 LINE SMOOTH",
"201 637 OFFCURVE",
"207 664 OFFCURVE",
"236 667 CURVE SMOOTH",
"282 672 LINE",
"282 704 LINE",
"158 700 LINE",
"33 704 LINE",
"33 672 LINE"
);
}
);
width = 688;
},
{
associatedMasterId = "5A1ECF60-5C3D-4C60-84B4-C69E600E0422";
background = {
components = (
{
name = H;
transform = "{1, 0, 0, 1, -34, 0}";
}
);
};
backgroundImage = {
crop = "{{0, 0}, {522, 160}}";
imagePath = ../../../../Desktop/4727e6a4b0acdab98c17b3db3e0cf7.gif;
transform = "{4.27, 0, 0, 4.56, -21, -20}";
};
layerId = "D11E9D99-8DDC-41A2-BA45-536D8CD21B53";
name = "Mar 25 18, 18:43";
paths = (
{
closed = 1;
nodes = (
"3 607 LINE SMOOTH",
"22 600 OFFCURVE",
"31 593 OFFCURVE",
"38 573 CURVE SMOOTH",
"256 -12 LINE",
"319 -4 OFFCURVE",
"361 4 OFFCURVE",
"401 7 CURVE",
"613 567 LINE SMOOTH",
"620 586 OFFCURVE",
"625 599 OFFCURVE",
"644 606 CURVE SMOOTH",
"667 614 LINE",
"668 709 LINE",
"545 704 LINE",
"397 708 LINE",
"397 614 LINE",
"448 607 LINE SMOOTH",
"470 604 OFFCURVE",
"480 581 OFFCURVE",
"473 560 CURVE SMOOTH",
"378 277 LINE",
"360 277 LINE",
"277 564 LINE SMOOTH",
"271 586 OFFCURVE",
"282 600 OFFCURVE",
"304 606 CURVE SMOOTH",
"332 614 LINE",
"332 708 LINE",
"132 704 LINE",
"-15 708 LINE",
"-15 614 LINE"
);
}
);
width = 658;
},
{
background = {
components = (
{
name = H;
transform = "{1, 0, 0, 1, -34, 0}";
}
);
};
layerId = "5A1ECF60-5C3D-4C60-84B4-C69E600E0422";
paths = (
{
closed = 1;
nodes = (
"33 607 LINE SMOOTH",
"52 600 OFFCURVE",
"64 593 OFFCURVE",
"68 573 CURVE SMOOTH",
"196 -12 LINE",
"289 -4 OFFCURVE",
"401 6 OFFCURVE",
"471 7 CURVE",
"613 567 LINE SMOOTH",
"618 586 OFFCURVE",
"625 599 OFFCURVE",
"644 606 CURVE SMOOTH",
"667 614 LINE",
"668 709 LINE",
"545 704 LINE",
"397 708 LINE",
"397 614 LINE",
"431 607 LINE SMOOTH",
"453 602 OFFCURVE",
"460 581 OFFCURVE",
"456 560 CURVE SMOOTH",
"379 180 LINE",
"358 180 LINE",
"299 564 LINE SMOOTH",
"295 587 OFFCURVE",
"304 600 OFFCURVE",
"326 606 CURVE SMOOTH",
"354 614 LINE",
"354 708 LINE",
"162 704 LINE",
"15 708 LINE",
"15 614 LINE"
);
}
);
width = 658;
}
);
leftKerningGroup = V;
rightKerningGroup = V;
unicode = 0056;
},
{
color = 1;
glyphname = W;
lastChange = "2018-03-25 18:23:24 +0000";
layers = (
{
background = {
components = (
{
name = I;
transform = "{1, 0, 0, 1, 662, 0}";
}
);
};
layerId = "1B5E7594-BD1E-41E1-80E1-0DE241437139";
paths = (
{
closed = 1;
nodes = (
"80 665 LINE SMOOTH",
"103 662 OFFCURVE",
"115 646 OFFCURVE",
"121 623 CURVE SMOOTH",
"282 -10 LINE",
"304 -2 OFFCURVE",
"327 7 OFFCURVE",
"349 15 CURVE",
"498 446 LINE",
"632 -10 LINE",
"654 -2 OFFCURVE",
"677 7 OFFCURVE",
"699 15 CURVE",
"859 615 LINE SMOOTH",
"865 639 OFFCURVE",
"876 657 OFFCURVE",
"903 663 CURVE SMOOTH",
"945 672 LINE",
"945 704 LINE",
"835 700 LINE",
"692 704 LINE",
"692 672 LINE",
"748 664 LINE SMOOTH",
"785 659 OFFCURVE",
"799 632 OFFCURVE",
"792 602 CURVE SMOOTH",
"675 93 LINE",
"667 93 LINE",
"495 706 LINE",
"436 690 LINE",
"430 679 LINE",
"472 532 LINE",
"327 93 LINE",
"320 93 LINE",
"197 611 LINE SMOOTH",
"191 637 OFFCURVE",
"205 660 OFFCURVE",
"231 664 CURVE SMOOTH",
"285 672 LINE",
"285 704 LINE",
"155 700 LINE",
"33 704 LINE",
"33 672 LINE"
);
}
);
width = 978;
},
{
background = {
components = (
{
name = V;
transform = "{1, 0, 0, 1, 350, 0}";
},
{
name = V;
transform = "{1, 0, 0, 1, -3, 0}";
}
);
};
guideLines = (
{
position = "{913, 195}";
}
);
layerId = "5A1ECF60-5C3D-4C60-84B4-C69E600E0422";
paths = (
{
closed = 1;
nodes = (
"36 606 LINE SMOOTH",
"55 598 OFFCURVE",
"64 593 OFFCURVE",
"68 573 CURVE SMOOTH",
"198 -10 LINE",
"268 -1 OFFCURVE",
"377 6 OFFCURVE",
"447 6 CURVE",
"508 242 LINE",
"567 -10 LINE",
"637 -3 OFFCURVE",
"747 4 OFFCURVE",
"817 6 CURVE",
"956 566 LINE SMOOTH",
"961 585 OFFCURVE",
"971 594 OFFCURVE",
"988 602 CURVE SMOOTH",
"1016 615 LINE",
"1016 709 LINE",
"891 706 LINE",
"730 709 LINE",
"730 615 LINE",
"784 602 LINE SMOOTH",
"806 597 OFFCURVE",
"815 581 OFFCURVE",
"810 559 CURVE SMOOTH",
"725 181 LINE",
"707 181 LINE",
"628 713 LINE",
"412 690 LINE",
"394 666 LINE",
"436 459 LINE",
"371 181 LINE",
"351 181 LINE",
"290 564 LINE SMOOTH",
"286 587 OFFCURVE",
"295 601 OFFCURVE",
"317 606 CURVE SMOOTH",
"349 614 LINE",
"349 708 LINE",
"153 706 LINE",
"17 708 LINE",
"17 614 LINE"
);
}
);
width = 1017;
}
);
unicode = 0057;
},
{
color = 1;
glyphname = X;
lastChange = "2018-03-25 17:51:51 +0000";
layers = (
{
background = {
components = (
{
name = I;
transform = "{1, 0, 0, 1, 16, 0}";
}
);
};
layerId = "1B5E7594-BD1E-41E1-80E1-0DE241437139";
paths = (
{
closed = 1;
nodes = (
"388 331 LINE",
"578 622 LINE SMOOTH",
"596 650 OFFCURVE",
"610 660 OFFCURVE",
"633 664 CURVE SMOOTH",
"672 671 LINE",
"672 704 LINE",
"558 700 LINE",
"439 704 LINE",
"439 674 LINE",
"484 668 LINE SMOOTH",
"519 663 OFFCURVE",
"533 650 OFFCURVE",
"505 604 CURVE SMOOTH",
"360 360 LINE"
);
},
{
closed = 1;
nodes = (
"95 662 LINE SMOOTH",
"123 660 OFFCURVE",
"139 651 OFFCURVE",
"152 629 CURVE SMOOTH",
"324 350 LINE",
"342 330 LINE",
"482 81 LINE SMOOTH",
"496 56 OFFCURVE",
"487 35 OFFCURVE",
"458 30 CURVE SMOOTH",
"434 26 LINE",
"434 -4 LINE",
"551 0 LINE",
"677 -4 LINE",
"677 30 LINE",
"617 35 LINE SMOOTH",
"597 37 OFFCURVE",
"584 48 OFFCURVE",
"573 66 CURVE SMOOTH",
"397 360 LINE",
"384 376 LINE",
"249 611 LINE SMOOTH",
"230 643 OFFCURVE",
"230 659 OFFCURVE",
"267 666 CURVE SMOOTH",
"306 673 LINE",
"306 704 LINE",
"173 700 LINE",
"58 704 LINE",
"58 665 LINE"
);
},
{
closed = 1;
nodes = (
"339 379 LINE",
"151 78 LINE SMOOTH",
"136 55 OFFCURVE",
"120 43 OFFCURVE",
"105 40 CURVE SMOOTH",
"38 27 LINE",
"38 -4 LINE",
"155 0 LINE",
"288 -4 LINE",
"288 28 LINE",
"239 38 LINE SMOOTH",
"211 44 OFFCURVE",
"208 65 OFFCURVE",
"222 90 CURVE SMOOTH",
"367 350 LINE"
);
}
);
width = 716;
},
{
background = {
components = (
{
name = H;
transform = "{1, 0, 0, 1, 10, 0}";
}
);
};
layerId = "5A1ECF60-5C3D-4C60-84B4-C69E600E0422";
paths = (
{
closed = 1;
nodes = (
"448 285 LINE",
"658 572 LINE SMOOTH",
"668 586 OFFCURVE",
"687 599 OFFCURVE",
"705 604 CURVE SMOOTH",
"736 613 LINE",
"736 710 LINE",
"595 706 LINE",
"453 710 LINE",
"453 615 LINE",
"479 610 LINE SMOOTH",
"503 605 OFFCURVE",
"513 582 OFFCURVE",
"500 561 CURVE SMOOTH",
"353 334 LINE"
);
},
{
closed = 1;
nodes = (
"55 611 LINE SMOOTH",
"85 607 OFFCURVE",
"107 587 OFFCURVE",
"121 565 CURVE SMOOTH",
"304 274 LINE",
"335 283 LINE",
"423 137 LINE SMOOTH",
"436 115 OFFCURVE",
"429 96 OFFCURVE",
"405 91 CURVE SMOOTH",
"377 85 LINE",
"377 -3 LINE",
"568 0 LINE",
"743 -3 LINE",
"743 85 LINE",
"716 90 LINE SMOOTH",
"686 96 OFFCURVE",
"666 114 OFFCURVE",
"652 137 CURVE SMOOTH",
"479 408 LINE",
"436 427 LINE",
"358 564 LINE SMOOTH",
"346 586 OFFCURVE",
"352 605 OFFCURVE",
"377 610 CURVE SMOOTH",
"409 616 LINE",
"409 710 LINE",
"213 706 LINE",
"33 710 LINE",
"33 614 LINE"
);
},
{
closed = 1;
nodes = (
"327 451 LINE",
"112 125 LINE SMOOTH",
"103 111 OFFCURVE",
"90 103 OFFCURVE",
"74 99 CURVE SMOOTH",
"23 85 LINE",
"23 -3 LINE",
"160 0 LINE",
"335 -3 LINE",
"335 85 LINE",
"296 94 LINE SMOOTH",
"272 100 OFFCURVE",
"265 117 OFFCURVE",
"279 140 CURVE SMOOTH",
"402 342 LINE"
);
}
);
width = 762;
}
);
unicode = 0058;
},
{
color = 1;
glyphname = Y;
lastChange = "2018-03-25 18:22:45 +0000";
layers = (
{
background = {
components = (
{
name = I;
transform = "{1, 0, 0, 1, 158, 0}";
}
);
};
layerId = "1B5E7594-BD1E-41E1-80E1-0DE241437139";
paths = (
{
closed = 1;
nodes = (
"64 664 LINE SMOOTH",
"85 663 OFFCURVE",
"97 650 OFFCURVE",
"106 631 CURVE SMOOTH",
"283 242 LINE",
"283 80 LINE SMOOTH",
"283 52 OFFCURVE",
"270 41 OFFCURVE",
"246 37 CURVE SMOOTH",
"185 27 LINE",
"185 -4 LINE",
"315 0 LINE",
"453 -4 LINE",
"453 27 LINE",
"387 37 LINE SMOOTH",
"363 41 OFFCURVE",
"350 51 OFFCURVE",
"350 79 CURVE SMOOTH",
"350 253 LINE",
"524 623 LINE SMOOTH",
"534 644 OFFCURVE",
"544 656 OFFCURVE",
"566 661 CURVE SMOOTH",
"608 670 LINE",
"608 704 LINE",
"500 700 LINE",
"373 703 LINE",
"373 669 LINE",
"437 662 LINE SMOOTH",
"469 659 OFFCURVE",
"474 641 OFFCURVE",
"463 616 CURVE SMOOTH",
"330 310 LINE",
"195 618 LINE SMOOTH",
"184 644 OFFCURVE",
"193 665 OFFCURVE",
"221 667 CURVE SMOOTH",
"272 670 LINE",
"272 703 LINE",
"131 700 LINE",
"34 703 LINE",
"34 666 LINE"
);
}
);
width = 641;
},
{
background = {
components = (
{
name = H;
transform = "{1, 0, 0, 1, -40, 0}";
}
);
};
layerId = "5A1ECF60-5C3D-4C60-84B4-C69E600E0422";
paths = (
{
closed = 1;
nodes = (
"31 610 LINE SMOOTH",
"49 606 OFFCURVE",
"57 595 OFFCURVE",
"64 579 CURVE SMOOTH",
"211 260 LINE",
"211 150 LINE SMOOTH",
"211 124 OFFCURVE",
"203 104 OFFCURVE",
"176 99 CURVE SMOOTH",
"124 90 LINE",
"124 -3 LINE",
"312 0 LINE",
"501 -3 LINE",
"501 90 LINE",
"456 96 LINE SMOOTH",
"430 99 OFFCURVE",
"422 122 OFFCURVE",
"422 148 CURVE SMOOTH",
"422 263 LINE",
"572 567 LINE SMOOTH",
"582 588 OFFCURVE",
"589 602 OFFCURVE",
"610 608 CURVE SMOOTH",
"632 614 LINE",
"632 710 LINE",
"508 706 LINE",
"375 710 LINE",
"375 616 LINE",
"413 607 LINE SMOOTH",
"436 602 OFFCURVE",
"440 583 OFFCURVE",
"430 561 CURVE SMOOTH",
"353 388 LINE",
"285 565 LINE SMOOTH",
"276 589 OFFCURVE",
"285 606 OFFCURVE",
"308 610 CURVE SMOOTH",
"339 616 LINE",
"339 710 LINE",
"160 706 LINE",
"11 710 LINE",
"11 614 LINE"
);
}
);
width = 622;
},
{
associatedMasterId = "1B5E7594-BD1E-41E1-80E1-0DE241437139";
background = {
components = (
{
name = I;
transform = "{1, 0, 0, 1, 158, 0}";
}
);
};
layerId = "D0DCB068-EADD-442C-A995-67A1BBE596E9";
name = "Mar 25 18, 19:22";
paths = (
{
closed = 1;
nodes = (
"64 664 LINE SMOOTH",
"85 663 OFFCURVE",
"97 650 OFFCURVE",
"106 631 CURVE SMOOTH",
"282 242 LINE",
"282 80 LINE SMOOTH",
"282 52 OFFCURVE",
"269 41 OFFCURVE",
"245 37 CURVE SMOOTH",
"184 27 LINE",
"184 -4 LINE",
"315 0 LINE",
"453 -4 LINE",
"453 27 LINE",
"387 37 LINE SMOOTH",
"363 41 OFFCURVE",
"350 51 OFFCURVE",
"350 79 CURVE SMOOTH",
"350 253 LINE",
"524 623 LINE SMOOTH",
"534 644 OFFCURVE",
"544 656 OFFCURVE",
"566 661 CURVE SMOOTH",
"608 670 LINE",
"608 704 LINE",
"500 700 LINE",
"373 703 LINE",
"373 669 LINE",
"437 662 LINE SMOOTH",
"469 659 OFFCURVE",
"474 641 OFFCURVE",
"463 616 CURVE SMOOTH",
"330 310 LINE",
"195 618 LINE SMOOTH",
"184 644 OFFCURVE",
"193 665 OFFCURVE",
"221 667 CURVE SMOOTH",
"272 670 LINE",
"272 703 LINE",
"131 700 LINE",
"34 703 LINE",
"34 666 LINE"
);
}
);
width = 641;
}
);
unicode = 0059;
},
{
color = 1;
glyphname = Z;
lastChange = "2018-03-27 17:34:18 +0000";
layers = (
{
layerId = "1B5E7594-BD1E-41E1-80E1-0DE241437139";
paths = (
{
closed = 1;
nodes = (
"524 -1 LINE",
"542 24 LINE",
"518 160 LINE",
"479 160 LINE",
"483 80 OFFCURVE",
"473 63 OFFCURVE",
"427 63 CURVE SMOOTH",
"129 60 LINE",
"190 140 LINE",
"538 671 LINE",
"524 696 LINE",
"79 701 LINE",
"62 683 LINE",
"83 543 LINE",
"123 543 LINE",
"119 618 OFFCURVE",
"128 633 OFFCURVE",
"171 634 CURVE SMOOTH",
"462 640 LINE",
"405 564 LINE",
"47 28 LINE",
"58 6 LINE"
);
}
);
width = 592;
},
{
layerId = "5A1ECF60-5C3D-4C60-84B4-C69E600E0422";
paths = (
{
closed = 1;
nodes = (
"577 -6 LINE",
"597 26 LINE",
"562 270 LINE",
"446 271 LINE",
"456 138 OFFCURVE",
"420 108 OFFCURVE",
"374 107 CURVE SMOOTH",
"253 104 LINE",
"310 170 LINE",
"607 628 LINE",
"572 706 LINE",
"57 708 LINE",
"40 689 LINE",
"64 428 LINE",
"181 428 LINE",
"181 566 OFFCURVE",
"209 589 OFFCURVE",
"268 590 CURVE SMOOTH",
"367 592 LINE",
"312 530 LINE",
"14 82 LINE",
"47 -1 LINE"
);
}
);
width = 605;
},
{
associatedMasterId = "5A1ECF60-5C3D-4C60-84B4-C69E600E0422";
layerId = "5F64F3AD-E501-49C7-8CCB-DD13AA979A1E";
name = "Mar 25 18, 13:25";
paths = (
{
closed = 1;
nodes = (
"507 -6 LINE",
"527 26 LINE",
"492 270 LINE",
"372 271 LINE",
"378 192 OFFCURVE",
"356 169 OFFCURVE",
"310 167 CURVE SMOOTH",
"191 161 LINE",
"239 215 LINE",
"539 609 LINE",
"520 695 LINE",
"29 697 LINE",
"12 678 LINE",
"38 416 LINE",
"161 416 LINE",
"161 470 OFFCURVE",
"171 508 OFFCURVE",
"230 509 CURVE SMOOTH",
"327 511 LINE",
"268 442 LINE",
"-10 69 LINE",
"8 -4 LINE"
);
}
);
width = 539;
}
);
unicode = 005A;
},
{
color = 1;
glyphname = a;
lastChange = "2018-03-27 18:38:45 +0000";
layers = (
{
background = {
components = (
{
name = n;
transform = "{-1, 0, 0, -1, 548, 483}";
}
);
};
guideLines = (
{
position = "{598, 519}";
},
{
position = "{-573, 515}";
}
);
layerId = "5A1ECF60-5C3D-4C60-84B4-C69E600E0422";
paths = (
{
closed = 1;
nodes = (
"369 237 LINE",
"257 214 LINE SMOOTH",
"188 200 OFFCURVE",
"185 123 OFFCURVE",
"227 115 CURVE SMOOTH",
"275 106 OFFCURVE",
"313 145 OFFCURVE",
"347 185 CURVE",
"340 137 LINE",
"327 107 OFFCURVE",
"272 -16 OFFCURVE",
"165 -16 CURVE SMOOTH",
"76 -16 OFFCURVE",
"3 30 OFFCURVE",
"5 131 CURVE SMOOTH",
"7 233 OFFCURVE",
"55 270 OFFCURVE",
"196 288 CURVE SMOOTH",
"356 309 LINE"
);
},
{
closed = 1;
nodes = (
"53 487 LINE",
"140 505 OFFCURVE",
"198 519 OFFCURVE",
"296 519 CURVE SMOOTH",
"428 519 OFFCURVE",
"487 463 OFFCURVE",
"477 337 CURVE SMOOTH",
"463 156 LINE SMOOTH",
"461 132 OFFCURVE",
"475 121 OFFCURVE",
"499 126 CURVE SMOOTH",
"537 134 LINE",
"552 113 LINE",
"507 0 LINE",
"326 -46 OFFCURVE",
"271 39 OFFCURVE",
"272 111 CURVE SMOOTH",
"274 261 LINE SMOOTH",
"275 316 OFFCURVE",
"279 361 OFFCURVE",
"256 372 CURVE SMOOTH",
"233 383 OFFCURVE",
"194 380 OFFCURVE",
"108 335 CURVE",
"77 355 LINE"
);
}
);
width = 552;
},
{
associatedMasterId = "5A1ECF60-5C3D-4C60-84B4-C69E600E0422";
background = {
components = (
{
name = C;
transform = "{-1, 0, 0, 1, 670, -185}";
}
);
};
guideLines = (
{
position = "{-565, 515}";
}
);
layerId = "7455D31B-4E07-4A2C-A370-FEBBE5195640";
name = "Mar 22 18, 20:23";
paths = (
{
closed = 1;
nodes = (
"401 237 LINE",
"278 212 LINE SMOOTH",
"209 198 OFFCURVE",
"206 122 OFFCURVE",
"248 112 CURVE SMOOTH",
"302 99 OFFCURVE",
"345 144 OFFCURVE",
"379 184 CURVE",
"372 137 LINE",
"359 107 OFFCURVE",
"304 -16 OFFCURVE",
"173 -16 CURVE SMOOTH",
"84 -16 OFFCURVE",
"11 30 OFFCURVE",
"13 131 CURVE SMOOTH",
"15 233 OFFCURVE",
"87 270 OFFCURVE",
"228 288 CURVE SMOOTH",
"388 309 LINE"
);
},
{
closed = 1;
nodes = (
"68 495 LINE",
"145 511 OFFCURVE",
"228 518 OFFCURVE",
"293 517 CURVE SMOOTH",
"446 515 OFFCURVE",
"521 464 OFFCURVE",
"511 337 CURVE SMOOTH",
"497 156 LINE SMOOTH",
"495 132 OFFCURVE",
"509 121 OFFCURVE",
"533 126 CURVE SMOOTH",
"571 134 LINE",
"586 113 LINE",
"541 0 LINE",
"360 -46 OFFCURVE",
"309 39 OFFCURVE",
"310 111 CURVE SMOOTH",
"312 271 LINE SMOOTH",
"313 365 OFFCURVE",
"320 419 OFFCURVE",
"257 416 CURVE SMOOTH",
"215 414 OFFCURVE",
"199 391 OFFCURVE",
"205 312 CURVE",
"84 309 LINE",
"48 466 LINE"
);
}
);
width = 580;
},
{
associatedMasterId = "1B5E7594-BD1E-41E1-80E1-0DE241437139";
background = {
components = (
{
name = u;
transform = "{1, 0, 0, 1, -55, 0}";
}
);
};
guideLines = (
{
position = "{990, 64}";
},
{
position = "{-371, 473}";
},
{
position = "{795, 512}";
}
);
layerId = "CE8F28F7-1AFC-4F16-8197-1ACB1498A43D";
name = "Mar 22 18, 20:28";
paths = (
{
closed = 1;
nodes = (
"330 266 LINE",
"192 246 LINE SMOOTH",
"45 225 OFFCURVE",
"19 44 OFFCURVE",
"160 44 CURVE SMOOTH",
"227 44 OFFCURVE",
"312 84 OFFCURVE",
"358 149 CURVE",
"332 86 LINE",
"314 56 OFFCURVE",
"255 -12 OFFCURVE",
"143 -12 CURVE SMOOTH",
"57 -12 OFFCURVE",
"-8 40 OFFCURVE",
"-4 132 CURVE SMOOTH",
"0 232 OFFCURVE",
"77 269 OFFCURVE",
"197 287 CURVE SMOOTH",
"329 307 LINE"
);
},
{
closed = 1;
nodes = (
"44 493 LINE",
"107 507 OFFCURVE",
"164 513 OFFCURVE",
"212 513 CURVE SMOOTH",
"325 513 OFFCURVE",
"384 466 OFFCURVE",
"380 334 CURVE SMOOTH",
"373 94 LINE SMOOTH",
"372 66 OFFCURVE",
"380 47 OFFCURVE",
"415 54 CURVE SMOOTH",
"462 63 LINE",
"467 53 LINE",
"448 0 LINE",
"333 -31 OFFCURVE",
"310 49 OFFCURVE",
"311 118 CURVE SMOOTH",
"314 331 LINE SMOOTH",
"315 437 OFFCURVE",
"288 478 OFFCURVE",
"158 467 CURVE SMOOTH",
"112 463 OFFCURVE",
"93 433 OFFCURVE",
"99 359 CURVE",
"55 359 LINE",
"37 481 LINE"
);
}
);
width = 491;
},
{
associatedMasterId = "5A1ECF60-5C3D-4C60-84B4-C69E600E0422";
background = {
components = (
{
name = f;
transform = "{-1, 0, 0, 1, 443, -287}";
}
);
};
guideLines = (
{
position = "{-565, 515}";
}
);
layerId = "3FDE65EB-A1EB-4444-9CEA-F418D48CA85E";
name = "Mar 22 18, 21:11";
paths = (
{
closed = 1;
nodes = (
"401 237 LINE",
"278 212 LINE SMOOTH",
"209 198 OFFCURVE",
"206 123 OFFCURVE",
"248 113 CURVE SMOOTH",
"302 100 OFFCURVE",
"345 145 OFFCURVE",
"379 185 CURVE",
"372 137 LINE",
"359 107 OFFCURVE",
"304 -16 OFFCURVE",
"173 -16 CURVE SMOOTH",
"84 -16 OFFCURVE",
"11 30 OFFCURVE",
"13 131 CURVE SMOOTH",
"15 233 OFFCURVE",
"87 270 OFFCURVE",
"228 288 CURVE SMOOTH",
"388 309 LINE"
);
},
{
closed = 1;
nodes = (
"60 488 LINE",
"137 504 OFFCURVE",
"228 518 OFFCURVE",
"293 517 CURVE SMOOTH",
"446 515 OFFCURVE",
"521 464 OFFCURVE",
"511 337 CURVE SMOOTH",
"497 156 LINE SMOOTH",
"495 132 OFFCURVE",
"509 121 OFFCURVE",
"533 126 CURVE SMOOTH",
"571 134 LINE",
"586 113 LINE",
"541 0 LINE",
"360 -46 OFFCURVE",
"309 39 OFFCURVE",
"310 111 CURVE SMOOTH",
"312 261 LINE SMOOTH",
"313 322 OFFCURVE",
"314 382 OFFCURVE",
"269 386 CURVE SMOOTH",
"228 390 OFFCURVE",
"171 363 OFFCURVE",
"111 332 CURVE",
"77 360 LINE"
);
}
);
width = 580;
},
{
associatedMasterId = "1B5E7594-BD1E-41E1-80E1-0DE241437139";
background = {
components = (
{
name = n;
transform = "{1, 0, 0, 1, -103, 0}";
}
);
};
guideLines = (
{
position = "{990, 64}";
},
{
position = "{-371, 473}";
},
{
position = "{795, 507}";
}
);
layerId = "6C5896DE-DC0D-4E06-82A0-098F36DF47E8";
name = "Mar 25 18, 14:03";
paths = (
{
closed = 1;
nodes = (
"337 255 LINE",
"172 218 LINE SMOOTH",
"54 191 OFFCURVE",
"60 44 OFFCURVE",
"161 44 CURVE SMOOTH",
"221 44 OFFCURVE",
"289 80 OFFCURVE",
"335 106 CURVE",
"332 74 LINE",
"314 57 OFFCURVE",
"247 -9 OFFCURVE",
"149 -9 CURVE SMOOTH",
"66 -9 OFFCURVE",
"20 33 OFFCURVE",
"20 122 CURVE SMOOTH",
"20 222 OFFCURVE",
"119 252 OFFCURVE",
"239 275 CURVE SMOOTH",
"336 294 LINE"
);
},
{
closed = 1;
nodes = (
"129 503 OFFCURVE",
"169 508 OFFCURVE",
"235 508 CURVE SMOOTH",
"345 508 OFFCURVE",
"387 457 OFFCURVE",
"383 334 CURVE SMOOTH",
"375 94 LINE SMOOTH",
"374 66 OFFCURVE",
"379 47 OFFCURVE",
"414 54 CURVE SMOOTH",
"461 63 LINE",
"466 53 LINE",
"447 0 LINE",
"332 -31 OFFCURVE",
"313 39 OFFCURVE",
"314 108 CURVE SMOOTH",
"317 365 LINE SMOOTH",
"317 438 OFFCURVE",
"272 468 OFFCURVE",
"207 468 CURVE SMOOTH",
"148 468 OFFCURVE",
"120 447 OFFCURVE",
"125 387 CURVE SMOOTH",
"127 362 LINE",
"81 362 LINE",
"69 477 LINE",
"76 489 LINE"
);
}
);
width = 499;
},
{
background = {
components = (
{
name = n;
transform = "{-1, 0, 0, -1, 493, 500}";
}
);
};
guideLines = (
{
position = "{985, 64}";
},
{
position = "{-376, 473}";
},
{
position = "{790, 507}";
}
);
layerId = "1B5E7594-BD1E-41E1-80E1-0DE241437139";
paths = (
{
closed = 1;
nodes = (
"344 276 LINE",
"177 228 LINE SMOOTH",
"70 197 OFFCURVE",
"79 44 OFFCURVE",
"167 44 CURVE SMOOTH",
"234 44 OFFCURVE",
"299 83 OFFCURVE",
"345 113 CURVE",
"342 81 LINE",
"324 64 OFFCURVE",
"254 -9 OFFCURVE",
"159 -9 CURVE SMOOTH",
"76 -9 OFFCURVE",
"30 33 OFFCURVE",
"30 122 CURVE SMOOTH",
"30 222 OFFCURVE",
"126 262 OFFCURVE",
"255 295 CURVE SMOOTH",
"352 320 LINE"
);
},
{
closed = 1;
nodes = (
"63 482 LINE",
"124 496 OFFCURVE",
"181 505 OFFCURVE",
"233 505 CURVE SMOOTH",
"325 505 OFFCURVE",
"386 467 OFFCURVE",
"382 342 CURVE SMOOTH",
"374 94 LINE SMOOTH",
"373 66 OFFCURVE",
"371 32 OFFCURVE",
"406 46 CURVE SMOOTH",
"462 68 LINE",
"472 47 LINE",
"447 3 LINE",
"336 -37 OFFCURVE",
"313 39 OFFCURVE",
"313 108 CURVE SMOOTH",
"314 365 LINE SMOOTH",
"314 398 OFFCURVE",
"300 435 OFFCURVE",
"277 448 CURVE SMOOTH",
"240 469 OFFCURVE",
"179 458 OFFCURVE",
"86 417 CURVE",
"74 422 LINE"
);
}
);
width = 476;
}
);
unicode = 0061;
},
{
color = 1;
glyphname = b;
lastChange = "2018-03-25 18:24:33 +0000";
layers = (
{
background = {
components = (
{
name = n;
transform = "{1, 0, 0, 1, -52, 0}";
}
);
};
components = (
{
name = _part_bowl;
transform = "{1, 0, 0, 1, -26, 0}";
}
);
layerId = "1B5E7594-BD1E-41E1-80E1-0DE241437139";
paths = (
{
closed = 1;
nodes = (
"126 95 LINE SMOOTH",
"126 65 OFFCURVE",
"93 11 OFFCURVE",
"53 -7 CURVE",
"21 8 LINE",
"21 18 LINE",
"59 58 OFFCURVE",
"64 84 OFFCURVE",
"64 157 CURVE SMOOTH",
"65 697 LINE SMOOTH",
"65 716 OFFCURVE",
"52 735 OFFCURVE",
"30 737 CURVE SMOOTH",
"-17 742 LINE",
"-17 775 LINE",
"32 780 OFFCURVE",
"79 787 OFFCURVE",
"124 796 CURVE",
"133 790 LINE"
);
}
);
width = 520;
},
{
background = {
components = (
{
name = l;
transform = "{1, 0, 0, 1, -3, 0}";
}
);
};
components = (
{
name = _part_bowl;
transform = "{1, 0, 0, 1, 18, 0}";
}
);
guideLines = (
{
position = "{863, 512}";
},
{
position = "{597, 519}";
}
);
layerId = "5A1ECF60-5C3D-4C60-84B4-C69E600E0422";
paths = (
{
closed = 1;
nodes = (
"255 132 LINE SMOOTH",
"255 68 OFFCURVE",
"171 -11 OFFCURVE",
"109 -19 CURVE",
"29 23 LINE",
"29 49 LINE",
"61 101 OFFCURVE",
"64 125 OFFCURVE",
"64 209 CURVE SMOOTH",
"65 648 LINE SMOOTH",
"65 674 OFFCURVE",
"53 692 OFFCURVE",
"30 694 CURVE SMOOTH",
"3 696 LINE",
"3 785 LINE",
"79 789 OFFCURVE",
"162 798 OFFCURVE",
"242 813 CURVE",
"260 797 LINE"
);
}
);
width = 604;
},
{
associatedMasterId = "5A1ECF60-5C3D-4C60-84B4-C69E600E0422";
background = {
components = (
{
name = l;
transform = "{1, 0, 0, 1, -7, 0}";
}
);
};
components = (
{
name = _part_bowl;
piece = {
"d,q" = 1;
};
transform = "{1, 0, 0, 1, 19, 0}";
}
);
guideLines = (
{
position = "{868, 512}";
}
);
layerId = "5D8F6F35-3986-4236-B2A1-A726FE419699";
name = "Jan 1 18, 16:26";
paths = (
{
closed = 1;
nodes = (
"261 85 LINE",
"234 75 LINE",
"200 0 LINE",
"63 0 LINE",
"64 648 LINE SMOOTH",
"64 674 OFFCURVE",
"51 692 OFFCURVE",
"24 694 CURVE SMOOTH",
"2 696 LINE",
"2 785 LINE",
"78 789 OFFCURVE",
"163 798 OFFCURVE",
"243 813 CURVE",
"261 797 LINE"
);
}
);
width = 585;
},
{
associatedMasterId = "1B5E7594-BD1E-41E1-80E1-0DE241437139";
background = {
components = (
{
name = l;
}
);
};
components = (
{
name = _part_bowl;
transform = "{1, 0, 0, 1, 14, 0}";
}
);
layerId = "751249E1-7FE0-4C21-85AF-C18A5640878A";
name = "Jan 1 18, 16:43";
paths = (
{
closed = 1;
nodes = (
"168 74 LINE",
"162 50 LINE",
"149 0 LINE",
"108 0 LINE",
"107 697 LINE SMOOTH",
"107 716 OFFCURVE",
"94 735 OFFCURVE",
"72 737 CURVE SMOOTH",
"25 742 LINE",
"25 775 LINE",
"74 780 OFFCURVE",
"121 787 OFFCURVE",
"166 796 CURVE",
"175 790 LINE"
);
}
);
width = 607;
},
{
associatedMasterId = "1B5E7594-BD1E-41E1-80E1-0DE241437139";
background = {
components = (
{
name = q;
transform = "{-1, 0, 0, -1, 526, 499}";
}
);
};
components = (
{
name = _part_bowl;
transform = "{1, 0, 0, 1, -26, 0}";
}
);
layerId = "A67B59ED-202F-49C8-BDE8-21B7EE513E16";
name = "Mar 25 18, 14:58";
paths = (
{
closed = 1;
nodes = (
"126 95 LINE SMOOTH",
"126 65 OFFCURVE",
"103 23 OFFCURVE",
"73 -7 CURVE",
"41 8 LINE",
"41 18 LINE",
"59 60 OFFCURVE",
"64 90 OFFCURVE",
"64 137 CURVE SMOOTH",
"65 697 LINE SMOOTH",
"65 716 OFFCURVE",
"52 735 OFFCURVE",
"30 737 CURVE SMOOTH",
"-17 742 LINE",
"-17 775 LINE",
"32 780 OFFCURVE",
"79 787 OFFCURVE",
"124 796 CURVE",
"133 790 LINE"
);
}
);
width = 567;
}
);
rightMetricsKey = o;
unicode = 0062;
},
{
color = 1;
glyphname = c;
lastChange = "2018-03-25 18:34:03 +0000";
layers = (
{
background = {
components = (
{
name = e;
}
);
};
guideLines = (
{
position = "{-423, -12}";
},
{
position = "{-84, 104}";
},
{
angle = 90;
position = "{405, 376}";
}
);
layerId = "1B5E7594-BD1E-41E1-80E1-0DE241437139";
paths = (
{
closed = 1;
nodes = (
"30 82 OFFCURVE",
"132 -12 OFFCURVE",
"255 -12 CURVE SMOOTH",
"305 -12 OFFCURVE",
"360 4 OFFCURVE",
"412 39 CURVE",
"405 71 LINE",
"391 76 LINE",
"226 3 OFFCURVE",
"101 65 OFFCURVE",
"101 250 CURVE SMOOTH",
"101 355 OFFCURVE",
"157 462 OFFCURVE",
"261 463 CURVE SMOOTH",
"331 464 OFFCURVE",
"355 453 OFFCURVE",
"346 362 CURVE",
"392 362 LINE",
"408 493 LINE",
"365 504 OFFCURVE",
"325 510 OFFCURVE",
"287 510 CURVE SMOOTH",
"134 510 OFFCURVE",
"30 417 OFFCURVE",
"30 230 CURVE SMOOTH"
);
}
);
width = 452;
},
{
associatedMasterId = "5A1ECF60-5C3D-4C60-84B4-C69E600E0422";
background = {
components = (
{
name = f;
transform = "{1, 0, 0, 1, 86, -292}";
}
);
};
guideLines = (
{
angle = 71;
position = "{489, 195}";
}
);
layerId = "D2923922-0CE0-4161-8498-9E8833351EE1";
name = "Mar 24 18, 09:10";
paths = (
{
closed = 1;
nodes = (
"16 72 OFFCURVE",
"126 -16 OFFCURVE",
"265 -16 CURVE SMOOTH",
"316 -16 OFFCURVE",
"371 -4 OFFCURVE",
"427 21 CURVE",
"470 146 LINE",
"450 171 LINE",
"302 117 OFFCURVE",
"215 150 OFFCURVE",
"215 274 CURVE SMOOTH",
"215 375 OFFCURVE",
"328 407 OFFCURVE",
"450 325 CURVE",
"470 358 LINE",
"429 498 LINE",
"398 512 OFFCURVE",
"365 514 OFFCURVE",
"307 514 CURVE SMOOTH",
"138 514 OFFCURVE",
"13 413 OFFCURVE",
"15 234 CURVE SMOOTH"
);
}
);
width = 497;
},
{
associatedMasterId = "5A1ECF60-5C3D-4C60-84B4-C69E600E0422";
background = {
components = (
{
name = a;
transform = "{1, 0, 0, 1, -71, 0}";
}
);
};
guideLines = (
{
angle = 90;
position = "{485, 233}";
},
{
angle = 104;
position = "{309, 737}";
}
);
layerId = "44D4AAF8-6F01-49FE-B371-198FF1005D8F";
name = "Mar 25 18, 15:57";
paths = (
{
closed = 1;
nodes = (
"30 80 OFFCURVE",
"111 -14 OFFCURVE",
"273 -14 CURVE SMOOTH",
"362 -14 OFFCURVE",
"388 -11 OFFCURVE",
"427 0 CURVE",
"476 114 LINE",
"455 125 LINE",
"319 71 OFFCURVE",
"234 118 OFFCURVE",
"238 264 CURVE SMOOTH",
"241 355 OFFCURVE",
"259 393 OFFCURVE",
"291 393 CURVE SMOOTH",
"324 393 OFFCURVE",
"345 380 OFFCURVE",
"328 279 CURVE",
"445 279 LINE",
"491 488 LINE",
"450 508 OFFCURVE",
"367 517 OFFCURVE",
"309 517 CURVE SMOOTH",
"143 517 OFFCURVE",
"30 429 OFFCURVE",
"30 250 CURVE SMOOTH"
);
}
);
width = 508;
},
{
background = {
components = (
{
name = e;
transform = "{1, 0, 0, 1, -4, 0}";
}
);
};
guideLines = (
{
angle = 90;
position = "{485, 233}";
},
{
angle = 104;
position = "{309, 737}";
},
{
position = "{697, -15}";
}
);
layerId = "5A1ECF60-5C3D-4C60-84B4-C69E600E0422";
paths = (
{
closed = 1;
nodes = (
"30 80 OFFCURVE",
"111 -15 OFFCURVE",
"273 -15 CURVE SMOOTH",
"362 -15 OFFCURVE",
"442 21 OFFCURVE",
"485 64 CURVE",
"463 144 LINE",
"442 155 LINE",
"306 101 OFFCURVE",
"234 108 OFFCURVE",
"238 264 CURVE SMOOTH",
"240 355 OFFCURVE",
"259 393 OFFCURVE",
"291 393 CURVE SMOOTH",
"324 393 OFFCURVE",
"345 380 OFFCURVE",
"328 279 CURVE",
"445 279 LINE",
"491 488 LINE",
"450 508 OFFCURVE",
"367 517 OFFCURVE",
"309 517 CURVE SMOOTH",
"143 517 OFFCURVE",
"30 429 OFFCURVE",
"30 250 CURVE SMOOTH"
);
}
);
width = 508;
}
);
leftMetricsKey = o;
unicode = 0063;
},
{
color = 1;
glyphname = d;
lastChange = "2018-03-27 19:03:32 +0000";
layers = (
{
background = {
components = (
{
name = o;
transform = "{1, 0, 0, 1, 43, 0}";
}
);
};
components = (
{
name = _part.stem_asc;
piece = {
"foot?" = 2;
};
transform = "{1, 0, 0, 1, 336, 0}";
},
{
name = _part_bowl;
transform = "{-1, 0, 0, -1, 605, 499}";
}
);
layerId = "1B5E7594-BD1E-41E1-80E1-0DE241437139";
width = 580;
},
{
background = {
components = (
{
name = n;
transform = "{1, 0, 0, 1, -34, 0}";
}
);
};
components = (
{
name = _part.stem_asc;
piece = {
"foot?" = 2;
};
transform = "{1, 0, 0, 1, 285, 0}";
},
{
name = _part_bowl;
piece = {
"d,q" = 1;
};
transform = "{-1, 0, 0, -1, 570, 504}";
}
);
guideLines = (
{
position = "{1611, 513}";
},
{
position = "{588, 519}";
}
);
layerId = "5A1ECF60-5C3D-4C60-84B4-C69E600E0422";
width = 604;
},
{
associatedMasterId = "1B5E7594-BD1E-41E1-80E1-0DE241437139";
components = (
{
name = _part_bowl;
transform = "{-1, 0, 0, -1, 605, 499}";
}
);
layerId = "F2BBC9B2-CC43-4C61-BEC8-BF798A3BE463";
name = "Sep 24 17, 15:04";
paths = (
{
closed = 1;
nodes = (
"360 775 LINE",
"503 796 LINE",
"512 790 LINE",
"508 55 LINE",
"445 0 LINE",
"444 723 LINE",
"360 746 LINE"
);
},
{
closed = 1;
nodes = (
"597 15 LINE",
"454 -6 LINE",
"445 0 LINE",
"503 63 LINE",
"597 44 LINE"
);
}
);
width = 580;
},
{
associatedMasterId = "5A1ECF60-5C3D-4C60-84B4-C69E600E0422";
background = {
components = (
{
name = a;
transform = "{1, 0, 0, 1, 11, 0}";
}
);
};
components = (
{
name = _part_bowl;
piece = {
"d,q" = 1;
};
transform = "{-1, 0, 0, -1, 564, 503}";
}
);
guideLines = (
{
position = "{1596, 513}";
}
);
layerId = "CFCDB457-61D1-46E7-AB5D-2509F62BF86E";
name = "Sep 24 17, 15:06";
paths = (
{
closed = 1;
nodes = (
"260 783 LINE",
"496 811 LINE",
"521 789 LINE",
"522 136 LINE",
"317 116 LINE",
"318 687 LINE",
"260 700 LINE"
);
},
{
closed = 1;
nodes = (
"579 17 LINE",
"363 -11 LINE",
"338 11 LINE",
"322 164 LINE",
"521 203 LINE",
"521 113 LINE",
"579 100 LINE"
);
}
);
width = 594;
}
);
unicode = 0064;
},
{
color = 1;
glyphname = e;
lastChange = "2018-03-25 18:55:03 +0000";
layers = (
{
background = {
components = (
{
name = o;
transform = "{1, 0, 0, 1, -3, 0}";
}
);
};
guideLines = (
{
angle = 71;
position = "{477, 186}";
},
{
angle = 90;
position = "{430, 428}";
}
);
layerId = "1B5E7594-BD1E-41E1-80E1-0DE241437139";
paths = (
{
closed = 1;
nodes = (
"340 464 OFFCURVE",
"367 421 OFFCURVE",
"359 325 CURVE",
"82 324 LINE",
"75 282 LINE",
"423 284 LINE",
"451 454 OFFCURVE",
"387 510 OFFCURVE",
"259 510 CURVE SMOOTH",
"125 510 OFFCURVE",
"30 408 OFFCURVE",
"30 240 CURVE SMOOTH",
"30 73 OFFCURVE",
"131 -6 OFFCURVE",
"244 -12 CURVE SMOOTH",
"306 -14 OFFCURVE",
"371 5 OFFCURVE",
"426 45 CURVE",
"419 76 LINE",
"404 82 LINE",
"262 5 OFFCURVE",
"103 56 OFFCURVE",
"103 231 CURVE SMOOTH",
"103 353 OFFCURVE",
"147 464 OFFCURVE",
"255 464 CURVE SMOOTH"
);
}
);
width = 450;
},
{
background = {
components = (
{
name = o;
transform = "{1, 0, 0, 1, -5, 0}";
}
);
};
guideLines = (
{
position = "{697, -15}";
}
);
layerId = "5A1ECF60-5C3D-4C60-84B4-C69E600E0422";
paths = (
{
closed = 1;
nodes = (
"324 424 OFFCURVE",
"334 386 OFFCURVE",
"327 331 CURVE",
"130 330 LINE",
"124 249 LINE",
"497 250 LINE",
"536 446 OFFCURVE",
"474 527 OFFCURVE",
"290 522 CURVE SMOOTH",
"96 517 OFFCURVE",
"25 399 OFFCURVE",
"25 249 CURVE SMOOTH",
"25 87 OFFCURVE",
"113 -16 OFFCURVE",
"282 -16 CURVE SMOOTH",
"357 -16 OFFCURVE",
"443 2 OFFCURVE",
"505 65 CURVE",
"483 144 LINE",
"463 155 LINE",
"293 94 OFFCURVE",
"227 108 OFFCURVE",
"230 268 CURVE SMOOTH",
"232 374 OFFCURVE",
"248 424 OFFCURVE",
"286 424 CURVE SMOOTH"
);
}
);
width = 541;
}
);
unicode = 0065;
},
{
color = 1;
glyphname = f;
lastChange = "2018-03-27 18:03:19 +0000";
layers = (
{
background = {
components = (
{
name = n;
transform = "{1, 0, 0, 1, 196, 0}";
}
);
};
layerId = "5A1ECF60-5C3D-4C60-84B4-C69E600E0422";
paths = (
{
closed = 1;
nodes = (
"382 689 LINE",
"362 653 LINE",
"320 682 OFFCURVE",
"269 665 OFFCURVE",
"246 632 CURVE SMOOTH",
"221 596 OFFCURVE",
"220 537 OFFCURVE",
"247 496 CURVE",
"350 505 LINE",
"367 486 LINE",
"367 395 LINE",
"275 403 LINE",
"275 139 LINE SMOOTH",
"275 113 OFFCURVE",
"289 94 OFFCURVE",
"315 92 CURVE SMOOTH",
"363 88 LINE",
"363 -4 LINE",
"192 0 LINE",
"21 -4 LINE",
"21 88 LINE",
"43 91 LINE SMOOTH",
"69 95 OFFCURVE",
"81 108 OFFCURVE",
"81 134 CURVE SMOOTH",
"77 362 LINE SMOOTH",
"77 387 OFFCURVE",
"66 402 OFFCURVE",
"42 404 CURVE SMOOTH",
"20 406 LINE",
"20 495 LINE",
"73 500 LINE",
"54 681 OFFCURVE",
"99 805 OFFCURVE",
"254 808 CURVE SMOOTH",
"300 809 OFFCURVE",
"328 804 OFFCURVE",
"351 800 CURVE"
);
}
);
width = 380;
},
{
associatedMasterId = "5A1ECF60-5C3D-4C60-84B4-C69E600E0422";
background = {
components = (
{
name = g;
transform = "{1, 0, 0, 1, -193, 0}";
}
);
};
layerId = "0E1BE82B-3D3B-48AF-90F2-A908EEDD6498";
name = "Jan 1 18, 15:48";
paths = (
{
closed = 1;
nodes = (
"364 579 LINE",
"246 579 LINE",
"260 669 OFFCURVE",
"247 695 OFFCURVE",
"214 688 CURVE SMOOTH",
"178 680 OFFCURVE",
"191 565 OFFCURVE",
"242 492 CURVE",
"345 499 LINE",
"362 480 LINE",
"362 391 LINE",
"270 399 LINE",
"270 139 LINE SMOOTH",
"270 113 OFFCURVE",
"284 95 OFFCURVE",
"310 92 CURVE SMOOTH",
"351 88 LINE",
"351 -4 LINE",
"187 0 LINE",
"16 -4 LINE",
"16 88 LINE",
"38 91 LINE SMOOTH",
"64 95 OFFCURVE",
"77 108 OFFCURVE",
"76 134 CURVE SMOOTH",
"71 351 LINE SMOOTH",
"70 376 OFFCURVE",
"60 391 OFFCURVE",
"36 393 CURVE SMOOTH",
"15 395 LINE",
"15 493 LINE",
"68 498 LINE",
"47 704 OFFCURVE",
"83 807 OFFCURVE",
"267 807 CURVE SMOOTH",
"322 807 OFFCURVE",
"375 799 OFFCURVE",
"400 786 CURVE"
);
}
);
width = 375;
},
{
associatedMasterId = "1B5E7594-BD1E-41E1-80E1-0DE241437139";
background = {
components = (
{
name = n;
transform = "{1, 0, 0, 1, 109, 0}";
}
);
};
guideLines = (
{
position = "{-582, 482}";
},
{
angle = 90;
position = "{267, 67}";
}
);
layerId = "84ABA533-6C80-477B-9B67-1E61AD2B1146";
name = "Mar 22 18, 19:40";
paths = (
{
closed = 1;
nodes = (
"324 660 LINE",
"278 660 LINE",
"285 723 OFFCURVE",
"279 751 OFFCURVE",
"249 751 CURVE SMOOTH",
"203 751 OFFCURVE",
"171 696 OFFCURVE",
"171 561 CURVE SMOOTH",
"171 545 OFFCURVE",
"171 502 OFFCURVE",
"171 484 CURVE",
"277 493 LINE",
"284 487 LINE",
"283 432 LINE",
"169 443 LINE",
"168 76 LINE SMOOTH",
"168 50 OFFCURVE",
"181 36 OFFCURVE",
"206 34 CURVE SMOOTH",
"268 28 LINE",
"268 -4 LINE",
"136 0 LINE",
"29 -4 LINE",
"29 25 LINE",
"68 32 LINE SMOOTH",
"92 36 OFFCURVE",
"105 50 OFFCURVE",
"105 74 CURVE SMOOTH",
"105 403 LINE SMOOTH",
"105 429 OFFCURVE",
"98 444 OFFCURVE",
"68 447 CURVE SMOOTH",
"32 450 LINE",
"32 483 LINE",
"106 490 LINE",
"106 502 OFFCURVE",
"107 530 OFFCURVE",
"107 569 CURVE SMOOTH",
"107 701 OFFCURVE",
"154 801 OFFCURVE",
"272 801 CURVE SMOOTH",
"293 801 OFFCURVE",
"316 798 OFFCURVE",
"342 791 CURVE"
);
}
);
width = 311;
},
{
background = {
components = (
{
name = n;
transform = "{1, 0, 0, 1, -10, 0}";
}
);
};
guideLines = (
{
position = "{-586, 482}";
},
{
angle = 90;
position = "{263, 67}";
}
);
layerId = "1B5E7594-BD1E-41E1-80E1-0DE241437139";
paths = (
{
closed = 1;
nodes = (
"301 728 LINE",
"291 719 LINE",
"253 742 OFFCURVE",
"206 747 OFFCURVE",
"181 722 CURVE SMOOTH",
"154 695 OFFCURVE",
"156 624 OFFCURVE",
"167 479 CURVE",
"284 490 LINE",
"291 484 LINE",
"290 429 LINE",
"170 440 LINE",
"169 76 LINE SMOOTH",
"169 50 OFFCURVE",
"182 36 OFFCURVE",
"207 34 CURVE SMOOTH",
"277 28 LINE",
"277 -4 LINE",
"132 0 LINE",
"30 -4 LINE",
"30 29 LINE",
"64 33 LINE SMOOTH",
"88 36 OFFCURVE",
"101 51 OFFCURVE",
"101 75 CURVE SMOOTH",
"101 403 LINE SMOOTH",
"101 429 OFFCURVE",
"94 440 OFFCURVE",
"64 441 CURVE SMOOTH",
"31 442 LINE",
"31 475 LINE",
"102 482 LINE",
"102 603 OFFCURVE",
"98 706 OFFCURVE",
"141 757 CURVE SMOOTH",
"181 804 OFFCURVE",
"226 807 OFFCURVE",
"285 793 CURVE"
);
}
);
width = 307;
},
{
associatedMasterId = "5A1ECF60-5C3D-4C60-84B4-C69E600E0422";
background = {
components = (
{
name = g;
transform = "{1, 0, 0, 1, -188, 0}";
}
);
};
layerId = "A968F3EA-45E3-4D1D-A7F5-E50859CEBD03";
name = "Mar 22 18, 20:02";
paths = (
{
closed = 1;
nodes = (
"369 579 LINE",
"251 579 LINE",
"265 669 OFFCURVE",
"249 703 OFFCURVE",
"219 688 CURVE SMOOTH",
"183 670 OFFCURVE",
"216 565 OFFCURVE",
"247 492 CURVE",
"350 499 LINE",
"367 480 LINE",
"367 391 LINE",
"275 399 LINE",
"275 139 LINE SMOOTH",
"275 113 OFFCURVE",
"289 95 OFFCURVE",
"315 92 CURVE SMOOTH",
"356 88 LINE",
"356 -4 LINE",
"192 0 LINE",
"21 -4 LINE",
"21 88 LINE",
"43 91 LINE SMOOTH",
"69 95 OFFCURVE",
"82 108 OFFCURVE",
"81 134 CURVE SMOOTH",
"76 351 LINE SMOOTH",
"75 376 OFFCURVE",
"65 391 OFFCURVE",
"41 393 CURVE SMOOTH",
"20 395 LINE",
"20 493 LINE",
"73 498 LINE",
"52 704 OFFCURVE",
"88 807 OFFCURVE",
"252 807 CURVE SMOOTH",
"307 807 OFFCURVE",
"380 799 OFFCURVE",
"405 786 CURVE"
);
}
);
width = 380;
},
{
associatedMasterId = "5A1ECF60-5C3D-4C60-84B4-C69E600E0422";
background = {
components = (
{
name = c;
transform = "{1, 0, 0, -1, -23, 795}";
}
);
};
layerId = "B058045B-96D9-4563-93DD-6911B798F2CA";
name = "Mar 22 18, 20:06";
paths = (
{
closed = 1;
nodes = (
"383 642 LINE",
"353 616 LINE",
"303 650 OFFCURVE",
"258 638 OFFCURVE",
"238 616 CURVE SMOOTH",
"217 592 OFFCURVE",
"216 528 OFFCURVE",
"247 492 CURVE",
"350 499 LINE",
"367 480 LINE",
"367 391 LINE",
"275 399 LINE",
"275 139 LINE SMOOTH",
"275 113 OFFCURVE",
"289 95 OFFCURVE",
"315 92 CURVE SMOOTH",
"356 88 LINE",
"356 -4 LINE",
"192 0 LINE",
"21 -4 LINE",
"21 88 LINE",
"43 91 LINE SMOOTH",
"69 95 OFFCURVE",
"82 108 OFFCURVE",
"81 134 CURVE SMOOTH",
"76 351 LINE SMOOTH",
"75 376 OFFCURVE",
"65 391 OFFCURVE",
"41 393 CURVE SMOOTH",
"20 395 LINE",
"20 493 LINE",
"73 498 LINE",
"54 679 OFFCURVE",
"103 808 OFFCURVE",
"276 808 CURVE SMOOTH",
"320 808 OFFCURVE",
"366 800 OFFCURVE",
"405 786 CURVE"
);
}
);
width = 380;
},
{
associatedMasterId = "5A1ECF60-5C3D-4C60-84B4-C69E600E0422";
background = {
components = (
{
name = k;
transform = "{1, 0, 0, -1, -246, 800}";
}
);
};
layerId = "03829BE8-5FC0-4376-BECB-1D1186D17198";
name = "Mar 22 18, 21:05";
paths = (
{
closed = 1;
nodes = (
"382 632 LINE",
"352 606 LINE",
"302 640 OFFCURVE",
"247 642 OFFCURVE",
"227 620 CURVE SMOOTH",
"206 596 OFFCURVE",
"216 528 OFFCURVE",
"247 492 CURVE",
"350 499 LINE",
"367 480 LINE",
"367 391 LINE",
"275 399 LINE",
"275 139 LINE SMOOTH",
"275 113 OFFCURVE",
"289 95 OFFCURVE",
"315 92 CURVE SMOOTH",
"356 88 LINE",
"356 -4 LINE",
"192 0 LINE",
"21 -4 LINE",
"21 88 LINE",
"43 91 LINE SMOOTH",
"69 95 OFFCURVE",
"82 108 OFFCURVE",
"81 134 CURVE SMOOTH",
"76 351 LINE SMOOTH",
"75 376 OFFCURVE",
"65 391 OFFCURVE",
"41 393 CURVE SMOOTH",
"20 395 LINE",
"20 493 LINE",
"73 498 LINE",
"54 679 OFFCURVE",
"103 808 OFFCURVE",
"276 808 CURVE SMOOTH",
"320 808 OFFCURVE",
"366 800 OFFCURVE",
"405 786 CURVE"
);
}
);
width = 380;
}
);
leftMetricsKey = n;
unicode = 0066;
},
{
color = 1;
glyphname = g;
lastChange = "2018-03-25 18:35:50 +0000";
layers = (
{
background = {
components = (
{
name = n;
transform = "{1, 0, 0, 1, 285, 0}";
},
{
name = o;
transform = "{1, 0, 0, 1, -51, 0}";
}
);
};
guideLines = (
{
position = "{751, 396}";
},
{
angle = 90;
position = "{5, 193}";
},
{
angle = 90;
position = "{539, 545}";
},
{
angle = 103;
position = "{-164, 626}";
}
);
layerId = "5A1ECF60-5C3D-4C60-84B4-C69E600E0422";
paths = (
{
closed = 1;
nodes = (
"402 144 OFFCURVE",
"493 222 OFFCURVE",
"493 329 CURVE SMOOTH",
"493 359 OFFCURVE",
"467 396 OFFCURVE",
"446 429 CURVE",
"428 471 LINE",
"393 498 OFFCURVE",
"339 523 OFFCURVE",
"259 523 CURVE SMOOTH",
"95 523 OFFCURVE",
"9 450 OFFCURVE",
"7 326 CURVE SMOOTH",
"5 211 OFFCURVE",
"101 144 OFFCURVE",
"247 144 CURVE SMOOTH"
);
},
{
closed = 1;
nodes = (
"225 233 OFFCURVE",
"213 246 OFFCURVE",
"213 328 CURVE SMOOTH",
"213 408 OFFCURVE",
"225 422 OFFCURVE",
"255 422 CURVE SMOOTH",
"278 422 OFFCURVE",
"292 409 OFFCURVE",
"292 328 CURVE SMOOTH",
"292 245 OFFCURVE",
"278 233 OFFCURVE",
"251 233 CURVE SMOOTH"
);
},
{
closed = 1;
nodes = (
"-14 -48 LINE",
"18 -177 LINE",
"62 -190 OFFCURVE",
"133 -205 OFFCURVE",
"238 -205 CURVE SMOOTH",
"380 -205 OFFCURVE",
"538 -150 OFFCURVE",
"538 -29 CURVE SMOOTH",
"538 54 OFFCURVE",
"495 88 OFFCURVE",
"405 94 CURVE SMOOTH",
"221 106 LINE SMOOTH",
"199 107 OFFCURVE",
"193 116 OFFCURVE",
"205 136 CURVE SMOOTH",
"226 172 LINE",
"150 188 LINE",
"39 95 LINE",
"39 26 LINE",
"267 -14 LINE SMOOTH",
"309 -21 OFFCURVE",
"324 -30 OFFCURVE",
"324 -51 CURVE SMOOTH",
"324 -73 OFFCURVE",
"293 -82 OFFCURVE",
"245 -82 CURVE SMOOTH",
"162 -82 OFFCURVE",
"57 -40 OFFCURVE",
"23 -11 CURVE"
);
},
{
closed = 1;
nodes = (
"384 406 LINE",
"536 406 LINE",
"536 506 LINE",
"519 523 LINE",
"473 512 OFFCURVE",
"395 497 OFFCURVE",
"324 496 CURVE"
);
}
);
width = 548;
},
{
background = {
paths = (
{
closed = 1;
nodes = (
"276 159 OFFCURVE",
"327 178 OFFCURVE",
"364 212 CURVE SMOOTH",
"400 245 OFFCURVE",
"423 291 OFFCURVE",
"423 344 CURVE SMOOTH",
"423 383 OFFCURVE",
"410 418 OFFCURVE",
"382 449 CURVE",
"386 455 LINE",
"408 456 OFFCURVE",
"431 458 OFFCURVE",
"447 461 CURVE",
"457 462 OFFCURVE",
"466 463 OFFCURVE",
"475 464 CURVE",
"487 522 LINE",
"484 526 LINE",
"466 521 OFFCURVE",
"449 517 OFFCURVE",
"432 513 CURVE SMOOTH",
"402 506 OFFCURVE",
"366 498 OFFCURVE",
"340 495 CURVE",
"327 495 OFFCURVE",
"311 497 OFFCURVE",
"294 501 CURVE",
"277 504 OFFCURVE",
"258 507 OFFCURVE",
"238 507 CURVE SMOOTH",
"187 507 OFFCURVE",
"138 485 OFFCURVE",
"103 451 CURVE SMOOTH",
"67 416 OFFCURVE",
"45 371 OFFCURVE",
"45 321 CURVE SMOOTH",
"45 259 OFFCURVE",
"73 209 OFFCURVE",
"122 183 CURVE",
"122 179 LINE",
"111 173 OFFCURVE",
"101 165 OFFCURVE",
"90 158 CURVE SMOOTH",
"72 147 OFFCURVE",
"50 129 OFFCURVE",
"34 112 CURVE",
"34 87 OFFCURVE",
"47 64 OFFCURVE",
"68 46 CURVE SMOOTH",
"88 29 OFFCURVE",
"115 14 OFFCURVE",
"148 10 CURVE",
"148 4 LINE",
"134 -5 OFFCURVE",
"122 -16 OFFCURVE",
"109 -26 CURVE SMOOTH",
"87 -43 OFFCURVE",
"61 -66 OFFCURVE",
"45 -90 CURVE",
"45 -177 OFFCURVE",
"102 -228 OFFCURVE",
"202 -228 CURVE SMOOTH",
"268 -228 OFFCURVE",
"333 -205 OFFCURVE",
"381 -170 CURVE SMOOTH",
"429 -135 OFFCURVE",
"460 -90 OFFCURVE",
"460 -41 CURVE SMOOTH",
"460 -4 OFFCURVE",
"443 22 OFFCURVE",
"410 39 CURVE",
"375 56 OFFCURVE",
"318 67 OFFCURVE",
"238 71 CURVE SMOOTH",
"195 73 OFFCURVE",
"163 77 OFFCURVE",
"143 85 CURVE SMOOTH",
"124 93 OFFCURVE",
"113 106 OFFCURVE",
"113 122 CURVE SMOOTH",
"113 136 OFFCURVE",
"128 152 OFFCURVE",
"157 167 CURVE",
"179 162 OFFCURVE",
"198 159 OFFCURVE",
"217 159 CURVE SMOOTH"
);
},
{
closed = 1;
nodes = (
"171 205 OFFCURVE",
"123 259 OFFCURVE",
"123 339 CURVE SMOOTH",
"123 410 OFFCURVE",
"162 453 OFFCURVE",
"226 453 CURVE SMOOTH",
"296 453 OFFCURVE",
"345 398 OFFCURVE",
"345 318 CURVE SMOOTH",
"345 247 OFFCURVE",
"306 205 OFFCURVE",
"242 205 CURVE SMOOTH"
);
},
{
closed = 1;
nodes = (
"168 -177 OFFCURVE",
"126 -145 OFFCURVE",
"126 -92 CURVE SMOOTH",
"126 -80 OFFCURVE",
"129 -69 OFFCURVE",
"136 -57 CURVE",
"149 -36 OFFCURVE",
"165 -17 OFFCURVE",
"190 3 CURVE",
"274 -8 OFFCURVE",
"324 -17 OFFCURVE",
"355 -28 CURVE",
"384 -41 OFFCURVE",
"393 -53 OFFCURVE",
"393 -74 CURVE SMOOTH",
"393 -102 OFFCURVE",
"376 -127 OFFCURVE",
"347 -146 CURVE SMOOTH",
"318 -165 OFFCURVE",
"281 -177 OFFCURVE",
"240 -177 CURVE SMOOTH"
);
}
);
};
guideLines = (
{
position = "{133, 507}";
},
{
angle = 90;
position = "{44, 545}";
},
{
angle = 90;
position = "{466, 313}";
},
{
angle = 103;
position = "{-150, 620}";
}
);
layerId = "1B5E7594-BD1E-41E1-80E1-0DE241437139";
paths = (
{
closed = 1;
nodes = (
"336 158 OFFCURVE",
"419 227 OFFCURVE",
"419 331 CURVE SMOOTH",
"419 386 OFFCURVE",
"393 448 OFFCURVE",
"358 461 CURVE",
"346 477 LINE",
"316 496 OFFCURVE",
"277 506 OFFCURVE",
"233 506 CURVE SMOOTH",
"126 506 OFFCURVE",
"44 436 OFFCURVE",
"44 331 CURVE SMOOTH",
"44 220 OFFCURVE",
"119 158 OFFCURVE",
"233 158 CURVE SMOOTH"
);
},
{
closed = 1;
nodes = (
"166 200 OFFCURVE",
"116 248 OFFCURVE",
"116 334 CURVE SMOOTH",
"116 412 OFFCURVE",
"172 464 OFFCURVE",
"233 464 CURVE SMOOTH",
"304 464 OFFCURVE",
"349 417 OFFCURVE",
"349 334 CURVE SMOOTH",
"349 255 OFFCURVE",
"298 202 OFFCURVE",
"233 201 CURVE SMOOTH"
);
},
{
closed = 1;
nodes = (
"21 -103 LINE",
"38 -170 LINE",
"84 -192 OFFCURVE",
"143 -204 OFFCURVE",
"204 -204 CURVE SMOOTH",
"328 -204 OFFCURVE",
"458 -154 OFFCURVE",
"458 -46 CURVE SMOOTH",
"458 5 OFFCURVE",
"415 46 OFFCURVE",
"328 56 CURVE SMOOTH",
"148 76 LINE SMOOTH",
"121 79 OFFCURVE",
"118 91 OFFCURVE",
"137 118 CURVE SMOOTH",
"187 189 LINE",
"144 199 LINE",
"56 79 LINE",
"57 41 LINE",
"293 2 LINE SMOOTH",
"376 -12 OFFCURVE",
"395 -33 OFFCURVE",
"390 -67 CURVE SMOOTH",
"384 -110 OFFCURVE",
"321 -148 OFFCURVE",
"235 -148 CURVE SMOOTH",
"148 -148 OFFCURVE",
"91 -125 OFFCURVE",
"40 -88 CURVE"
);
},
{
closed = 1;
nodes = (
"334 447 LINE",
"467 443 LINE",
"467 497 LINE",
"458 504 LINE",
"403 493 OFFCURVE",
"357 484 OFFCURVE",
"293 482 CURVE"
);
}
);
width = 485;
},
{
associatedMasterId = "1B5E7594-BD1E-41E1-80E1-0DE241437139";
background = {
components = (
{
name = n;
transform = "{1, 0, 0, 1, -62, 0}";
}
);
};
guideLines = (
{
position = "{133, 507}";
},
{
angle = 90;
position = "{44, 545}";
},
{
angle = 90;
position = "{466, 313}";
}
);
layerId = "A3E59B41-4C32-4AFE-A3C5-3F1D053E9A2D";
name = "Mar 24 18, 09:55";
paths = (
{
closed = 1;
nodes = (
"336 158 OFFCURVE",
"419 227 OFFCURVE",
"419 331 CURVE SMOOTH",
"419 443 OFFCURVE",
"344 506 OFFCURVE",
"233 506 CURVE SMOOTH",
"126 506 OFFCURVE",
"44 436 OFFCURVE",
"44 331 CURVE SMOOTH",
"44 220 OFFCURVE",
"119 158 OFFCURVE",
"233 158 CURVE SMOOTH"
);
},
{
closed = 1;
nodes = (
"166 200 OFFCURVE",
"116 248 OFFCURVE",
"116 334 CURVE SMOOTH",
"116 412 OFFCURVE",
"172 464 OFFCURVE",
"233 464 CURVE SMOOTH",
"304 464 OFFCURVE",
"349 417 OFFCURVE",
"349 334 CURVE SMOOTH",
"349 255 OFFCURVE",
"298 202 OFFCURVE",
"233 201 CURVE SMOOTH"
);
},
{
closed = 1;
nodes = (
"23 -103 LINE",
"42 -170 LINE",
"82 -189 OFFCURVE",
"159 -202 OFFCURVE",
"249 -201 CURVE SMOOTH",
"386 -200 OFFCURVE",
"467 -125 OFFCURVE",
"467 -51 CURVE SMOOTH",
"467 22 OFFCURVE",
"409 72 OFFCURVE",
"313 73 CURVE SMOOTH",
"156 75 LINE",
"203 183 LINE",
"158 192 LINE",
"90 75 LINE",
"109 30 LINE",
"293 17 LINE SMOOTH",
"369 12 OFFCURVE",
"395 -13 OFFCURVE",
"394 -58 CURVE SMOOTH",
"392 -158 OFFCURVE",
"153 -169 OFFCURVE",
"42 -88 CURVE"
);
},
{
closed = 1;
nodes = (
"334 447 LINE",
"467 443 LINE",
"467 497 LINE",
"458 504 LINE",
"403 493 OFFCURVE",
"357 484 OFFCURVE",
"293 482 CURVE"
);
}
);
width = 485;
},
{
associatedMasterId = "1B5E7594-BD1E-41E1-80E1-0DE241437139";
background = {
paths = (
{
closed = 1;
nodes = (
"276 159 OFFCURVE",
"327 178 OFFCURVE",
"364 212 CURVE SMOOTH",
"400 245 OFFCURVE",
"423 291 OFFCURVE",
"423 344 CURVE SMOOTH",
"423 383 OFFCURVE",
"410 418 OFFCURVE",
"382 449 CURVE",
"386 455 LINE",
"408 456 OFFCURVE",
"431 458 OFFCURVE",
"447 461 CURVE",
"457 462 OFFCURVE",
"466 463 OFFCURVE",
"475 464 CURVE",
"487 522 LINE",
"484 526 LINE",
"466 521 OFFCURVE",
"449 517 OFFCURVE",
"432 513 CURVE SMOOTH",
"402 506 OFFCURVE",
"366 498 OFFCURVE",
"340 495 CURVE",
"327 495 OFFCURVE",
"311 497 OFFCURVE",
"294 501 CURVE",
"277 504 OFFCURVE",
"258 507 OFFCURVE",
"238 507 CURVE SMOOTH",
"187 507 OFFCURVE",
"138 485 OFFCURVE",
"103 451 CURVE SMOOTH",
"67 416 OFFCURVE",
"45 371 OFFCURVE",
"45 321 CURVE SMOOTH",
"45 259 OFFCURVE",
"73 209 OFFCURVE",
"122 183 CURVE",
"122 179 LINE",
"111 173 OFFCURVE",
"101 165 OFFCURVE",
"90 158 CURVE SMOOTH",
"72 147 OFFCURVE",
"50 129 OFFCURVE",
"34 112 CURVE",
"34 87 OFFCURVE",
"47 64 OFFCURVE",
"68 46 CURVE SMOOTH",
"88 29 OFFCURVE",
"115 14 OFFCURVE",
"148 10 CURVE",
"148 4 LINE",
"134 -5 OFFCURVE",
"122 -16 OFFCURVE",
"109 -26 CURVE SMOOTH",
"87 -43 OFFCURVE",
"61 -66 OFFCURVE",
"45 -90 CURVE",
"45 -177 OFFCURVE",
"102 -228 OFFCURVE",
"202 -228 CURVE SMOOTH",
"268 -228 OFFCURVE",
"333 -205 OFFCURVE",
"381 -170 CURVE SMOOTH",
"429 -135 OFFCURVE",
"460 -90 OFFCURVE",
"460 -41 CURVE SMOOTH",
"460 -4 OFFCURVE",
"443 22 OFFCURVE",
"410 39 CURVE",
"375 56 OFFCURVE",
"318 67 OFFCURVE",
"238 71 CURVE SMOOTH",
"195 73 OFFCURVE",
"163 77 OFFCURVE",
"143 85 CURVE SMOOTH",
"124 93 OFFCURVE",
"113 106 OFFCURVE",
"113 122 CURVE SMOOTH",
"113 136 OFFCURVE",
"128 152 OFFCURVE",
"157 167 CURVE",
"179 162 OFFCURVE",
"198 159 OFFCURVE",
"217 159 CURVE SMOOTH"
);
},
{
closed = 1;
nodes = (
"171 205 OFFCURVE",
"123 259 OFFCURVE",
"123 339 CURVE SMOOTH",
"123 410 OFFCURVE",
"162 453 OFFCURVE",
"226 453 CURVE SMOOTH",
"296 453 OFFCURVE",
"345 398 OFFCURVE",
"345 318 CURVE SMOOTH",
"345 247 OFFCURVE",
"306 205 OFFCURVE",
"242 205 CURVE SMOOTH"
);
},
{
closed = 1;
nodes = (
"168 -177 OFFCURVE",
"126 -145 OFFCURVE",
"126 -92 CURVE SMOOTH",
"126 -80 OFFCURVE",
"129 -69 OFFCURVE",
"136 -57 CURVE",
"149 -36 OFFCURVE",
"165 -17 OFFCURVE",
"190 3 CURVE",
"274 -8 OFFCURVE",
"324 -17 OFFCURVE",
"355 -28 CURVE",
"384 -41 OFFCURVE",
"393 -53 OFFCURVE",
"393 -74 CURVE SMOOTH",
"393 -102 OFFCURVE",
"376 -127 OFFCURVE",
"347 -146 CURVE SMOOTH",
"318 -165 OFFCURVE",
"281 -177 OFFCURVE",
"240 -177 CURVE SMOOTH"
);
}
);
};
guideLines = (
{
position = "{133, 507}";
},
{
angle = 90;
position = "{44, 545}";
},
{
angle = 90;
position = "{466, 313}";
}
);
layerId = "844B7F10-AF7C-45F9-AF10-2D4D552306D0";
name = "Mar 24 18, 10:08";
paths = (
{
closed = 1;
nodes = (
"336 158 OFFCURVE",
"419 227 OFFCURVE",
"419 331 CURVE SMOOTH",
"419 443 OFFCURVE",
"344 506 OFFCURVE",
"233 506 CURVE SMOOTH",
"126 506 OFFCURVE",
"44 436 OFFCURVE",
"44 331 CURVE SMOOTH",
"44 220 OFFCURVE",
"119 158 OFFCURVE",
"233 158 CURVE SMOOTH"
);
},
{
closed = 1;
nodes = (
"166 200 OFFCURVE",
"116 248 OFFCURVE",
"116 334 CURVE SMOOTH",
"116 412 OFFCURVE",
"172 464 OFFCURVE",
"233 464 CURVE SMOOTH",
"304 464 OFFCURVE",
"349 417 OFFCURVE",
"349 334 CURVE SMOOTH",
"349 255 OFFCURVE",
"298 202 OFFCURVE",
"233 201 CURVE SMOOTH"
);
},
{
closed = 1;
nodes = (
"29 -103 LINE",
"48 -170 LINE",
"88 -189 OFFCURVE",
"155 -202 OFFCURVE",
"238 -201 CURVE SMOOTH",
"355 -200 OFFCURVE",
"454 -139 OFFCURVE",
"455 -48 CURVE SMOOTH",
"456 51 OFFCURVE",
"332 95 OFFCURVE",
"156 79 CURVE",
"243 174 LINE",
"198 183 LINE",
"80 78 LINE",
"99 33 LINE",
"287 48 OFFCURVE",
"384 25 OFFCURVE",
"383 -49 CURVE SMOOTH",
"382 -108 OFFCURVE",
"322 -148 OFFCURVE",
"235 -148 CURVE SMOOTH",
"148 -148 OFFCURVE",
"99 -125 OFFCURVE",
"48 -88 CURVE"
);
},
{
closed = 1;
nodes = (
"334 447 LINE",
"467 443 LINE",
"467 497 LINE",
"458 504 LINE",
"403 493 OFFCURVE",
"357 484 OFFCURVE",
"293 482 CURVE"
);
}
);
width = 485;
},
{
associatedMasterId = "5A1ECF60-5C3D-4C60-84B4-C69E600E0422";
background = {
components = (
{
name = n;
transform = "{1, 0, 0, 1, -62, 0}";
}
);
};
guideLines = (
{
position = "{761, 396}";
}
);
layerId = "2144171E-733E-4D6A-B5AF-8FEE5A5C3D05";
name = "Mar 24 18, 10:14";
paths = (
{
closed = 1;
nodes = (
"412 153 OFFCURVE",
"503 231 OFFCURVE",
"503 329 CURVE SMOOTH",
"503 402 OFFCURVE",
"469 516 OFFCURVE",
"269 516 CURVE SMOOTH",
"105 516 OFFCURVE",
"19 445 OFFCURVE",
"17 326 CURVE SMOOTH",
"15 220 OFFCURVE",
"111 153 OFFCURVE",
"257 153 CURVE SMOOTH"
);
},
{
closed = 1;
nodes = (
"237 245 OFFCURVE",
"223 277 OFFCURVE",
"225 334 CURVE SMOOTH",
"227 388 OFFCURVE",
"237 421 OFFCURVE",
"267 421 CURVE SMOOTH",
"293 421 OFFCURVE",
"306 387 OFFCURVE",
"304 334 CURVE SMOOTH",
"302 276 OFFCURVE",
"290 245 OFFCURVE",
"263 245 CURVE SMOOTH"
);
},
{
closed = 1;
nodes = (
"5 -59 LINE",
"48 -186 LINE",
"92 -197 OFFCURVE",
"131 -205 OFFCURVE",
"201 -205 CURVE SMOOTH",
"358 -205 OFFCURVE",
"521 -161 OFFCURVE",
"536 -44 CURVE SMOOTH",
"547 44 OFFCURVE",
"471 138 OFFCURVE",
"239 118 CURVE",
"269 199 LINE",
"195 199 LINE",
"58 91 LINE",
"92 25 LINE",
"249 31 OFFCURVE",
"325 20 OFFCURVE",
"325 -15 CURVE SMOOTH",
"325 -48 OFFCURVE",
"301 -68 OFFCURVE",
"196 -68 CURVE SMOOTH",
"142 -68 OFFCURVE",
"70 -54 OFFCURVE",
"32 -22 CURVE"
);
},
{
closed = 1;
nodes = (
"394 395 LINE",
"563 395 LINE",
"563 495 LINE",
"546 512 LINE",
"498 502 OFFCURVE",
"405 487 OFFCURVE",
"334 486 CURVE"
);
}
);
width = 557;
}
);
unicode = 0067;
},
{
color = 1;
glyphname = h;
lastChange = "2018-03-25 18:52:26 +0000";
layers = (
{
background = {
components = (
{
name = n;
transform = "{1, 0, 0, 1, -6, 0}";
}
);
};
components = (
{
name = n_bow;
transform = "{1, 0, 0, 1, -6, 0}";
}
);
guideLines = (
{
position = "{172, 435}";
}
);
layerId = "1B5E7594-BD1E-41E1-80E1-0DE241437139";
paths = (
{
closed = 1;
nodes = (
"72 780 OFFCURVE",
"119 787 OFFCURVE",
"166 796 CURVE",
"175 790 LINE",
"171 81 LINE SMOOTH",
"171 55 OFFCURVE",
"181 36 OFFCURVE",
"215 34 CURVE SMOOTH",
"261 31 LINE",
"261 -4 LINE",
"142 0 LINE",
"25 -4 LINE",
"25 31 LINE",
"68 33 LINE SMOOTH",
"92 34 OFFCURVE",
"107 45 OFFCURVE",
"107 75 CURVE SMOOTH",
"107 692 LINE SMOOTH",
"107 714 OFFCURVE",
"99 736 OFFCURVE",
"66 739 CURVE SMOOTH",
"25 743 LINE",
"25 775 LINE"
);
}
);
width = 599;
},
{
background = {
components = (
{
name = n;
transform = "{1, 0, 0, 1, -14, 0}";
}
);
};
components = (
{
name = n_bow;
transform = "{1, 0, 0, 1, -12, 0}";
}
);
layerId = "5A1ECF60-5C3D-4C60-84B4-C69E600E0422";
paths = (
{
closed = 1;
nodes = (
"80 789 OFFCURVE",
"166 798 OFFCURVE",
"246 813 CURVE",
"264 796 LINE",
"259 135 LINE SMOOTH",
"259 112 OFFCURVE",
"260 99 OFFCURVE",
"282 94 CURVE SMOOTH",
"299 90 LINE",
"297 -3 LINE",
"154 0 LINE",
"4 -3 LINE",
"5 89 LINE",
"33 94 LINE SMOOTH",
"55 98 OFFCURVE",
"66 110 OFFCURVE",
"66 131 CURVE SMOOTH",
"62 651 LINE SMOOTH",
"62 674 OFFCURVE",
"47 691 OFFCURVE",
"27 693 CURVE SMOOTH",
"0 696 LINE",
"0 785 LINE"
);
}
);
width = 619;
}
);
rightMetricsKey = n;
unicode = 0068;
},
{
color = 1;
glyphname = i;
lastChange = "2018-03-25 18:56:36 +0000";
layers = (
{
background = {
components = (
{
name = n;
transform = "{1, 0, 0, 1, 2, 0}";
}
);
};
guideLines = (
{
position = "{-353, 31}";
}
);
layerId = "1B5E7594-BD1E-41E1-80E1-0DE241437139";
paths = (
{
closed = 1;
nodes = (
"165 676 OFFCURVE",
"191 702 OFFCURVE",
"191 733 CURVE SMOOTH",
"191 763 OFFCURVE",
"165 789 OFFCURVE",
"135 789 CURVE SMOOTH",
"104 789 OFFCURVE",
"78 763 OFFCURVE",
"78 733 CURVE SMOOTH",
"78 702 OFFCURVE",
"104 676 OFFCURVE",
"135 676 CURVE SMOOTH"
);
},
{
closed = 1;
nodes = (
"31 471 LINE",
"80 480 OFFCURVE",
"124 495 OFFCURVE",
"169 506 CURVE",
"178 500 LINE",
"171 76 LINE SMOOTH",
"171 46 OFFCURVE",
"186 35 OFFCURVE",
"210 34 CURVE SMOOTH",
"260 32 LINE",
"260 -4 LINE",
"143 0 LINE",
"30 -4 LINE",
"30 32 LINE",
"69 34 LINE SMOOTH",
"93 35 OFFCURVE",
"108 46 OFFCURVE",
"108 76 CURVE SMOOTH",
"108 403 LINE SMOOTH",
"108 425 OFFCURVE",
"104 438 OFFCURVE",
"71 440 CURVE SMOOTH",
"31 443 LINE"
);
}
);
width = 282;
},
{
background = {
components = (
{
name = n;
transform = "{1, 0, 0, 1, 0, 211}";
}
);
};
layerId = "5A1ECF60-5C3D-4C60-84B4-C69E600E0422";
paths = (
{
closed = 1;
nodes = (
"234 599 OFFCURVE",
"285 650 OFFCURVE",
"285 712 CURVE SMOOTH",
"285 773 OFFCURVE",
"234 824 OFFCURVE",
"173 824 CURVE SMOOTH",
"111 824 OFFCURVE",
"60 773 OFFCURVE",
"60 712 CURVE SMOOTH",
"60 650 OFFCURVE",
"111 599 OFFCURVE",
"173 599 CURVE SMOOTH"
);
},
{
closed = 1;
nodes = (
"20 495 LINE",
"100 500 OFFCURVE",
"184 509 OFFCURVE",
"260 523 CURVE",
"279 504 LINE",
"272 128 LINE SMOOTH",
"272 107 OFFCURVE",
"288 93 OFFCURVE",
"309 91 CURVE SMOOTH",
"336 89 LINE",
"336 -3 LINE",
"172 0 LINE",
"20 -3 LINE",
"20 89 LINE",
"48 93 LINE SMOOTH",
"68 96 OFFCURVE",
"78 108 OFFCURVE",
"78 128 CURVE SMOOTH",
"78 363 LINE SMOOTH",
"78 384 OFFCURVE",
"66 402 OFFCURVE",
"47 404 CURVE SMOOTH",
"20 407 LINE"
);
}
);
width = 346;
}
);
leftMetricsKey = n;
unicode = 0069;
},
{
color = 1;
glyphname = j;
lastChange = "2018-03-25 19:02:38 +0000";
layers = (
{
background = {
components = (
{
name = n;
transform = "{1, 0, 0, 1, -2, 0}";
}
);
};
layerId = "1B5E7594-BD1E-41E1-80E1-0DE241437139";
paths = (
{
closed = 1;
nodes = (
"173 135 LINE",
"163 0 OFFCURVE",
"151 -52 OFFCURVE",
"79 -178 CURVE",
"48 -160 LINE",
"93 -37 OFFCURVE",
"107 29 OFFCURVE",
"108 163 CURVE SMOOTH",
"109 402 LINE SMOOTH",
"109 425 OFFCURVE",
"97 437 OFFCURVE",
"74 439 CURVE SMOOTH",
"27 443 LINE",
"27 472 LINE",
"73 478 OFFCURVE",
"124 495 OFFCURVE",
"170 505 CURVE",
"179 499 LINE"
);
},
{
closed = 1;
nodes = (
"160 680 OFFCURVE",
"187 707 OFFCURVE",
"187 738 CURVE SMOOTH",
"187 768 OFFCURVE",
"160 795 OFFCURVE",
"130 795 CURVE SMOOTH",
"99 795 OFFCURVE",
"72 768 OFFCURVE",
"72 738 CURVE SMOOTH",
"72 707 OFFCURVE",
"99 680 OFFCURVE",
"130 680 CURVE SMOOTH"
);
}
);
width = 249;
},
{
background = {
components = (
{
name = i;
transform = "{1, 0, 0, 1, -15, 0}";
}
);
};
guideLines = (
{
position = "{588, 519}";
}
);
layerId = "5A1ECF60-5C3D-4C60-84B4-C69E600E0422";
paths = (
{
closed = 1;
nodes = (
"256 36 LINE",
"224 -44 OFFCURVE",
"169 -130 OFFCURVE",
"100 -184 CURVE",
"10 -139 LINE",
"47 -73 OFFCURVE",
"65 14 OFFCURVE",
"65 103 CURVE SMOOTH",
"65 354 LINE SMOOTH",
"65 381 OFFCURVE",
"57 400 OFFCURVE",
"29 402 CURVE SMOOTH",
"5 404 LINE",
"5 491 LINE",
"78 495 OFFCURVE",
"162 505 OFFCURVE",
"237 519 CURVE",
"263 496 LINE"
);
},
{
closed = 1;
nodes = (
"216 599 OFFCURVE",
"267 650 OFFCURVE",
"267 712 CURVE SMOOTH",
"267 773 OFFCURVE",
"216 824 OFFCURVE",
"155 824 CURVE SMOOTH",
"93 824 OFFCURVE",
"42 773 OFFCURVE",
"42 712 CURVE SMOOTH",
"42 650 OFFCURVE",
"93 599 OFFCURVE",
"155 599 CURVE SMOOTH"
);
}
);
width = 310;
}
);
unicode = 006A;
},
{
color = 1;
glyphname = k;
lastChange = "2018-03-27 18:36:58 +0000";
layers = (
{
background = {
components = (
{
name = a;
transform = "{1, 0, 0, 1, 73, 0}";
}
);
};
components = (
{
name = l;
}
);
layerId = "1B5E7594-BD1E-41E1-80E1-0DE241437139";
paths = (
{
closed = 1;
nodes = (
"299 303 LINE",
"443 62 LINE SMOOTH",
"456 40 OFFCURVE",
"463 40 OFFCURVE",
"482 47 CURVE SMOOTH",
"535 68 LINE",
"545 47 LINE",
"521 4 LINE",
"447 -29 OFFCURVE",
"399 4 OFFCURVE",
"367 62 CURVE SMOOTH",
"261 257 LINE"
);
},
{
closed = 1;
nodes = (
"423 497 LINE",
"523 500 LINE",
"523 463 LINE",
"482 457 OFFCURVE",
"468 444 OFFCURVE",
"434 411 CURVE SMOOTH",
"163 148 LINE",
"148 193 LINE",
"375 417 LINE SMOOTH",
"395 437 OFFCURVE",
"388 458 OFFCURVE",
"357 459 CURVE SMOOTH",
"307 461 LINE",
"307 497 LINE"
);
}
);
width = 562;
},
{
background = {
components = (
{
name = t;
transform = "{1, 0, 0, 1, 299, 0}";
}
);
};
components = (
{
name = l;
transform = "{1, 0, 0, 1, -9, 0}";
}
);
guideLines = (
{
angle = 90;
position = "{600, 339}";
}
);
layerId = "5A1ECF60-5C3D-4C60-84B4-C69E600E0422";
paths = (
{
closed = 1;
nodes = (
"433 325 LINE",
"532 153 LINE SMOOTH",
"543 134 OFFCURVE",
"554 123 OFFCURVE",
"575 127 CURVE SMOOTH",
"614 135 LINE",
"628 113 LINE",
"583 1 LINE",
"402 -40 OFFCURVE",
"357 25 OFFCURVE",
"330 113 CURVE SMOOTH",
"298 216 LINE"
);
},
{
closed = 1;
nodes = (
"444 503 LINE",
"584 506 LINE",
"584 419 LINE",
"544 405 OFFCURVE",
"508 388 OFFCURVE",
"478 360 CURVE SMOOTH",
"240 137 LINE",
"225 231 LINE",
"334 341 LINE SMOOTH",
"369 376 OFFCURVE",
"358 402 OFFCURVE",
"329 406 CURVE SMOOTH",
"303 410 LINE",
"303 506 LINE"
);
}
);
width = 632;
},
{
associatedMasterId = "1B5E7594-BD1E-41E1-80E1-0DE241437139";
background = {
components = (
{
name = a;
transform = "{1, 0, 0, 1, 48, 0}";
}
);
};
components = (
{
name = l;
}
);
layerId = "72A34C5F-BD73-4A46-87C5-32AC6C5140B7";
name = "Mar 24 18, 18:44";
paths = (
{
closed = 1;
nodes = (
"320 332 LINE",
"448 68 LINE SMOOTH",
"457 49 OFFCURVE",
"471 50 OFFCURVE",
"490 54 CURVE SMOOTH",
"535 64 LINE",
"540 53 LINE",
"521 0 LINE",
"431 -22 OFFCURVE",
"408 11 OFFCURVE",
"385 58 CURVE SMOOTH",
"273 286 LINE"
);
},
{
closed = 1;
nodes = (
"405 497 LINE",
"505 500 LINE",
"505 463 LINE",
"464 457 OFFCURVE",
"448 445 OFFCURVE",
"416 411 CURVE SMOOTH",
"163 148 LINE",
"148 193 LINE",
"357 417 LINE SMOOTH",
"376 438 OFFCURVE",
"370 458 OFFCURVE",
"339 459 CURVE SMOOTH",
"289 461 LINE",
"289 497 LINE"
);
}
);
width = 562;
}
);
unicode = 006B;
},
{
color = 1;
glyphname = l;
lastChange = "2018-03-25 14:27:02 +0000";
layers = (
{
background = {
components = (
{
name = n;
transform = "{1, 0, 0, 1, 22, 292}";
}
);
};
layerId = "1B5E7594-BD1E-41E1-80E1-0DE241437139";
paths = (
{
closed = 1;
nodes = (
"27 775 LINE",
"74 780 OFFCURVE",
"123 787 OFFCURVE",
"170 796 CURVE",
"179 790 LINE",
"171 71 LINE SMOOTH",
"171 47 OFFCURVE",
"187 34 OFFCURVE",
"214 33 CURVE SMOOTH",
"261 31 LINE",
"261 -4 LINE",
"142 0 LINE",
"27 -4 LINE",
"27 31 LINE",
"70 33 LINE SMOOTH",
"94 34 OFFCURVE",
"109 45 OFFCURVE",
"109 75 CURVE SMOOTH",
"109 694 LINE SMOOTH",
"109 716 OFFCURVE",
"101 736 OFFCURVE",
"68 739 CURVE SMOOTH",
"27 743 LINE"
);
}
);
width = 280;
},
{
background = {
components = (
{
name = i;
transform = "{1, 0, 0, 1, -12, 0}";
}
);
};
guideLines = (
{
angle = 105;
position = "{-534, 559}";
}
);
layerId = "5A1ECF60-5C3D-4C60-84B4-C69E600E0422";
paths = (
{
closed = 1;
nodes = (
"7 785 LINE",
"87 789 OFFCURVE",
"173 798 OFFCURVE",
"253 813 CURVE",
"271 796 LINE",
"266 135 LINE SMOOTH",
"266 112 OFFCURVE",
"278 98 OFFCURVE",
"300 94 CURVE SMOOTH",
"324 90 LINE",
"322 -3 LINE",
"161 0 LINE",
"11 -3 LINE",
"12 89 LINE",
"40 94 LINE SMOOTH",
"62 98 OFFCURVE",
"73 110 OFFCURVE",
"73 131 CURVE SMOOTH",
"69 651 LINE SMOOTH",
"69 674 OFFCURVE",
"54 691 OFFCURVE",
"34 693 CURVE SMOOTH",
"7 696 LINE"
);
}
);
width = 331;
}
);
unicode = 006C;
},
{
glyphname = m;
lastChange = "2018-03-25 18:58:13 +0000";
layers = (
{
components = (
{
name = n_bow;
transform = "{1, 0, 0, 1, 281, 0}";
},
{
name = n_stem;
transform = "{1, 0, 0, 1, -5, 0}";
}
);
guideLines = (
{
position = "{620, 453}";
}
);
layerId = "1B5E7594-BD1E-41E1-80E1-0DE241437139";
paths = (
{
closed = 1;
nodes = (
"208 466 OFFCURVE",
"263 508 OFFCURVE",
"344 508 CURVE SMOOTH",
"427 508 OFFCURVE",
"483 453 OFFCURVE",
"482 360 CURVE SMOOTH",
"480 69 LINE SMOOTH",
"480 46 OFFCURVE",
"496 34 OFFCURVE",
"518 33 CURVE SMOOTH",
"566 31 LINE",
"566 -4 LINE",
"453 0 LINE",
"330 -4 LINE",
"330 31 LINE",
"404 34 OFFCURVE",
"416 45 OFFCURVE",
"416 82 CURVE SMOOTH",
"416 363 LINE SMOOTH",
"416 440 OFFCURVE",
"342 505 OFFCURVE",
"152 388 CURVE",
"156 420 LINE"
);
}
);
width = 886;
},
{
components = (
{
name = n_bow;
transform = "{1, 0, 0, 1, 280, 0}";
},
{
name = n_stem;
}
);
layerId = "5A1ECF60-5C3D-4C60-84B4-C69E600E0422";
paths = (
{
closed = 1;
nodes = (
"283 486 OFFCURVE",
"351 524 OFFCURVE",
"414 524 CURVE SMOOTH",
"517 524 OFFCURVE",
"559 457 OFFCURVE",
"559 374 CURVE SMOOTH",
"558 127 LINE SMOOTH",
"558 100 OFFCURVE",
"566 93 OFFCURVE",
"584 90 CURVE SMOOTH",
"595 88 LINE",
"595 -4 LINE",
"466 0 LINE",
"328 -4 LINE",
"330 90 LINE",
"347 92 OFFCURVE",
"362 94 OFFCURVE",
"362 130 CURVE SMOOTH",
"360 313 LINE SMOOTH",
"359 376 OFFCURVE",
"324 417 OFFCURVE",
"225 334 CURVE",
"240 400 LINE"
);
}
);
width = 911;
},
{
associatedMasterId = "5A1ECF60-5C3D-4C60-84B4-C69E600E0422";
layerId = "CE586258-A461-475E-B3E6-05EB68AC5D90";
name = "Mar 22 18, 19:00";
paths = (
{
closed = 1;
nodes = (
"17 492 LINE",
"97 496 OFFCURVE",
"174 506 OFFCURVE",
"248 520 CURVE",
"266 503 LINE",
"265 432 LINE",
"272 401 LINE",
"268 127 LINE SMOOTH",
"268 98 OFFCURVE",
"278 93 OFFCURVE",
"302 90 CURVE",
"300 -3 LINE",
"165 0 LINE",
"17 -3 LINE",
"18 89 LINE",
"44 94 LINE SMOOTH",
"66 98 OFFCURVE",
"75 110 OFFCURVE",
"75 131 CURVE SMOOTH",
"75 359 LINE SMOOTH",
"75 382 OFFCURVE",
"64 399 OFFCURVE",
"44 401 CURVE SMOOTH",
"17 404 LINE"
);
},
{
closed = 1;
nodes = (
"387 549 OFFCURVE",
"555 559 OFFCURVE",
"554 408 CURVE SMOOTH",
"553 127 LINE SMOOTH",
"553 96 OFFCURVE",
"564 90 OFFCURVE",
"590 88 CURVE",
"590 -4 LINE",
"461 0 LINE",
"324 -4 LINE",
"326 90 LINE",
"343 92 OFFCURVE",
"359 94 OFFCURVE",
"358 130 CURVE SMOOTH",
"354 319 LINE",
"354 382 OFFCURVE",
"332 411 OFFCURVE",
"208 338 CURVE",
"193 398 LINE"
);
},
{
closed = 1;
nodes = (
"673 549 OFFCURVE",
"841 559 OFFCURVE",
"840 408 CURVE SMOOTH",
"839 127 LINE SMOOTH",
"839 100 OFFCURVE",
"854 91 OFFCURVE",
"871 90 CURVE SMOOTH",
"894 88 LINE",
"894 -4 LINE",
"747 0 LINE",
"612 -4 LINE",
"614 90 LINE",
"631 92 OFFCURVE",
"644 94 OFFCURVE",
"644 130 CURVE SMOOTH",
"642 319 LINE SMOOTH",
"641 382 OFFCURVE",
"618 411 OFFCURVE",
"494 338 CURVE",
"479 398 LINE"
);
}
);
width = 909;
},
{
associatedMasterId = "1B5E7594-BD1E-41E1-80E1-0DE241437139";
background = {
components = (
{
name = I;
transform = "{1, 0, 0, 1, -14, 0}";
}
);
};
layerId = "161FB93C-44D1-4D20-AA25-5497D2E877BF";
name = "Mar 22 18, 19:01";
paths = (
{
closed = 1;
nodes = (
"29 483 LINE",
"77 488 OFFCURVE",
"122 495 OFFCURVE",
"168 504 CURVE",
"177 498 LINE",
"177 436 LINE",
"179 418 LINE",
"178 76 LINE SMOOTH",
"178 45 OFFCURVE",
"185 35 OFFCURVE",
"265 32 CURVE",
"265 -4 LINE",
"147 0 LINE",
"29 -4 LINE",
"29 32 LINE",
"69 34 LINE SMOOTH",
"98 35 OFFCURVE",
"110 48 OFFCURVE",
"110 75 CURVE SMOOTH",
"111 397 LINE SMOOTH",
"111 419 OFFCURVE",
"106 444 OFFCURVE",
"73 447 CURVE SMOOTH",
"29 451 LINE"
);
},
{
closed = 1;
nodes = (
"304 533 OFFCURVE",
"465 555 OFFCURVE",
"464 360 CURVE SMOOTH",
"462 80 LINE SMOOTH",
"462 43 OFFCURVE",
"473 35 OFFCURVE",
"548 32 CURVE",
"548 -4 LINE",
"435 0 LINE",
"312 -4 LINE",
"312 32 LINE",
"386 33 OFFCURVE",
"398 42 OFFCURVE",
"398 86 CURVE SMOOTH",
"398 339 LINE SMOOTH",
"398 458 OFFCURVE",
"347 476 OFFCURVE",
"157 396 CURVE",
"151 428 LINE"
);
},
{
closed = 1;
nodes = (
"587 533 OFFCURVE",
"748 555 OFFCURVE",
"747 360 CURVE SMOOTH",
"745 70 LINE SMOOTH",
"745 47 OFFCURVE",
"761 35 OFFCURVE",
"783 34 CURVE SMOOTH",
"831 32 LINE",
"831 -4 LINE",
"718 0 LINE",
"595 -4 LINE",
"595 32 LINE",
"674 35 OFFCURVE",
"681 44 OFFCURVE",
"681 76 CURVE SMOOTH",
"681 339 LINE SMOOTH",
"681 458 OFFCURVE",
"630 476 OFFCURVE",
"440 396 CURVE",
"434 428 LINE"
);
}
);
width = 847;
},
{
associatedMasterId = "1B5E7594-BD1E-41E1-80E1-0DE241437139";
layerId = "60E3E46C-8685-46E3-BFD4-85A85114F60B";
name = "Mar 24 18, 18:21";
paths = (
{
closed = 1;
nodes = (
"29 483 LINE",
"77 488 OFFCURVE",
"122 495 OFFCURVE",
"168 504 CURVE",
"177 498 LINE",
"177 436 LINE",
"179 418 LINE",
"178 76 LINE SMOOTH",
"178 45 OFFCURVE",
"185 35 OFFCURVE",
"265 32 CURVE",
"265 -4 LINE",
"147 0 LINE",
"29 -4 LINE",
"29 32 LINE",
"69 34 LINE SMOOTH",
"98 35 OFFCURVE",
"110 48 OFFCURVE",
"110 75 CURVE SMOOTH",
"111 397 LINE SMOOTH",
"111 419 OFFCURVE",
"106 444 OFFCURVE",
"73 447 CURVE SMOOTH",
"29 451 LINE"
);
},
{
closed = 1;
nodes = (
"475 463 OFFCURVE",
"539 507 OFFCURVE",
"620 507 CURVE SMOOTH",
"691 507 OFFCURVE",
"748 465 OFFCURVE",
"747 360 CURVE SMOOTH",
"745 69 LINE SMOOTH",
"745 46 OFFCURVE",
"761 34 OFFCURVE",
"783 33 CURVE SMOOTH",
"831 31 LINE",
"831 -4 LINE",
"718 0 LINE",
"595 -4 LINE",
"595 31 LINE",
"669 34 OFFCURVE",
"681 45 OFFCURVE",
"681 82 CURVE SMOOTH",
"681 363 LINE SMOOTH",
"681 440 OFFCURVE",
"610 511 OFFCURVE",
"429 385 CURVE",
"423 417 LINE"
);
},
{
closed = 1;
nodes = (
"191 455 OFFCURVE",
"254 507 OFFCURVE",
"335 507 CURVE SMOOTH",
"406 507 OFFCURVE",
"463 465 OFFCURVE",
"462 360 CURVE SMOOTH",
"460 69 LINE SMOOTH",
"460 46 OFFCURVE",
"476 34 OFFCURVE",
"498 33 CURVE SMOOTH",
"546 31 LINE",
"546 -4 LINE",
"433 0 LINE",
"310 -4 LINE",
"310 31 LINE",
"384 34 OFFCURVE",
"396 45 OFFCURVE",
"396 82 CURVE SMOOTH",
"396 363 LINE SMOOTH",
"396 440 OFFCURVE",
"325 509 OFFCURVE",
"144 383 CURVE",
"139 409 LINE"
);
}
);
width = 847;
}
);
leftMetricsKey = n;
rightMetricsKey = n;
unicode = 006D;
},
{
color = 1;
glyphname = n;
lastChange = "2018-03-27 18:22:30 +0000";
layers = (
{
background = {
components = (
{
name = h;
transform = "{1, 0, 0, 1, 14, 0}";
}
);
};
components = (
{
name = n_bow;
},
{
alignment = -1;
name = n_stem;
}
);
guideLines = (
{
position = "{851, 428}";
},
{
angle = 71;
position = "{639, 174}";
},
{
position = "{911, 515}";
}
);
layerId = "5A1ECF60-5C3D-4C60-84B4-C69E600E0422";
width = 631;
},
{
background = {
paths = (
{
closed = 1;
nodes = (
"119 498 OFFCURVE",
"47 478 OFFCURVE",
"8 461 CURVE",
"6 448 OFFCURVE",
"9 435 OFFCURVE",
"13 424 CURVE",
"43 420 OFFCURVE",
"73 416 OFFCURVE",
"103 407 CURVE",
"103 407 OFFCURVE",
"105 332 OFFCURVE",
"105 260 CURVE SMOOTH",
"105 122 LINE SMOOTH",
"105 101 OFFCURVE",
"104 86 OFFCURVE",
"101 62 CURVE",
"79 55 OFFCURVE",
"46 48 OFFCURVE",
"17 45 CURVE",
"17 28 OFFCURVE",
"20 6 OFFCURVE",
"24 -2 CURVE",
"63 -2 OFFCURVE",
"108 0 OFFCURVE",
"150 0 CURVE SMOOTH",
"175 0 OFFCURVE",
"240 0 OFFCURVE",
"267 -2 CURVE",
"272 7 OFFCURVE",
"274 29 OFFCURVE",
"274 45 CURVE",
"255 53 OFFCURVE",
"224 60 OFFCURVE",
"196 64 CURVE",
"193 89 OFFCURVE",
"192 114 OFFCURVE",
"192 143 CURVE SMOOTH",
"192 260 LINE SMOOTH",
"192 299 OFFCURVE",
"191 349 OFFCURVE",
"191 385 CURVE",
"224 408 OFFCURVE",
"275 433 OFFCURVE",
"324 433 CURVE SMOOTH",
"407 433 OFFCURVE",
"419 375 OFFCURVE",
"419 297 CURVE SMOOTH",
"419 122 LINE SMOOTH",
"419 101 OFFCURVE",
"418 86 OFFCURVE",
"415 62 CURVE",
"394 55 OFFCURVE",
"360 48 OFFCURVE",
"332 45 CURVE",
"332 28 OFFCURVE",
"335 6 OFFCURVE",
"339 -2 CURVE",
"378 -2 OFFCURVE",
"422 0 OFFCURVE",
"465 0 CURVE SMOOTH",
"490 0 OFFCURVE",
"554 0 OFFCURVE",
"582 -2 CURVE",
"587 7 OFFCURVE",
"589 29 OFFCURVE",
"589 45 CURVE",
"570 53 OFFCURVE",
"539 60 OFFCURVE",
"510 64 CURVE",
"508 89 OFFCURVE",
"507 114 OFFCURVE",
"507 143 CURVE SMOOTH",
"507 338 LINE SMOOTH",
"507 454 OFFCURVE",
"454 505 OFFCURVE",
"363 505 CURVE SMOOTH",
"296 505 OFFCURVE",
"235 472 OFFCURVE",
"187 433 CURVE",
"182 460 OFFCURVE",
"176 489 OFFCURVE",
"172 502 CURVE"
);
}
);
};
components = (
{
alignment = -1;
name = n_bow;
transform = "{1, 0, 0, 1, -2, 0}";
},
{
alignment = -1;
name = n_stem;
transform = "{1, 0, 0, 1, -5, 0}";
}
);
guideLines = (
{
position = "{75, 509}";
},
{
position = "{-1160, 440}";
}
);
layerId = "1B5E7594-BD1E-41E1-80E1-0DE241437139";
width = 603;
},
{
associatedMasterId = "1B5E7594-BD1E-41E1-80E1-0DE241437139";
background = {
components = (
{
name = p;
transform = "{1, 0, 0, 1, 20, 0}";
}
);
};
guideLines = (
{
position = "{85, 509}";
}
);
layerId = "7CB3E3CD-98EF-4B4D-8995-BA174603F5BC";
name = "Mar 22 18, 18:53";
paths = (
{
closed = 1;
nodes = (
"77 488 OFFCURVE",
"121 495 OFFCURVE",
"167 504 CURVE",
"176 498 LINE",
"176 428 LINE",
"179 410 LINE",
"179 80 LINE SMOOTH",
"179 43 OFFCURVE",
"189 34 OFFCURVE",
"265 31 CURVE",
"265 -4 LINE",
"147 0 LINE",
"29 -4 LINE",
"29 31 LINE",
"68 33 LINE SMOOTH",
"97 34 OFFCURVE",
"109 47 OFFCURVE",
"109 74 CURVE SMOOTH",
"111 396 LINE SMOOTH",
"111 418 OFFCURVE",
"106 443 OFFCURVE",
"73 446 CURVE SMOOTH",
"29 450 LINE",
"29 483 LINE"
);
},
{
closed = 1;
nodes = (
"316 533 OFFCURVE",
"477 555 OFFCURVE",
"476 360 CURVE SMOOTH",
"474 69 LINE SMOOTH",
"474 46 OFFCURVE",
"490 34 OFFCURVE",
"512 33 CURVE SMOOTH",
"560 31 LINE",
"560 -4 LINE",
"447 0 LINE",
"324 -4 LINE",
"324 31 LINE",
"398 34 OFFCURVE",
"410 45 OFFCURVE",
"410 82 CURVE SMOOTH",
"410 339 LINE SMOOTH",
"410 458 OFFCURVE",
"359 476 OFFCURVE",
"169 396 CURVE",
"163 428 LINE"
);
}
);
width = 576;
},
{
associatedMasterId = "5A1ECF60-5C3D-4C60-84B4-C69E600E0422";
background = {
components = (
{
name = p;
transform = "{1, 0, 0, 1, 9, 0}";
}
);
};
guideLines = (
{
position = "{851, 428}";
},
{
angle = 71;
position = "{639, 174}";
},
{
position = "{911, 515}";
}
);
layerId = "E50B2AD7-6AE8-421B-A2EB-50705AFAFDEA";
name = "Mar 22 18, 18:57";
paths = (
{
closed = 1;
nodes = (
"100 496 OFFCURVE",
"177 506 OFFCURVE",
"251 520 CURVE",
"269 503 LINE",
"268 432 LINE",
"275 401 LINE",
"274 127 LINE SMOOTH",
"274 98 OFFCURVE",
"286 93 OFFCURVE",
"310 90 CURVE",
"308 -3 LINE",
"168 0 LINE",
"20 -3 LINE",
"21 89 LINE",
"47 94 LINE SMOOTH",
"69 98 OFFCURVE",
"78 110 OFFCURVE",
"78 131 CURVE SMOOTH",
"78 359 LINE SMOOTH",
"78 382 OFFCURVE",
"67 399 OFFCURVE",
"47 401 CURVE SMOOTH",
"20 404 LINE",
"20 492 LINE"
);
},
{
closed = 1;
nodes = (
"390 549 OFFCURVE",
"562 559 OFFCURVE",
"561 408 CURVE SMOOTH",
"560 127 LINE SMOOTH",
"560 100 OFFCURVE",
"575 91 OFFCURVE",
"592 90 CURVE SMOOTH",
"615 88 LINE",
"615 -4 LINE",
"468 0 LINE",
"330 -4 LINE",
"332 90 LINE",
"349 92 OFFCURVE",
"362 94 OFFCURVE",
"362 130 CURVE SMOOTH",
"361 319 LINE",
"361 382 OFFCURVE",
"335 411 OFFCURVE",
"211 338 CURVE",
"196 398 LINE"
);
}
);
width = 622;
}
);
unicode = 006E;
},
{
glyphname = n_bow;
lastChange = "2018-03-25 14:05:53 +0000";
layers = (
{
layerId = "1B5E7594-BD1E-41E1-80E1-0DE241437139";
paths = (
{
closed = 1;
nodes = (
"215 472 OFFCURVE",
"280 508 OFFCURVE",
"361 508 CURVE SMOOTH",
"444 508 OFFCURVE",
"500 453 OFFCURVE",
"499 360 CURVE SMOOTH",
"497 69 LINE SMOOTH",
"497 46 OFFCURVE",
"513 34 OFFCURVE",
"535 33 CURVE SMOOTH",
"583 31 LINE",
"583 -4 LINE",
"470 0 LINE",
"347 -4 LINE",
"347 31 LINE",
"421 34 OFFCURVE",
"433 45 OFFCURVE",
"433 82 CURVE SMOOTH",
"433 363 LINE SMOOTH",
"433 440 OFFCURVE",
"352 505 OFFCURVE",
"159 394 CURVE",
"163 426 LINE"
);
}
);
width = 576;
},
{
layerId = "5A1ECF60-5C3D-4C60-84B4-C69E600E0422";
paths = (
{
closed = 1;
nodes = (
"287 488 OFFCURVE",
"359 524 OFFCURVE",
"422 524 CURVE SMOOTH",
"525 524 OFFCURVE",
"567 457 OFFCURVE",
"567 374 CURVE SMOOTH",
"566 127 LINE SMOOTH",
"566 100 OFFCURVE",
"581 91 OFFCURVE",
"598 90 CURVE SMOOTH",
"621 88 LINE",
"621 -4 LINE",
"474 0 LINE",
"336 -4 LINE",
"338 90 LINE",
"355 92 OFFCURVE",
"368 94 OFFCURVE",
"368 130 CURVE SMOOTH",
"367 313 LINE SMOOTH",
"367 376 OFFCURVE",
"332 419 OFFCURVE",
"233 336 CURVE",
"244 402 LINE"
);
}
);
width = 622;
}
);
},
{
glyphname = n_stem;
lastChange = "2018-03-27 18:11:41 +0000";
layers = (
{
layerId = "1B5E7594-BD1E-41E1-80E1-0DE241437139";
paths = (
{
closed = 1;
nodes = (
"93 483 OFFCURVE",
"127 494 OFFCURVE",
"173 506 CURVE",
"182 500 LINE",
"182 428 LINE",
"185 410 LINE",
"185 80 LINE SMOOTH",
"185 43 OFFCURVE",
"195 34 OFFCURVE",
"271 31 CURVE",
"271 -4 LINE",
"153 0 LINE",
"35 -4 LINE",
"35 31 LINE",
"74 33 LINE SMOOTH",
"103 34 OFFCURVE",
"115 47 OFFCURVE",
"115 74 CURVE SMOOTH",
"117 384 LINE SMOOTH",
"117 406 OFFCURVE",
"116 436 OFFCURVE",
"83 439 CURVE SMOOTH",
"35 443 LINE",
"35 471 LINE"
);
}
);
width = 619;
},
{
layerId = "5A1ECF60-5C3D-4C60-84B4-C69E600E0422";
paths = (
{
closed = 1;
nodes = (
"100 499 OFFCURVE",
"177 509 OFFCURVE",
"251 523 CURVE",
"269 506 LINE",
"268 435 LINE",
"275 404 LINE",
"274 127 LINE SMOOTH",
"274 98 OFFCURVE",
"286 93 OFFCURVE",
"310 90 CURVE",
"308 -3 LINE",
"168 0 LINE",
"20 -3 LINE",
"21 89 LINE",
"47 94 LINE SMOOTH",
"69 98 OFFCURVE",
"78 110 OFFCURVE",
"78 131 CURVE SMOOTH",
"78 362 LINE SMOOTH",
"78 385 OFFCURVE",
"67 402 OFFCURVE",
"47 404 CURVE SMOOTH",
"20 407 LINE",
"20 495 LINE"
);
}
);
width = 636;
}
);
},
{
color = 1;
glyphname = o;
lastChange = "2018-03-27 19:03:18 +0000";
layers = (
{
background = {
paths = (
{
closed = 1;
nodes = (
"370 442 OFFCURVE",
"410 318 OFFCURVE",
"410 228 CURVE SMOOTH",
"410 140 OFFCURVE",
"366 84 OFFCURVE",
"356 76 CURVE",
"344 63 OFFCURVE",
"306 55 OFFCURVE",
"284 55 CURVE SMOOTH",
"171 55 OFFCURVE",
"131 180 OFFCURVE",
"131 270 CURVE SMOOTH",
"131 356 OFFCURVE",
"175 412 OFFCURVE",
"185 421 CURVE SMOOTH",
"198 432 OFFCURVE",
"235 442 OFFCURVE",
"257 442 CURVE SMOOTH"
);
},
{
closed = 1;
nodes = (
"128 512 OFFCURVE",
"41 368 OFFCURVE",
"41 240 CURVE SMOOTH",
"41 92 OFFCURVE",
"115 -15 OFFCURVE",
"264 -15 CURVE SMOOTH",
"413 -15 OFFCURVE",
"500 129 OFFCURVE",
"500 257 CURVE SMOOTH",
"500 402 OFFCURVE",
"429 512 OFFCURVE",
"277 512 CURVE SMOOTH"
);
}
);
};
guideLines = (
{
position = "{880, 505}";
}
);
layerId = "1B5E7594-BD1E-41E1-80E1-0DE241437139";
paths = (
{
closed = 1;
nodes = (
"403 -14 OFFCURVE",
"499 95 OFFCURVE",
"500 257 CURVE SMOOTH",
"501 402 OFFCURVE",
"404 511 OFFCURVE",
"273 511 CURVE SMOOTH",
"141 511 OFFCURVE",
"45 402 OFFCURVE",
"44 257 CURVE SMOOTH",
"43 95 OFFCURVE",
"136 -14 OFFCURVE",
"271 -14 CURVE SMOOTH"
);
},
{
closed = 1;
nodes = (
"163 31 OFFCURVE",
"122 138 OFFCURVE",
"122 257 CURVE SMOOTH",
"122 261 OFFCURVE",
"122 264 OFFCURVE",
"122 268 CURVE SMOOTH",
"122 363 OFFCURVE",
"172 466 OFFCURVE",
"273 466 CURVE SMOOTH",
"377 466 OFFCURVE",
"425 371 OFFCURVE",
"425 269 CURVE SMOOTH",
"425 265 OFFCURVE",
"425 261 OFFCURVE",
"425 257 CURVE SMOOTH",
"425 138 OFFCURVE",
"380 31 OFFCURVE",
"271 31 CURVE SMOOTH"
);
}
);
width = 533;
},
{
background = {
paths = (
{
closed = 1;
nodes = (
"472 -13 OFFCURVE",
"569 79 OFFCURVE",
"571 259 CURVE SMOOTH",
"573 431 OFFCURVE",
"481 519 OFFCURVE",
"301 518 CURVE SMOOTH",
"122 517 OFFCURVE",
"30 428 OFFCURVE",
"30 259 CURVE SMOOTH",
"30 79 OFFCURVE",
"118 -13 OFFCURVE",
"297 -13 CURVE SMOOTH"
);
},
{
closed = 1;
nodes = (
"340 419 OFFCURVE",
"347 395 OFFCURVE",
"347 369 CURVE SMOOTH",
"347 345 OFFCURVE",
"347 162 OFFCURVE",
"347 149 CURVE SMOOTH",
"347 115 OFFCURVE",
"339 80 OFFCURVE",
"300 80 CURVE SMOOTH",
"260 80 OFFCURVE",
"254 115 OFFCURVE",
"254 149 CURVE SMOOTH",
"254 163 OFFCURVE",
"254 346 OFFCURVE",
"254 369 CURVE SMOOTH",
"254 395 OFFCURVE",
"259 419 OFFCURVE",
"300 419 CURVE SMOOTH"
);
}
);
};
guideLines = (
{
position = "{1005, 517}";
},
{
position = "{1010, 421}";
},
{
angle = -0.1936;
position = "{-291, 525}";
},
{
position = "{-593, -16}";
}
);
layerId = "5A1ECF60-5C3D-4C60-84B4-C69E600E0422";
paths = (
{
closed = 1;
nodes = (
"472 -16 OFFCURVE",
"569 73 OFFCURVE",
"571 257 CURVE SMOOTH",
"573 434 OFFCURVE",
"481 524 OFFCURVE",
"301 523 CURVE SMOOTH",
"122 522 OFFCURVE",
"30 431 OFFCURVE",
"30 257 CURVE SMOOTH",
"30 73 OFFCURVE",
"118 -16 OFFCURVE",
"297 -16 CURVE SMOOTH"
);
},
{
closed = 1;
nodes = (
"261 79 OFFCURVE",
"254 119 OFFCURVE",
"254 145 CURVE SMOOTH",
"254 219 OFFCURVE",
"254 293 OFFCURVE",
"254 356 CURVE SMOOTH",
"254 390 OFFCURVE",
"262 425 OFFCURVE",
"301 425 CURVE SMOOTH",
"341 425 OFFCURVE",
"347 390 OFFCURVE",
"347 356 CURVE SMOOTH",
"347 292 OFFCURVE",
"347 218 OFFCURVE",
"347 145 CURVE SMOOTH",
"347 119 OFFCURVE",
"342 79 OFFCURVE",
"301 79 CURVE SMOOTH"
);
}
);
width = 601;
},
{
associatedMasterId = "1B5E7594-BD1E-41E1-80E1-0DE241437139";
background = {
paths = (
{
closed = 1;
nodes = (
"370 442 OFFCURVE",
"410 318 OFFCURVE",
"410 228 CURVE SMOOTH",
"410 140 OFFCURVE",
"366 84 OFFCURVE",
"356 76 CURVE",
"344 63 OFFCURVE",
"306 55 OFFCURVE",
"284 55 CURVE SMOOTH",
"171 55 OFFCURVE",
"131 180 OFFCURVE",
"131 270 CURVE SMOOTH",
"131 356 OFFCURVE",
"175 412 OFFCURVE",
"185 421 CURVE SMOOTH",
"198 432 OFFCURVE",
"235 442 OFFCURVE",
"257 442 CURVE SMOOTH"
);
},
{
closed = 1;
nodes = (
"128 512 OFFCURVE",
"41 368 OFFCURVE",
"41 240 CURVE SMOOTH",
"41 92 OFFCURVE",
"115 -15 OFFCURVE",
"264 -15 CURVE SMOOTH",
"413 -15 OFFCURVE",
"500 129 OFFCURVE",
"500 257 CURVE SMOOTH",
"500 402 OFFCURVE",
"429 512 OFFCURVE",
"277 512 CURVE SMOOTH"
);
}
);
};
guideLines = (
{
position = "{880, 505}";
}
);
layerId = "16BCF477-BA3F-4908-99F5-40B939A3FCF6";
name = "Mar 27 18, 19:59";
paths = (
{
closed = 1;
nodes = (
"401 -14 OFFCURVE",
"497 95 OFFCURVE",
"498 257 CURVE SMOOTH",
"499 402 OFFCURVE",
"402 511 OFFCURVE",
"265 511 CURVE SMOOTH",
"127 511 OFFCURVE",
"31 402 OFFCURVE",
"30 257 CURVE SMOOTH",
"29 95 OFFCURVE",
"122 -14 OFFCURVE",
"263 -14 CURVE SMOOTH"
);
},
{
closed = 1;
nodes = (
"149 31 OFFCURVE",
"109 138 OFFCURVE",
"109 257 CURVE SMOOTH",
"109 261 OFFCURVE",
"109 264 OFFCURVE",
"109 268 CURVE SMOOTH",
"112 363 OFFCURVE",
"158 466 OFFCURVE",
"265 466 CURVE SMOOTH",
"375 466 OFFCURVE",
"421 371 OFFCURVE",
"421 269 CURVE SMOOTH",
"421 265 OFFCURVE",
"421 261 OFFCURVE",
"421 257 CURVE SMOOTH",
"421 138 OFFCURVE",
"378 31 OFFCURVE",
"263 31 CURVE SMOOTH"
);
}
);
width = 533;
}
);
unicode = 006F;
},
{
color = 1;
glyphname = p;
lastChange = "2018-03-27 19:01:51 +0000";
layers = (
{
components = (
{
name = _part_bowl;
transform = "{1, 0, 0, 1, 1, 0}";
}
);
guideLines = (
{
position = "{834, -183}";
},
{
position = "{164, 446}";
},
{
position = "{-451, -11}";
},
{
position = "{162, 511}";
}
);
layerId = "1B5E7594-BD1E-41E1-80E1-0DE241437139";
paths = (
{
closed = 1;
nodes = (
"9 471 LINE",
"67 483 OFFCURVE",
"101 494 OFFCURVE",
"147 506 CURVE",
"156 500 LINE",
"156 428 LINE",
"159 410 LINE",
"159 -117 LINE SMOOTH",
"159 -145 OFFCURVE",
"168 -161 OFFCURVE",
"201 -163 CURVE SMOOTH",
"245 -166 LINE",
"245 -201 LINE",
"127 -197 LINE",
"9 -201 LINE",
"9 -166 LINE",
"48 -164 LINE SMOOTH",
"77 -163 OFFCURVE",
"89 -150 OFFCURVE",
"89 -123 CURVE SMOOTH",
"91 384 LINE SMOOTH",
"91 406 OFFCURVE",
"90 436 OFFCURVE",
"57 439 CURVE SMOOTH",
"9 443 LINE"
);
}
);
width = 552;
},
{
background = {
components = (
{
name = n;
transform = "{1, 0, 0, 1, -7, 0}";
}
);
};
components = (
{
name = _part_bowl;
piece = {
"d,q" = 1;
};
transform = "{1, 0, 0, 1, 25, 7}";
}
);
layerId = "5A1ECF60-5C3D-4C60-84B4-C69E600E0422";
paths = (
{
closed = 1;
nodes = (
"7 495 LINE",
"86 497 OFFCURVE",
"171 509 OFFCURVE",
"244 524 CURVE",
"261 507 LINE",
"260 439 LINE",
"269 399 LINE",
"268 -80 LINE SMOOTH",
"268 -98 OFFCURVE",
"281 -110 OFFCURVE",
"311 -112 CURVE SMOOTH",
"342 -114 LINE",
"342 -204 LINE",
"169 -200 LINE",
"9 -204 LINE",
"9 -114 LINE",
"37 -110 LINE SMOOTH",
"55 -107 OFFCURVE",
"65 -94 OFFCURVE",
"65 -72 CURVE SMOOTH",
"65 361 LINE SMOOTH",
"65 382 OFFCURVE",
"57 401 OFFCURVE",
"37 403 CURVE SMOOTH",
"7 406 LINE"
);
}
);
width = 611;
}
);
rightMetricsKey = o;
unicode = 0070;
},
{
color = 1;
glyphname = q;
lastChange = "2018-03-25 18:30:13 +0000";
layers = (
{
background = {
components = (
{
name = b;
transform = "{-1, 0, 0, -1, 560, 499}";
}
);
};
components = (
{
name = _part_bowl;
transform = "{-1, 0, 0, -1, 546, 499}";
}
);
layerId = "1B5E7594-BD1E-41E1-80E1-0DE241437139";
paths = (
{
closed = 1;
nodes = (
"306 -161 LINE",
"360 -157 LINE SMOOTH",
"383 -155 OFFCURVE",
"394 -140 OFFCURVE",
"394 -116 CURVE SMOOTH",
"394 402 LINE SMOOTH",
"394 434 OFFCURVE",
"420 480 OFFCURVE",
"448 506 CURVE",
"480 491 LINE",
"480 480 LINE",
"463 440 OFFCURVE",
"457 409 OFFCURVE",
"457 365 CURVE SMOOTH",
"459 -118 LINE SMOOTH",
"459 -143 OFFCURVE",
"470 -157 OFFCURVE",
"491 -159 CURVE SMOOTH",
"530 -162 LINE",
"530 -204 LINE",
"422 -200 LINE",
"306 -204 LINE"
);
}
);
width = 540;
},
{
associatedMasterId = "5A1ECF60-5C3D-4C60-84B4-C69E600E0422";
guideLines = (
{
position = "{-219, 516}";
}
);
layerId = "8D1CA527-C9E7-4B61-BD44-A1816776B035";
name = "Jan 1 18, 16:39";
paths = (
{
closed = 1;
nodes = (
"245 -112 LINE",
"293 -107 LINE SMOOTH",
"321 -104 OFFCURVE",
"332 -80 OFFCURVE",
"332 -49 CURVE SMOOTH",
"330 421 LINE",
"363 396 LINE",
"448 516 LINE",
"526 516 LINE",
"525 -65 LINE SMOOTH",
"525 -88 OFFCURVE",
"537 -102 OFFCURVE",
"559 -106 CURVE SMOOTH",
"583 -110 LINE",
"581 -203 LINE",
"420 -200 LINE",
"244 -204 LINE"
);
},
{
closed = 1;
nodes = (
"389 146 LINE",
"349 64 OFFCURVE",
"285 -8 OFFCURVE",
"191 -8 CURVE SMOOTH",
"78 -8 OFFCURVE",
"15 91 OFFCURVE",
"15 236 CURVE SMOOTH",
"15 410 OFFCURVE",
"104 520 OFFCURVE",
"235 520 CURVE SMOOTH",
"355 520 OFFCURVE",
"401 481 OFFCURVE",
"433 391 CURVE",
"347 378 LINE",
"332 394 OFFCURVE",
"313 403 OFFCURVE",
"292 402 CURVE SMOOTH",
"259 400 OFFCURVE",
"240 366 OFFCURVE",
"238 279 CURVE SMOOTH",
"235 169 OFFCURVE",
"252 125 OFFCURVE",
"290 125 CURVE SMOOTH",
"311 125 OFFCURVE",
"330 132 OFFCURVE",
"347 145 CURVE"
);
}
);
width = 583;
},
{
background = {
components = (
{
name = b;
transform = "{-1, 0, 0, -1, 595, 502}";
}
);
};
components = (
{
name = _part_bowl;
piece = {
"d,q" = 1;
};
transform = "{-1, 0, 0, -1, 586, 505}";
}
);
guideLines = (
{
position = "{-204, 516}";
}
);
layerId = "5A1ECF60-5C3D-4C60-84B4-C69E600E0422";
paths = (
{
closed = 1;
nodes = (
"260 -112 LINE",
"308 -107 LINE SMOOTH",
"336 -104 OFFCURVE",
"347 -80 OFFCURVE",
"347 -49 CURVE SMOOTH",
"349 384 LINE SMOOTH",
"349 418 OFFCURVE",
"416 514 OFFCURVE",
"493 523 CURVE",
"578 481 LINE",
"578 454 LINE",
"546 406 OFFCURVE",
"542 358 OFFCURVE",
"542 286 CURVE SMOOTH",
"540 -65 LINE SMOOTH",
"540 -88 OFFCURVE",
"552 -102 OFFCURVE",
"574 -106 CURVE SMOOTH",
"598 -110 LINE",
"596 -203 LINE",
"435 -200 LINE",
"259 -204 LINE"
);
}
);
width = 592;
}
);
leftMetricsKey = o;
unicode = 0071;
},
{
color = 1;
glyphname = r;
lastChange = "2018-03-27 18:43:19 +0000";
layers = (
{
background = {
paths = (
{
closed = 1;
nodes = (
"111 498 OFFCURVE",
"40 478 OFFCURVE",
"0 461 CURVE",
"-1 448 OFFCURVE",
"0 435 OFFCURVE",
"6 424 CURVE",
"36 420 OFFCURVE",
"66 416 OFFCURVE",
"96 407 CURVE",
"96 407 OFFCURVE",
"101 334 OFFCURVE",
"101 263 CURVE SMOOTH",
"101 122 LINE SMOOTH",
"101 101 OFFCURVE",
"100 86 OFFCURVE",
"97 63 CURVE",
"76 56 OFFCURVE",
"42 48 OFFCURVE",
"13 45 CURVE",
"13 28 OFFCURVE",
"16 6 OFFCURVE",
"20 -2 CURVE",
"63 -2 OFFCURVE",
"104 0 OFFCURVE",
"147 0 CURVE SMOOTH",
"195 0 OFFCURVE",
"252 0 OFFCURVE",
"309 -2 CURVE",
"314 7 OFFCURVE",
"316 29 OFFCURVE",
"316 45 CURVE",
"283 55 OFFCURVE",
"232 62 OFFCURVE",
"192 64 CURVE",
"190 89 OFFCURVE",
"189 114 OFFCURVE",
"189 143 CURVE SMOOTH",
"189 346 LINE",
"231 415 OFFCURVE",
"267 428 OFFCURVE",
"306 428 CURVE SMOOTH",
"318 428 OFFCURVE",
"326 427 OFFCURVE",
"333 426 CURVE",
"340 406 OFFCURVE",
"344 375 OFFCURVE",
"346 352 CURVE",
"364 345 OFFCURVE",
"382 345 OFFCURVE",
"400 352 CURVE",
"414 396 OFFCURVE",
"419 432 OFFCURVE",
"419 490 CURVE",
"396 498 OFFCURVE",
"366 503 OFFCURVE",
"335 503 CURVE SMOOTH",
"269 503 OFFCURVE",
"220 455 OFFCURVE",
"186 402 CURVE",
"182 448 OFFCURVE",
"172 484 OFFCURVE",
"166 502 CURVE"
);
}
);
};
components = (
{
name = n_stem;
transform = "{1, 0, 0, 1, -5, 0}";
}
);
guideLines = (
{
position = "{2, 471}";
}
);
layerId = "1B5E7594-BD1E-41E1-80E1-0DE241437139";
paths = (
{
closed = 1;
nodes = (
"187 452 OFFCURVE",
"266 506 OFFCURVE",
"338 506 CURVE",
"350 493 LINE",
"336 424 LINE",
"323 417 LINE",
"266 445 OFFCURVE",
"242 442 OFFCURVE",
"159 393 CURVE",
"159 418 LINE"
);
},
{
closed = 1;
nodes = (
"266 31 LINE",
"294 31 LINE",
"294 -4 LINE",
"266 -4 LINE"
);
}
);
width = 385;
},
{
background = {
components = (
{
name = a;
transform = "{-1, 0, 0, 1, 550, 0}";
},
{
name = n;
}
);
};
components = (
{
name = n_stem;
}
);
layerId = "5A1ECF60-5C3D-4C60-84B4-C69E600E0422";
paths = (
{
closed = 1;
nodes = (
"263 450 OFFCURVE",
"338 537 OFFCURVE",
"448 522 CURVE",
"470 488 LINE",
"445 354 LINE",
"411 332 LINE",
"366 381 OFFCURVE",
"300 390 OFFCURVE",
"250 348 CURVE",
"235 362 LINE"
);
},
{
closed = 1;
nodes = (
"309 90 LINE",
"351 89 LINE",
"351 -4 LINE",
"308 -3 LINE"
);
}
);
width = 494;
},
{
associatedMasterId = "1B5E7594-BD1E-41E1-80E1-0DE241437139";
background = {
paths = (
{
closed = 1;
nodes = (
"111 498 OFFCURVE",
"40 478 OFFCURVE",
"0 461 CURVE",
"-1 448 OFFCURVE",
"0 435 OFFCURVE",
"6 424 CURVE",
"36 420 OFFCURVE",
"66 416 OFFCURVE",
"96 407 CURVE",
"96 407 OFFCURVE",
"101 334 OFFCURVE",
"101 263 CURVE SMOOTH",
"101 122 LINE SMOOTH",
"101 101 OFFCURVE",
"100 86 OFFCURVE",
"97 63 CURVE",
"76 56 OFFCURVE",
"42 48 OFFCURVE",
"13 45 CURVE",
"13 28 OFFCURVE",
"16 6 OFFCURVE",
"20 -2 CURVE",
"63 -2 OFFCURVE",
"104 0 OFFCURVE",
"147 0 CURVE SMOOTH",
"195 0 OFFCURVE",
"252 0 OFFCURVE",
"309 -2 CURVE",
"314 7 OFFCURVE",
"316 29 OFFCURVE",
"316 45 CURVE",
"283 55 OFFCURVE",
"232 62 OFFCURVE",
"192 64 CURVE",
"190 89 OFFCURVE",
"189 114 OFFCURVE",
"189 143 CURVE SMOOTH",
"189 346 LINE",
"231 415 OFFCURVE",
"267 428 OFFCURVE",
"306 428 CURVE SMOOTH",
"318 428 OFFCURVE",
"326 427 OFFCURVE",
"333 426 CURVE",
"340 406 OFFCURVE",
"344 375 OFFCURVE",
"346 352 CURVE",
"364 345 OFFCURVE",
"382 345 OFFCURVE",
"400 352 CURVE",
"414 396 OFFCURVE",
"419 432 OFFCURVE",
"419 490 CURVE",
"396 498 OFFCURVE",
"366 503 OFFCURVE",
"335 503 CURVE SMOOTH",
"269 503 OFFCURVE",
"220 455 OFFCURVE",
"186 402 CURVE",
"182 448 OFFCURVE",
"172 484 OFFCURVE",
"166 502 CURVE"
);
}
);
};
components = (
{
name = n_stem;
transform = "{1, 0, 0, 1, -5, 0}";
}
);
guideLines = (
{
position = "{-4, 507}";
}
);
layerId = "7EAE339E-CC37-4AA1-B208-2F06C651374B";
name = "Mar 27 18, 19:04";
paths = (
{
closed = 1;
nodes = (
"195 456 OFFCURVE",
"294 530 OFFCURVE",
"399 497 CURVE",
"409 485 LINE",
"393 368 LINE",
"349 368 LINE",
"355 428 OFFCURVE",
"348 449 OFFCURVE",
"311 444 CURVE SMOOTH",
"282 440 OFFCURVE",
"190 407 OFFCURVE",
"167 376 CURVE",
"159 404 LINE"
);
},
{
closed = 1;
nodes = (
"266 31 LINE",
"294 31 LINE",
"294 -4 LINE",
"266 -4 LINE"
);
}
);
width = 409;
},
{
associatedMasterId = "5A1ECF60-5C3D-4C60-84B4-C69E600E0422";
background = {
components = (
{
name = n;
transform = "{1, 0, 0, 1, -3, 0}";
}
);
};
components = (
{
name = n_stem;
}
);
layerId = "1BAAD129-9B66-4A68-A244-94B0D5C0DF73";
name = "Mar 27 18, 19:08";
paths = (
{
closed = 1;
nodes = (
"263 450 OFFCURVE",
"360 529 OFFCURVE",
"470 514 CURVE",
"488 496 LINE",
"459 277 LINE",
"345 277 LINE",
"352 343 OFFCURVE",
"343 360 OFFCURVE",
"316 360 CURVE SMOOTH",
"284 360 OFFCURVE",
"270 349 OFFCURVE",
"250 332 CURVE",
"235 362 LINE"
);
},
{
closed = 1;
nodes = (
"309 90 LINE",
"351 89 LINE",
"351 -4 LINE",
"308 -3 LINE"
);
}
);
width = 494;
}
);
leftMetricsKey = n;
unicode = 0072;
},
{
color = 1;
glyphname = s;
lastChange = "2018-03-27 18:41:32 +0000";
layers = (
{
associatedMasterId = "5A1ECF60-5C3D-4C60-84B4-C69E600E0422";
background = {
components = (
{
name = c;
transform = "{-1, 0, 0, -1, 485, 504}";
}
);
};
guideLines = (
{
position = "{-1138, -13}";
}
);
layerId = "1628EC35-BD20-450B-A095-3A2CE14C16B3";
name = "Mar 22 18, 20:41";
paths = (
{
closed = 1;
nodes = (
"38 475 OFFCURVE",
"150 514 OFFCURVE",
"296 517 CURVE SMOOTH",
"349 518 OFFCURVE",
"406 512 OFFCURVE",
"463 499 CURVE",
"483 471 LINE",
"455 327 LINE",
"324 327 LINE",
"334 385 OFFCURVE",
"321 414 OFFCURVE",
"268 414 CURVE SMOOTH",
"244 414 OFFCURVE",
"220 399 OFFCURVE",
"220 368 CURVE SMOOTH",
"220 340 OFFCURVE",
"260 329 OFFCURVE",
"319 315 CURVE SMOOTH",
"453 283 OFFCURVE",
"509 259 OFFCURVE",
"506 160 CURVE SMOOTH",
"503 51 OFFCURVE",
"415 -16 OFFCURVE",
"227 -16 CURVE SMOOTH",
"161 -16 OFFCURVE",
"75 -6 OFFCURVE",
"18 15 CURVE",
"54 167 LINE",
"94 180 LINE",
"114 155 OFFCURVE",
"181 91 OFFCURVE",
"243 91 CURVE SMOOTH",
"279 91 OFFCURVE",
"311 102 OFFCURVE",
"311 125 CURVE SMOOTH",
"311 150 OFFCURVE",
"275 158 OFFCURVE",
"211 171 CURVE SMOOTH",
"100 194 OFFCURVE",
"27 239 OFFCURVE",
"32 345 CURVE SMOOTH"
);
}
);
width = 515;
},
{
associatedMasterId = "5A1ECF60-5C3D-4C60-84B4-C69E600E0422";
background = {
components = (
{
name = n;
transform = "{1, 0, 0, 1, -42, 0}";
}
);
};
guideLines = (
{
position = "{-1138, -13}";
}
);
layerId = "5584C09B-412C-40C0-9745-EF0EBACB3502";
name = "Mar 24 18, 11:08";
paths = (
{
closed = 1;
nodes = (
"51 478 OFFCURVE",
"151 514 OFFCURVE",
"297 516 CURVE SMOOTH",
"366 517 OFFCURVE",
"439 512 OFFCURVE",
"496 499 CURVE",
"516 471 LINE",
"488 327 LINE",
"342 327 LINE",
"352 385 OFFCURVE",
"331 412 OFFCURVE",
"268 412 CURVE SMOOTH",
"244 412 OFFCURVE",
"224 401 OFFCURVE",
"224 370 CURVE SMOOTH",
"224 342 OFFCURVE",
"260 324 OFFCURVE",
"319 313 CURVE SMOOTH",
"462 287 OFFCURVE",
"523 258 OFFCURVE",
"520 159 CURVE SMOOTH",
"517 50 OFFCURVE",
"431 -16 OFFCURVE",
"227 -16 CURVE SMOOTH",
"161 -16 OFFCURVE",
"75 -6 OFFCURVE",
"18 15 CURVE",
"54 167 LINE",
"94 180 LINE",
"114 155 OFFCURVE",
"181 98 OFFCURVE",
"243 98 CURVE SMOOTH",
"279 98 OFFCURVE",
"305 102 OFFCURVE",
"305 125 CURVE SMOOTH",
"305 149 OFFCURVE",
"275 158 OFFCURVE",
"211 171 CURVE SMOOTH",
"100 194 OFFCURVE",
"25 250 OFFCURVE",
"37 355 CURVE SMOOTH"
);
}
);
width = 515;
},
{
background = {
components = (
{
name = o;
transform = "{1, 0, 0, 1, -60, 0}";
}
);
};
guideLines = (
{
position = "{-1139, -13}";
}
);
layerId = "5A1ECF60-5C3D-4C60-84B4-C69E600E0422";
paths = (
{
closed = 1;
nodes = (
"40 477 OFFCURVE",
"149 519 OFFCURVE",
"263 519 CURVE SMOOTH",
"348 519 OFFCURVE",
"385 512 OFFCURVE",
"442 499 CURVE",
"462 471 LINE",
"434 336 LINE",
"303 336 LINE",
"311 400 OFFCURVE",
"315 423 OFFCURVE",
"267 423 CURVE SMOOTH",
"238 423 OFFCURVE",
"218 408 OFFCURVE",
"218 380 CURVE SMOOTH",
"218 349 OFFCURVE",
"239 338 OFFCURVE",
"298 324 CURVE SMOOTH",
"432 292 OFFCURVE",
"488 268 OFFCURVE",
"485 160 CURVE SMOOTH",
"482 51 OFFCURVE",
"406 -14 OFFCURVE",
"226 -14 CURVE SMOOTH",
"156 -14 OFFCURVE",
"94 -9 OFFCURVE",
"37 12 CURVE",
"20 43 LINE",
"47 172 LINE",
"180 169 LINE",
"172 94 OFFCURVE",
"183 72 OFFCURVE",
"238 72 CURVE SMOOTH",
"268 72 OFFCURVE",
"290 89 OFFCURVE",
"290 115 CURVE SMOOTH",
"290 148 OFFCURVE",
"254 158 OFFCURVE",
"210 171 CURVE SMOOTH",
"101 203 OFFCURVE",
"29 246 OFFCURVE",
"34 352 CURVE SMOOTH"
);
}
);
width = 505;
},
{
associatedMasterId = "5A1ECF60-5C3D-4C60-84B4-C69E600E0422";
background = {
components = (
{
name = c;
transform = "{-1, 0, 0, -1, 485, 504}";
}
);
};
guideLines = (
{
position = "{-1138, -13}";
}
);
layerId = "9CAA8F00-B1D1-4A6B-9494-781CD8092ED6";
name = "Mar 24 18, 11:08";
paths = (
{
closed = 1;
nodes = (
"38 475 OFFCURVE",
"150 514 OFFCURVE",
"296 517 CURVE SMOOTH",
"349 518 OFFCURVE",
"406 512 OFFCURVE",
"463 499 CURVE",
"483 471 LINE",
"455 331 LINE",
"324 331 LINE",
"334 389 OFFCURVE",
"321 418 OFFCURVE",
"268 418 CURVE SMOOTH",
"244 418 OFFCURVE",
"220 403 OFFCURVE",
"220 372 CURVE SMOOTH",
"220 344 OFFCURVE",
"260 333 OFFCURVE",
"319 319 CURVE SMOOTH",
"453 287 OFFCURVE",
"509 263 OFFCURVE",
"506 160 CURVE SMOOTH",
"503 51 OFFCURVE",
"427 -16 OFFCURVE",
"227 -16 CURVE SMOOTH",
"161 -16 OFFCURVE",
"99 -11 OFFCURVE",
"42 10 CURVE",
"25 41 LINE",
"51 172 LINE",
"185 169 LINE",
"177 94 OFFCURVE",
"188 72 OFFCURVE",
"253 72 CURVE SMOOTH",
"289 72 OFFCURVE",
"311 89 OFFCURVE",
"311 115 CURVE SMOOTH",
"311 148 OFFCURVE",
"275 158 OFFCURVE",
"211 171 CURVE SMOOTH",
"100 194 OFFCURVE",
"27 239 OFFCURVE",
"32 345 CURVE SMOOTH"
);
}
);
width = 515;
},
{
background = {
paths = (
{
closed = 1;
nodes = (
"324 -13 OFFCURVE",
"402 54 OFFCURVE",
"402 139 CURVE SMOOTH",
"402 224 OFFCURVE",
"320 265 OFFCURVE",
"248 301 CURVE SMOOTH",
"192 329 OFFCURVE",
"144 354 OFFCURVE",
"144 392 CURVE SMOOTH",
"144 411 OFFCURVE",
"151 428 OFFCURVE",
"161 437 CURVE",
"168 443 OFFCURVE",
"199 453 OFFCURVE",
"235 453 CURVE SMOOTH",
"258 453 OFFCURVE",
"283 447 OFFCURVE",
"298 442 CURVE",
"307 413 OFFCURVE",
"311 388 OFFCURVE",
"315 360 CURVE",
"331 353 OFFCURVE",
"346 352 OFFCURVE",
"363 357 CURVE",
"374 392 OFFCURVE",
"377 435 OFFCURVE",
"377 481 CURVE",
"341 495 OFFCURVE",
"300 506 OFFCURVE",
"218 506 CURVE SMOOTH",
"156 506 OFFCURVE",
"53 474 OFFCURVE",
"53 372 CURVE SMOOTH",
"53 299 OFFCURVE",
"129 260 OFFCURVE",
"198 224 CURVE SMOOTH",
"255 194 OFFCURVE",
"306 168 OFFCURVE",
"306 124 CURVE SMOOTH",
"306 100 OFFCURVE",
"301 79 OFFCURVE",
"290 70 CURVE",
"276 59 OFFCURVE",
"248 48 OFFCURVE",
"217 48 CURVE SMOOTH",
"183 48 OFFCURVE",
"148 58 OFFCURVE",
"129 70 CURVE",
"115 106 OFFCURVE",
"109 139 OFFCURVE",
"106 171 CURVE",
"87 176 OFFCURVE",
"72 176 OFFCURVE",
"54 169 CURVE",
"45 123 OFFCURVE",
"44 73 OFFCURVE",
"54 22 CURVE",
"73 14 OFFCURVE",
"138 -13 OFFCURVE",
"218 -13 CURVE SMOOTH"
);
}
);
};
layerId = "1B5E7594-BD1E-41E1-80E1-0DE241437139";
paths = (
{
closed = 1;
nodes = (
"55 462 OFFCURVE",
"151 511 OFFCURVE",
"265 507 CURVE SMOOTH",
"322 505 OFFCURVE",
"354 497 OFFCURVE",
"379 488 CURVE",
"384 474 LINE",
"368 364 LINE",
"325 364 LINE",
"331 445 OFFCURVE",
"308 460 OFFCURVE",
"253 461 CURVE SMOOTH",
"179 462 OFFCURVE",
"118 426 OFFCURVE",
"117 368 CURVE SMOOTH",
"116 326 OFFCURVE",
"138 303 OFFCURVE",
"240 277 CURVE SMOOTH",
"329 254 OFFCURVE",
"408 224 OFFCURVE",
"403 138 CURVE SMOOTH",
"397 29 OFFCURVE",
"302 -13 OFFCURVE",
"209 -13 CURVE SMOOTH",
"144 -13 OFFCURVE",
"97 -4 OFFCURVE",
"49 25 CURVE",
"46 37 LINE",
"62 140 LINE",
"110 140 LINE",
"99 41 OFFCURVE",
"127 34 OFFCURVE",
"212 32 CURVE SMOOTH",
"283 30 OFFCURVE",
"337 68 OFFCURVE",
"338 121 CURVE SMOOTH",
"339 180 OFFCURVE",
"278 193 OFFCURVE",
"200 212 CURVE SMOOTH",
"122 232 OFFCURVE",
"55 268 OFFCURVE",
"55 360 CURVE SMOOTH"
);
}
);
width = 478;
},
{
associatedMasterId = "1B5E7594-BD1E-41E1-80E1-0DE241437139";
background = {
components = (
{
name = n;
transform = "{1, 0, 0, 1, -46, 0}";
}
);
};
layerId = "484AE916-5C27-450D-A540-8E5A2453657E";
name = "Mar 24 18, 13:01";
paths = (
{
closed = 1;
nodes = (
"63 459 OFFCURVE",
"151 507 OFFCURVE",
"265 507 CURVE SMOOTH",
"318 507 OFFCURVE",
"359 505 OFFCURVE",
"407 488 CURVE",
"412 474 LINE",
"397 362 LINE",
"354 362 LINE",
"360 443 OFFCURVE",
"350 461 OFFCURVE",
"253 461 CURVE SMOOTH",
"179 461 OFFCURVE",
"127 427 OFFCURVE",
"127 366 CURVE SMOOTH",
"127 320 OFFCURVE",
"171 300 OFFCURVE",
"232 286 CURVE SMOOTH",
"322 265 OFFCURVE",
"432 247 OFFCURVE",
"431 137 CURVE SMOOTH",
"430 20 OFFCURVE",
"332 -19 OFFCURVE",
"209 -15 CURVE SMOOTH",
"144 -13 OFFCURVE",
"102 -3 OFFCURVE",
"54 26 CURVE",
"51 38 LINE",
"66 141 LINE",
"114 141 LINE",
"103 42 OFFCURVE",
"116 32 OFFCURVE",
"236 29 CURVE SMOOTH",
"307 27 OFFCURVE",
"365 61 OFFCURVE",
"366 117 CURVE SMOOTH",
"367 182 OFFCURVE",
"298 196 OFFCURVE",
"220 215 CURVE SMOOTH",
"142 235 OFFCURVE",
"63 265 OFFCURVE",
"63 357 CURVE SMOOTH"
);
}
);
width = 478;
}
);
unicode = 0073;
},
{
glyphname = germandbls;
lastChange = "2018-03-25 14:20:44 +0000";
layers = (
{
background = {
components = (
{
name = s;
transform = "{1, 0, 0, 1, 203, 0}";
},
{
name = f;
transform = "{1, 0, 0, 1, 1, 0}";
},
{
name = o;
transform = "{1, 0, 0, 0.9, 75, 341}";
}
);
};
layerId = "1B5E7594-BD1E-41E1-80E1-0DE241437139";
paths = (
{
closed = 1;
nodes = (
"169 76 LINE SMOOTH",
"169 50 OFFCURVE",
"168 39 OFFCURVE",
"193 34 CURVE SMOOTH",
"223 28 LINE",
"223 -4 LINE",
"137 0 LINE",
"30 -4 LINE",
"30 25 LINE",
"69 32 LINE SMOOTH",
"93 36 OFFCURVE",
"106 50 OFFCURVE",
"106 74 CURVE SMOOTH",
"106 395 LINE SMOOTH",
"106 421 OFFCURVE",
"104 438 OFFCURVE",
"74 440 CURVE SMOOTH",
"36 442 LINE",
"36 475 LINE",
"109 482 LINE",
"109 523 OFFCURVE",
"110 555 OFFCURVE",
"110 591 CURVE SMOOTH",
"110 675 OFFCURVE",
"170 801 OFFCURVE",
"324 801 CURVE SMOOTH",
"457 801 OFFCURVE",
"507 721 OFFCURVE",
"507 648 CURVE SMOOTH",
"507 490 OFFCURVE",
"327 465 OFFCURVE",
"327 368 CURVE SMOOTH",
"327 322 OFFCURVE",
"344 300 OFFCURVE",
"434 275 CURVE SMOOTH",
"524 250 OFFCURVE",
"608 229 OFFCURVE",
"607 137 CURVE SMOOTH",
"606 29 OFFCURVE",
"500 -13 OFFCURVE",
"411 -13 CURVE SMOOTH",
"346 -13 OFFCURVE",
"304 -3 OFFCURVE",
"256 26 CURVE",
"253 38 LINE",
"268 141 LINE",
"316 141 LINE",
"305 42 OFFCURVE",
"329 34 OFFCURVE",
"412 33 CURVE SMOOTH",
"487 32 OFFCURVE",
"541 70 OFFCURVE",
"542 117 CURVE SMOOTH",
"543 177 OFFCURVE",
"494 190 OFFCURVE",
"416 211 CURVE SMOOTH",
"338 232 OFFCURVE",
"265 265 OFFCURVE",
"265 357 CURVE SMOOTH",
"265 504 OFFCURVE",
"441 496 OFFCURVE",
"441 646 CURVE SMOOTH",
"441 729 OFFCURVE",
"383 759 OFFCURVE",
"317 759 CURVE SMOOTH",
"253 759 OFFCURVE",
"170 721 OFFCURVE",
"170 563 CURVE SMOOTH"
);
}
);
width = 613;
},
{
associatedMasterId = "5A1ECF60-5C3D-4C60-84B4-C69E600E0422";
background = {
components = (
{
name = s;
transform = "{1, 0, 0, 1, 277, 0}";
}
);
};
layerId = "BFE8D0AD-B6F4-4ADA-A49F-D548B81B16FE";
name = "Jan 1 18, 16:24";
paths = (
{
closed = 1;
nodes = (
"275 -2 LINE",
"187 0 LINE",
"16 -2 LINE",
"16 90 LINE",
"38 93 LINE SMOOTH",
"64 97 OFFCURVE",
"76 110 OFFCURVE",
"76 136 CURVE SMOOTH",
"73 351 LINE SMOOTH",
"73 376 OFFCURVE",
"62 391 OFFCURVE",
"38 393 CURVE SMOOTH",
"15 395 LINE",
"15 493 LINE",
"75 498 LINE",
"75 700 OFFCURVE",
"204 803 OFFCURVE",
"405 803 CURVE SMOOTH",
"531 803 OFFCURVE",
"646 762 OFFCURVE",
"646 640 CURVE SMOOTH",
"646 490 OFFCURVE",
"470 480 OFFCURVE",
"453 418 CURVE SMOOTH",
"441 376 OFFCURVE",
"504 364 OFFCURVE",
"575 351 CURVE SMOOTH",
"714 326 OFFCURVE",
"771 264 OFFCURVE",
"762 160 CURVE SMOOTH",
"752 47 OFFCURVE",
"672 -18 OFFCURVE",
"506 -18 CURVE SMOOTH",
"405 -18 OFFCURVE",
"313 6 OFFCURVE",
"293 13 CURVE",
"317 172 LINE",
"451 169 LINE",
"443 93 OFFCURVE",
"454 79 OFFCURVE",
"514 79 CURVE SMOOTH",
"554 79 OFFCURVE",
"577 92 OFFCURVE",
"577 121 CURVE SMOOTH",
"577 167 OFFCURVE",
"517 177 OFFCURVE",
"477 186 CURVE SMOOTH",
"367 212 OFFCURVE",
"298 242 OFFCURVE",
"298 358 CURVE SMOOTH",
"298 518 OFFCURVE",
"430 487 OFFCURVE",
"430 613 CURVE SMOOTH",
"430 661 OFFCURVE",
"411 701 OFFCURVE",
"362 701 CURVE SMOOTH",
"304 701 OFFCURVE",
"270 643 OFFCURVE",
"270 520 CURVE SMOOTH",
"270 139 LINE"
);
}
);
width = 782;
},
{
associatedMasterId = "5A1ECF60-5C3D-4C60-84B4-C69E600E0422";
background = {
components = (
{
name = s;
transform = "{1, 0, 0, 1, 266, 0}";
}
);
};
layerId = "CD3B0CC0-BCE6-45B7-AEE4-647DFA9CE993";
name = "Mar 25 18, 11:37";
paths = (
{
closed = 1;
nodes = (
"270 139 LINE SMOOTH",
"271 117 OFFCURVE",
"272 96 OFFCURVE",
"273 74 CURVE SMOOTH",
"274 37 LINE",
"275 -2 LINE",
"187 0 LINE",
"16 -2 LINE",
"16 90 LINE",
"38 93 LINE SMOOTH",
"64 97 OFFCURVE",
"76 110 OFFCURVE",
"76 136 CURVE SMOOTH",
"73 351 LINE SMOOTH",
"73 376 OFFCURVE",
"62 391 OFFCURVE",
"38 393 CURVE SMOOTH",
"15 395 LINE",
"15 493 LINE",
"75 498 LINE",
"75 511 OFFCURVE",
"75 519 OFFCURVE",
"75 538 CURVE SMOOTH",
"75 706 OFFCURVE",
"224 803 OFFCURVE",
"405 803 CURVE SMOOTH",
"531 803 OFFCURVE",
"646 762 OFFCURVE",
"646 640 CURVE SMOOTH",
"646 448 OFFCURVE",
"481 488 OFFCURVE",
"481 377 CURVE SMOOTH",
"481 355 OFFCURVE",
"505 336 OFFCURVE",
"583 315 CURVE SMOOTH",
"689 287 OFFCURVE",
"753 266 OFFCURVE",
"753 162 CURVE SMOOTH",
"753 49 OFFCURVE",
"652 -18 OFFCURVE",
"506 -18 CURVE SMOOTH",
"425 -18 OFFCURVE",
"349 -2 OFFCURVE",
"312 7 CURVE",
"296 24 LINE",
"317 172 LINE",
"451 169 LINE",
"443 93 OFFCURVE",
"463 70 OFFCURVE",
"503 70 CURVE SMOOTH",
"543 70 OFFCURVE",
"557 92 OFFCURVE",
"557 114 CURVE SMOOTH",
"557 152 OFFCURVE",
"491 166 OFFCURVE",
"451 180 CURVE SMOOTH",
"362 212 OFFCURVE",
"294 242 OFFCURVE",
"298 358 CURVE SMOOTH",
"302 474 OFFCURVE",
"428 457 OFFCURVE",
"430 613 CURVE SMOOTH",
"431 661 OFFCURVE",
"411 701 OFFCURVE",
"362 701 CURVE SMOOTH",
"304 701 OFFCURVE",
"270 643 OFFCURVE",
"270 520 CURVE SMOOTH"
);
}
);
width = 743;
},
{
background = {
components = (
{
name = s;
transform = "{1, 0, 0, 1, 271, 0}";
},
{
name = f;
transform = "{1, 0, 0, 1, 1, 0}";
}
);
};
layerId = "5A1ECF60-5C3D-4C60-84B4-C69E600E0422";
paths = (
{
closed = 1;
nodes = (
"275 139 LINE SMOOTH",
"276 117 OFFCURVE",
"277 96 OFFCURVE",
"278 74 CURVE SMOOTH",
"279 37 LINE",
"282 -2 LINE",
"192 0 LINE",
"21 -2 LINE",
"21 90 LINE",
"43 93 LINE SMOOTH",
"69 97 OFFCURVE",
"81 110 OFFCURVE",
"81 136 CURVE SMOOTH",
"78 351 LINE SMOOTH",
"78 376 OFFCURVE",
"67 391 OFFCURVE",
"43 393 CURVE SMOOTH",
"20 395 LINE",
"20 493 LINE",
"80 498 LINE",
"80 511 OFFCURVE",
"80 519 OFFCURVE",
"80 538 CURVE SMOOTH",
"80 706 OFFCURVE",
"192 801 OFFCURVE",
"375 803 CURVE SMOOTH",
"545 805 OFFCURVE",
"647 754 OFFCURVE",
"645 642 CURVE SMOOTH",
"643 506 OFFCURVE",
"487 463 OFFCURVE",
"487 380 CURVE SMOOTH",
"487 350 OFFCURVE",
"520 329 OFFCURVE",
"588 314 CURVE SMOOTH",
"727 281 OFFCURVE",
"757 249 OFFCURVE",
"757 161 CURVE SMOOTH",
"757 48 OFFCURVE",
"657 -18 OFFCURVE",
"511 -18 CURVE SMOOTH",
"430 -18 OFFCURVE",
"354 -2 OFFCURVE",
"317 7 CURVE",
"301 24 LINE",
"322 172 LINE",
"456 169 LINE",
"448 93 OFFCURVE",
"468 70 OFFCURVE",
"508 70 CURVE SMOOTH",
"548 70 OFFCURVE",
"562 90 OFFCURVE",
"562 119 CURVE SMOOTH",
"562 145 OFFCURVE",
"522 159 OFFCURVE",
"482 172 CURVE SMOOTH",
"375 207 OFFCURVE",
"302 234 OFFCURVE",
"306 350 CURVE SMOOTH",
"311 479 OFFCURVE",
"426 477 OFFCURVE",
"426 608 CURVE SMOOTH",
"426 679 OFFCURVE",
"409 707 OFFCURVE",
"353 707 CURVE SMOOTH",
"292 707 OFFCURVE",
"275 643 OFFCURVE",
"275 520 CURVE SMOOTH"
);
}
);
width = 748;
},
{
associatedMasterId = "5A1ECF60-5C3D-4C60-84B4-C69E600E0422";
background = {
components = (
{
name = s;
transform = "{1, 0, 0, 1, 266, 0}";
},
{
name = o;
transform = "{1, 0, 0, 1, 59, 286}";
}
);
};
layerId = "CAFA1AC4-23F6-4040-B28B-C922DCA5C4FC";
name = "Mar 25 18, 11:45";
paths = (
{
closed = 1;
nodes = (
"270 139 LINE SMOOTH",
"271 117 OFFCURVE",
"272 96 OFFCURVE",
"273 74 CURVE SMOOTH",
"274 37 LINE",
"275 -2 LINE",
"187 0 LINE",
"16 -2 LINE",
"16 90 LINE",
"38 93 LINE SMOOTH",
"64 97 OFFCURVE",
"76 110 OFFCURVE",
"76 136 CURVE SMOOTH",
"73 351 LINE SMOOTH",
"73 376 OFFCURVE",
"62 391 OFFCURVE",
"38 393 CURVE SMOOTH",
"15 395 LINE",
"15 493 LINE",
"75 498 LINE",
"75 511 OFFCURVE",
"75 519 OFFCURVE",
"75 538 CURVE SMOOTH",
"75 706 OFFCURVE",
"224 803 OFFCURVE",
"405 803 CURVE SMOOTH",
"531 803 OFFCURVE",
"646 754 OFFCURVE",
"646 642 CURVE SMOOTH",
"646 493 OFFCURVE",
"474 452 OFFCURVE",
"474 380 CURVE SMOOTH",
"474 348 OFFCURVE",
"504 332 OFFCURVE",
"583 314 CURVE SMOOTH",
"722 281 OFFCURVE",
"752 249 OFFCURVE",
"752 161 CURVE SMOOTH",
"752 48 OFFCURVE",
"652 -18 OFFCURVE",
"506 -18 CURVE SMOOTH",
"425 -18 OFFCURVE",
"349 -2 OFFCURVE",
"312 7 CURVE",
"296 24 LINE",
"317 172 LINE",
"451 169 LINE",
"443 93 OFFCURVE",
"463 70 OFFCURVE",
"503 70 CURVE SMOOTH",
"543 70 OFFCURVE",
"557 90 OFFCURVE",
"557 119 CURVE SMOOTH",
"557 145 OFFCURVE",
"517 159 OFFCURVE",
"477 172 CURVE SMOOTH",
"370 207 OFFCURVE",
"300 234 OFFCURVE",
"300 350 CURVE SMOOTH",
"300 483 OFFCURVE",
"426 465 OFFCURVE",
"426 621 CURVE SMOOTH",
"426 672 OFFCURVE",
"411 701 OFFCURVE",
"356 701 CURVE SMOOTH",
"304 701 OFFCURVE",
"270 643 OFFCURVE",
"270 520 CURVE SMOOTH"
);
}
);
width = 743;
}
);
leftMetricsKey = f;
unicode = 00DF;
},
{
color = 1;
glyphname = t;
lastChange = "2018-03-25 18:50:55 +0000";
layers = (
{
background = {
components = (
{
name = n;
transform = "{1, 0, 0, 1, -22, 0}";
}
);
};
guideLines = (
{
position = "{737, -5}";
}
);
layerId = "1B5E7594-BD1E-41E1-80E1-0DE241437139";
paths = (
{
closed = 1;
nodes = (
"20 477 LINE",
"61 479 LINE SMOOTH",
"82 480 OFFCURVE",
"93 489 OFFCURVE",
"96 509 CURVE SMOOTH",
"113 640 LINE",
"146 640 LINE",
"154 630 LINE",
"154 478 LINE",
"277 489 LINE",
"285 483 LINE",
"285 430 LINE",
"155 441 LINE",
"153 109 LINE SMOOTH",
"153 44 OFFCURVE",
"178 37 OFFCURVE",
"239 55 CURVE SMOOTH",
"279 67 LINE",
"283 57 LINE",
"265 4 LINE",
"144 -24 OFFCURVE",
"85 7 OFFCURVE",
"86 105 CURVE SMOOTH",
"90 403 LINE SMOOTH",
"90 424 OFFCURVE",
"81 440 OFFCURVE",
"60 441 CURVE SMOOTH",
"20 442 LINE"
);
}
);
width = 325;
},
{
background = {
components = (
{
name = f;
transform = "{1, 0, 0, 1, -8, 0}";
}
);
};
guideLines = (
{
position = "{458, 495}";
}
);
layerId = "5A1ECF60-5C3D-4C60-84B4-C69E600E0422";
paths = (
{
closed = 1;
nodes = (
"15 498 LINE",
"60 502 LINE SMOOTH",
"82 504 OFFCURVE",
"102 521 OFFCURVE",
"111 551 CURVE SMOOTH",
"147 670 LINE",
"239 670 LINE",
"258 648 LINE",
"258 498 LINE",
"334 506 LINE",
"354 485 LINE",
"354 393 LINE",
"259 402 LINE",
"255 178 LINE SMOOTH",
"254 139 OFFCURVE",
"270 111 OFFCURVE",
"316 131 CURVE SMOOTH",
"343 142 LINE",
"364 111 LINE",
"320 -4 LINE",
"86 -47 OFFCURVE",
"55 52 OFFCURVE",
"58 139 CURVE SMOOTH",
"65 370 LINE SMOOTH",
"66 391 OFFCURVE",
"50 403 OFFCURVE",
"30 404 CURVE SMOOTH",
"15 405 LINE"
);
}
);
width = 364;
},
{
associatedMasterId = "5A1ECF60-5C3D-4C60-84B4-C69E600E0422";
background = {
components = (
{
name = f;
transform = "{1, 0, 0, 1, -3, 0}";
}
);
};
guideLines = (
{
position = "{458, 495}";
}
);
layerId = "49F4F265-1A1E-432D-8A53-989ABD0B3DBC";
name = "Jan 1 18, 15:54";
paths = (
{
closed = 1;
nodes = (
"25 502 LINE",
"70 504 LINE SMOOTH",
"92 505 OFFCURVE",
"112 521 OFFCURVE",
"121 551 CURVE SMOOTH",
"157 670 LINE",
"239 670 LINE",
"258 648 LINE",
"258 495 LINE",
"324 503 LINE",
"344 482 LINE",
"344 389 LINE",
"259 398 LINE",
"255 155 LINE SMOOTH",
"255 130 OFFCURVE",
"277 121 OFFCURVE",
"302 127 CURVE SMOOTH",
"335 135 LINE",
"351 113 LINE",
"305 0 LINE",
"141 -43 OFFCURVE",
"66 26 OFFCURVE",
"66 113 CURVE SMOOTH",
"66 368 LINE SMOOTH",
"66 389 OFFCURVE",
"60 403 OFFCURVE",
"40 402 CURVE SMOOTH",
"25 401 LINE"
);
}
);
width = 364;
},
{
associatedMasterId = "1B5E7594-BD1E-41E1-80E1-0DE241437139";
background = {
components = (
{
name = n;
transform = "{1, 0, 0, 1, -25, 0}";
}
);
};
layerId = "B4B0FBE7-F7C2-454A-B586-A98C9DB7BF09";
name = "Mar 24 18, 18:22";
paths = (
{
closed = 1;
nodes = (
"19 477 LINE",
"60 479 LINE SMOOTH",
"81 480 OFFCURVE",
"92 489 OFFCURVE",
"95 509 CURVE SMOOTH",
"112 640 LINE",
"143 640 LINE",
"151 630 LINE",
"151 478 LINE",
"259 490 LINE",
"267 484 LINE",
"267 430 LINE",
"152 441 LINE",
"150 82 LINE SMOOTH",
"150 56 OFFCURVE",
"165 47 OFFCURVE",
"190 51 CURVE SMOOTH",
"266 63 LINE",
"270 53 LINE",
"252 0 LINE",
"121 -23 OFFCURVE",
"85 11 OFFCURVE",
"85 109 CURVE SMOOTH",
"86 403 LINE SMOOTH",
"86 424 OFFCURVE",
"77 440 OFFCURVE",
"56 441 CURVE SMOOTH",
"19 442 LINE"
);
}
);
width = 280;
}
);
unicode = 0074;
},
{
color = 1;
glyphname = u;
lastChange = "2018-03-30 15:21:51 +0000";
layers = (
{
background = {
components = (
{
name = n;
transform = "{-1, 0, 0, -1, 629, 504}";
}
);
};
guideLines = (
{
position = "{-7, 125}";
},
{
position = "{-51, -13}";
}
);
layerId = "5A1ECF60-5C3D-4C60-84B4-C69E600E0422";
paths = (
{
closed = 1;
nodes = (
"8 497 LINE",
"93 501 OFFCURVE",
"163 508 OFFCURVE",
"235 523 CURVE",
"263 501 LINE",
"258 183 LINE SMOOTH",
"257 129 OFFCURVE",
"296 89 OFFCURVE",
"395 169 CURVE",
"384 101 LINE",
"330 10 OFFCURVE",
"271 -13 OFFCURVE",
"199 -13 CURVE SMOOTH",
"107 -13 OFFCURVE",
"58 43 OFFCURVE",
"60 145 CURVE SMOOTH",
"65 366 LINE SMOOTH",
"66 389 OFFCURVE",
"53 399 OFFCURVE",
"32 401 CURVE SMOOTH",
"8 403 LINE"
);
},
{
closed = 1;
nodes = (
"291 497 LINE",
"369 502 OFFCURVE",
"446 509 OFFCURVE",
"524 522 CURVE",
"548 502 LINE",
"543 157 LINE SMOOTH",
"543 131 OFFCURVE",
"560 122 OFFCURVE",
"583 129 CURVE SMOOTH",
"606 136 LINE",
"623 108 LINE",
"574 0 LINE",
"427 -38 OFFCURVE",
"345 10 OFFCURVE",
"345 118 CURVE SMOOTH",
"345 363 LINE SMOOTH",
"345 386 OFFCURVE",
"337 399 OFFCURVE",
"315 401 CURVE SMOOTH",
"291 403 LINE"
);
}
);
width = 617;
},
{
background = {
components = (
{
name = n;
transform = "{1, 0, 0, 1, -31, 0}";
}
);
};
layerId = "1B5E7594-BD1E-41E1-80E1-0DE241437139";
paths = (
{
closed = 1;
nodes = (
"-2 471 LINE",
"43 479 OFFCURVE",
"94 495 OFFCURVE",
"137 506 CURVE",
"146 500 LINE",
"143 147 LINE SMOOTH",
"142 45 OFFCURVE",
"242 -1 OFFCURVE",
"416 111 CURVE",
"418 77 LINE",
"353 18 OFFCURVE",
"281 -10 OFFCURVE",
"219 -10 CURVE SMOOTH",
"135 -10 OFFCURVE",
"72 40 OFFCURVE",
"74 131 CURVE SMOOTH",
"80 389 LINE SMOOTH",
"81 430 OFFCURVE",
"66 439 OFFCURVE",
"30 441 CURVE SMOOTH",
"-2 443 LINE"
);
},
{
closed = 1;
nodes = (
"316 471 LINE",
"365 480 OFFCURVE",
"409 494 OFFCURVE",
"454 506 CURVE",
"463 500 LINE",
"457 75 LINE SMOOTH",
"456 37 OFFCURVE",
"471 40 OFFCURVE",
"497 50 CURVE SMOOTH",
"544 68 LINE",
"554 47 LINE",
"529 3 LINE",
"414 -41 OFFCURVE",
"390 52 OFFCURVE",
"391 106 CURVE SMOOTH",
"396 397 LINE SMOOTH",
"396 423 OFFCURVE",
"385 438 OFFCURVE",
"359 440 CURVE SMOOTH",
"316 443 LINE"
);
}
);
width = 568;
},
{
associatedMasterId = "1B5E7594-BD1E-41E1-80E1-0DE241437139";
background = {
components = (
{
name = t;
transform = "{1, 0, 0, 1, 305, 0}";
}
);
};
layerId = "61492818-0997-4729-BF61-F9DE1467FD80";
name = "Mar 22 18, 19:09";
paths = (
{
closed = 1;
nodes = (
"29 484 LINE",
"74 488 OFFCURVE",
"117 494 OFFCURVE",
"160 502 CURVE",
"169 498 LINE",
"165 163 LINE SMOOTH",
"164 82 OFFCURVE",
"167 -9 OFFCURVE",
"418 116 CURVE",
"409 73 LINE",
"212 -60 OFFCURVE",
"93 -22 OFFCURVE",
"97 132 CURVE SMOOTH",
"103 394 LINE SMOOTH",
"104 435 OFFCURVE",
"97 447 OFFCURVE",
"53 449 CURVE SMOOTH",
"29 450 LINE"
);
},
{
closed = 1;
nodes = (
"311 483 LINE",
"360 487 OFFCURVE",
"406 494 OFFCURVE",
"451 502 CURVE",
"460 498 LINE",
"454 98 LINE SMOOTH",
"453 56 OFFCURVE",
"466 49 OFFCURVE",
"494 54 CURVE SMOOTH",
"542 63 LINE",
"546 53 LINE",
"527 0 LINE",
"412 -28 OFFCURVE",
"389 52 OFFCURVE",
"390 106 CURVE SMOOTH",
"393 392 LINE SMOOTH",
"393 430 OFFCURVE",
"381 445 OFFCURVE",
"338 448 CURVE SMOOTH",
"311 450 LINE"
);
}
);
width = 565;
}
);
unicode = 0075;
},
{
color = 1;
glyphname = v;
lastChange = "2018-03-27 18:45:04 +0000";
layers = (
{
background = {
paths = (
{
closed = 1;
nodes = (
"339 141 OFFCURVE",
"403 319 OFFCURVE",
"448 433 CURVE",
"474 436 OFFCURVE",
"502 444 OFFCURVE",
"519 450 CURVE",
"519 467 OFFCURVE",
"517 487 OFFCURVE",
"513 499 CURVE",
"479 498 OFFCURVE",
"425 497 OFFCURVE",
"404 497 CURVE SMOOTH",
"373 497 OFFCURVE",
"333 499 OFFCURVE",
"300 499 CURVE",
"295 488 OFFCURVE",
"294 468 OFFCURVE",
"294 450 CURVE",
"317 448 OFFCURVE",
"349 443 OFFCURVE",
"374 436 CURVE",
"339 335 OFFCURVE",
"285 177 OFFCURVE",
"248 63 CURVE",
"235 141 LINE",
"199 251 OFFCURVE",
"161 354 OFFCURVE",
"128 436 CURVE",
"160 438 OFFCURVE",
"193 444 OFFCURVE",
"212 450 CURVE",
"212 467 OFFCURVE",
"210 489 OFFCURVE",
"205 499 CURVE",
"177 498 OFFCURVE",
"116 497 OFFCURVE",
"91 497 CURVE SMOOTH",
"51 497 OFFCURVE",
"13 499 OFFCURVE",
"-24 499 CURVE",
"-29 486 OFFCURVE",
"-31 468 OFFCURVE",
"-31 450 CURVE",
"-8 446 OFFCURVE",
"9 443 OFFCURVE",
"31 436 CURVE",
"86 299 OFFCURVE",
"141 147 OFFCURVE",
"195 -6 CURVE",
"228 -5 OFFCURVE",
"264 -1 OFFCURVE",
"294 9 CURVE"
);
}
);
};
layerId = "1B5E7594-BD1E-41E1-80E1-0DE241437139";
paths = (
{
closed = 1;
nodes = (
"-12 500 LINE",
"79 496 LINE",
"186 500 LINE",
"187 461 LINE",
"156 459 LINE SMOOTH",
"131 457 OFFCURVE",
"119 443 OFFCURVE",
"126 422 CURVE SMOOTH",
"245 77 LINE",
"252 77 LINE",
"375 415 LINE SMOOTH",
"384 440 OFFCURVE",
"381 460 OFFCURVE",
"339 460 CURVE SMOOTH",
"295 460 LINE",
"295 500 LINE",
"407 496 LINE",
"488 500 LINE",
"488 463 LINE",
"473 463 LINE SMOOTH",
"455 463 OFFCURVE",
"446 454 OFFCURVE",
"440 438 CURVE SMOOTH",
"274 8 LINE",
"252 1 OFFCURVE",
"231 -5 OFFCURVE",
"209 -12 CURVE",
"47 427 LINE SMOOTH",
"41 444 OFFCURVE",
"31 459 OFFCURVE",
"10 461 CURVE SMOOTH",
"-12 463 LINE"
);
}
);
width = 481;
},
{
background = {
components = (
{
name = k;
transform = "{1, 0, 0, 1, -48, 0}";
}
);
};
layerId = "5A1ECF60-5C3D-4C60-84B4-C69E600E0422";
paths = (
{
closed = 1;
nodes = (
"-20 505 LINE",
"127 504 LINE",
"278 507 LINE",
"278 410 LINE",
"257 408 LINE SMOOTH",
"240 406 OFFCURVE",
"245 380 OFFCURVE",
"248 361 CURVE SMOOTH",
"280 129 LINE",
"290 129 LINE",
"339 351 LINE SMOOTH",
"347 385 OFFCURVE",
"346 406 OFFCURVE",
"326 408 CURVE SMOOTH",
"304 410 LINE",
"304 506 LINE",
"438 503 LINE",
"537 507 LINE",
"537 410 LINE",
"505 406 LINE SMOOTH",
"486 404 OFFCURVE",
"474 382 OFFCURVE",
"468 359 CURVE SMOOTH",
"376 6 LINE",
"306 6 OFFCURVE",
"205 -1 OFFCURVE",
"135 -10 CURVE",
"39 372 LINE SMOOTH",
"34 391 OFFCURVE",
"18 405 OFFCURVE",
"3 406 CURVE SMOOTH",
"-20 408 LINE"
);
}
);
width = 535;
},
{
associatedMasterId = "1B5E7594-BD1E-41E1-80E1-0DE241437139";
background = {
paths = (
{
closed = 1;
nodes = (
"357 421 OFFCURVE",
"345 386 OFFCURVE",
"322 329 CURVE SMOOTH",
"298 273 OFFCURVE",
"264 194 OFFCURVE",
"223 91 CURVE",
"219 91 LINE",
"200 151 OFFCURVE",
"184 205 OFFCURVE",
"172 253 CURVE SMOOTH",
"166 274 OFFCURVE",
"161 294 OFFCURVE",
"155 315 CURVE SMOOTH",
"144 356 OFFCURVE",
"134 391 OFFCURVE",
"130 416 CURVE",
"126 428 OFFCURVE",
"125 435 OFFCURVE",
"125 440 CURVE SMOOTH",
"125 450 OFFCURVE",
"130 457 OFFCURVE",
"138 461 CURVE SMOOTH",
"147 464 OFFCURVE",
"165 467 OFFCURVE",
"190 468 CURVE",
"197 503 LINE",
"195 508 LINE",
"181 507 OFFCURVE",
"168 505 OFFCURVE",
"154 504 CURVE",
"129 500 OFFCURVE",
"97 500 OFFCURVE",
"62 500 CURVE SMOOTH",
"7 500 LINE SMOOTH",
"-5 500 OFFCURVE",
"-17 500 OFFCURVE",
"-29 502 CURVE",
"-36 465 LINE",
"-34 461 LINE",
"4 460 OFFCURVE",
"30 441 OFFCURVE",
"41 406 CURVE SMOOTH",
"49 382 OFFCURVE",
"61 344 OFFCURVE",
"76 300 CURVE SMOOTH",
"90 256 OFFCURVE",
"107 206 OFFCURVE",
"121 158 CURVE SMOOTH",
"137 103 OFFCURVE",
"157 45 OFFCURVE",
"176 -17 CURVE",
"236 2 LINE",
"396 378 LINE SMOOTH",
"409 410 OFFCURVE",
"420 429 OFFCURVE",
"430 442 CURVE",
"440 454 OFFCURVE",
"450 457 OFFCURVE",
"466 461 CURVE",
"474 502 LINE",
"464 500 OFFCURVE",
"453 500 OFFCURVE",
"443 500 CURVE SMOOTH",
"383 500 LINE",
"306 500 LINE SMOOTH",
"293 500 OFFCURVE",
"281 500 OFFCURVE",
"269 502 CURVE",
"263 467 LINE",
"268 461 LINE",
"309 461 LINE SMOOTH",
"345 461 OFFCURVE",
"357 455 OFFCURVE",
"357 434 CURVE SMOOTH"
);
}
);
};
layerId = "9D0F713D-0DDC-4FC9-8B93-9A6DA16AB0FD";
name = "Sep 26 17, 12:20";
paths = (
{
closed = 1;
nodes = (
"-30 483 LINE",
"97 503 LINE",
"104 498 LINE",
"198 133 LINE",
"214 60 LINE",
"344 431 LINE",
"262 454 LINE",
"262 483 LINE",
"418 504 LINE",
"426 498 LINE",
"240 8 LINE",
"175 -12 LINE",
"43 432 LINE",
"-30 455 LINE"
);
}
);
width = 426;
}
);
unicode = 0076;
},
{
color = 1;
glyphname = w;
lastChange = "2018-03-27 18:46:46 +0000";
layers = (
{
background = {
paths = (
{
closed = 1;
nodes = (
"608 356 OFFCURVE",
"575 233 OFFCURVE",
"535 68 CURVE",
"526 143 LINE",
"506 214 OFFCURVE",
"453 380 OFFCURVE",
"410 503 CURVE",
"388 503 OFFCURVE",
"356 499 OFFCURVE",
"334 492 CURVE",
"301 370 OFFCURVE",
"263 212 OFFCURVE",
"230 65 CURVE",
"223 143 LINE",
"192 247 OFFCURVE",
"156 357 OFFCURVE",
"129 436 CURVE",
"161 438 OFFCURVE",
"193 445 OFFCURVE",
"212 451 CURVE",
"212 467 OFFCURVE",
"210 489 OFFCURVE",
"206 499 CURVE",
"177 498 OFFCURVE",
"116 497 OFFCURVE",
"91 497 CURVE SMOOTH",
"48 497 OFFCURVE",
"6 499 OFFCURVE",
"-23 499 CURVE",
"-28 486 OFFCURVE",
"-30 468 OFFCURVE",
"-30 451 CURVE",
"-13 448 OFFCURVE",
"17 442 OFFCURVE",
"37 434 CURVE",
"65 361 OFFCURVE",
"151 94 OFFCURVE",
"180 -2 CURVE",
"220 -2 OFFCURVE",
"253 5 OFFCURVE",
"272 12 CURVE",
"301 144 OFFCURVE",
"339 298 OFFCURVE",
"365 403 CURVE",
"383 323 LINE",
"412 238 OFFCURVE",
"451 125 OFFCURVE",
"489 -2 CURVE",
"536 -2 OFFCURVE",
"563 5 OFFCURVE",
"581 12 CURVE",
"616 144 OFFCURVE",
"686 376 OFFCURVE",
"705 433 CURVE",
"730 436 OFFCURVE",
"759 444 OFFCURVE",
"776 451 CURVE",
"776 467 OFFCURVE",
"773 487 OFFCURVE",
"769 499 CURVE",
"735 498 OFFCURVE",
"682 497 OFFCURVE",
"661 497 CURVE SMOOTH",
"630 497 OFFCURVE",
"591 499 OFFCURVE",
"558 499 CURVE",
"553 488 OFFCURVE",
"551 468 OFFCURVE",
"551 451 CURVE",
"575 449 OFFCURVE",
"607 443 OFFCURVE",
"632 436 CURVE"
);
}
);
};
layerId = "1B5E7594-BD1E-41E1-80E1-0DE241437139";
paths = (
{
closed = 1;
nodes = (
"0 501 LINE",
"87 500 LINE",
"226 502 LINE",
"226 466 LINE",
"163 462 LINE SMOOTH",
"131 460 OFFCURVE",
"121 439 OFFCURVE",
"129 410 CURVE SMOOTH",
"225 73 LINE",
"230 73 LINE",
"340 488 LINE",
"410 506 LINE",
"531 73 LINE",
"536 73 LINE",
"625 397 LINE SMOOTH",
"633 427 OFFCURVE",
"639 460 OFFCURVE",
"592 461 CURVE SMOOTH",
"527 462 LINE",
"527 502 LINE",
"661 500 LINE",
"736 502 LINE",
"736 462 LINE",
"721 462 LINE SMOOTH",
"707 462 OFFCURVE",
"696 455 OFFCURVE",
"692 442 CURVE SMOOTH",
"560 8 LINE",
"538 1 OFFCURVE",
"515 -5 OFFCURVE",
"493 -12 CURVE",
"374 405 LINE",
"263 8 LINE",
"240 1 OFFCURVE",
"211 -5 OFFCURVE",
"188 -12 CURVE",
"54 431 LINE SMOOTH",
"49 449 OFFCURVE",
"40 462 OFFCURVE",
"19 463 CURVE SMOOTH",
"0 464 LINE"
);
}
);
width = 760;
},
{
background = {
components = (
{
name = v;
transform = "{1, 0, 0, 1, -19, 0}";
}
);
};
guideLines = (
{
position = "{339, 130}";
}
);
layerId = "5A1ECF60-5C3D-4C60-84B4-C69E600E0422";
paths = (
{
closed = 1;
nodes = (
"-14 507 LINE",
"142 504 LINE",
"294 507 LINE",
"294 410 LINE",
"273 408 LINE SMOOTH",
"254 406 OFFCURVE",
"246 387 OFFCURVE",
"248 370 CURVE SMOOTH",
"274 130 LINE",
"287 130 LINE",
"329 495 LINE",
"515 514 LINE",
"560 130 LINE",
"570 130 LINE",
"615 341 LINE SMOOTH",
"625 386 OFFCURVE",
"607 404 OFFCURVE",
"581 407 CURVE SMOOTH",
"550 410 LINE",
"550 507 LINE",
"682 504 LINE",
"809 507 LINE",
"809 410 LINE",
"781 406 LINE SMOOTH",
"762 403 OFFCURVE",
"745 379 OFFCURVE",
"740 359 CURVE SMOOTH",
"653 6 LINE",
"584 4 OFFCURVE",
"498 -2 OFFCURVE",
"429 -10 CURVE",
"402 171 LINE",
"365 2 LINE",
"288 0 OFFCURVE",
"209 -7 OFFCURVE",
"137 -14 CURVE",
"43 371 LINE SMOOTH",
"37 397 OFFCURVE",
"25 406 OFFCURVE",
"8 408 CURVE SMOOTH",
"-14 410 LINE"
);
}
);
width = 804;
},
{
associatedMasterId = "1B5E7594-BD1E-41E1-80E1-0DE241437139";
background = {
paths = (
{
closed = 1;
nodes = (
"439 449 LINE",
"270 8 LINE",
"205 -12 LINE",
"70 438 LINE",
"150 435 LINE",
"228 133 LINE",
"244 60 LINE",
"367 426 LINE"
);
}
);
};
layerId = "757D154B-913C-4F51-93A1-325FE9A59F06";
name = "Mar 25 18, 18:59";
paths = (
{
closed = 1;
nodes = (
"11 504 LINE",
"98 500 LINE",
"227 502 LINE",
"227 469 LINE",
"177 466 LINE SMOOTH",
"145 464 OFFCURVE",
"142 443 OFFCURVE",
"150 411 CURVE SMOOTH",
"221 133 LINE",
"236 63 LINE",
"331 480 LINE",
"406 500 LINE",
"498 133 LINE",
"513 63 LINE",
"615 404 LINE SMOOTH",
"624 434 OFFCURVE",
"629 467 OFFCURVE",
"582 468 CURVE SMOOTH",
"537 469 LINE",
"537 502 LINE",
"661 500 LINE",
"736 504 LINE",
"736 469 LINE",
"721 469 LINE SMOOTH",
"707 469 OFFCURVE",
"697 462 OFFCURVE",
"692 449 CURVE SMOOTH",
"539 8 LINE",
"517 1 OFFCURVE",
"496 -5 OFFCURVE",
"474 -12 CURVE",
"360 380 LINE",
"267 8 LINE",
"244 1 OFFCURVE",
"220 -5 OFFCURVE",
"197 -12 CURVE",
"65 434 LINE SMOOTH",
"60 452 OFFCURVE",
"51 465 OFFCURVE",
"30 466 CURVE SMOOTH",
"11 467 LINE"
);
}
);
width = 760;
}
);
unicode = 0077;
},
{
color = 1;
glyphname = x;
lastChange = "2018-03-27 19:00:10 +0000";
layers = (
{
background = {
components = (
{
name = n;
}
);
};
guideLines = (
{
position = "{538, 96}";
}
);
layerId = "5A1ECF60-5C3D-4C60-84B4-C69E600E0422";
paths = (
{
closed = 1;
nodes = (
"446 504 LINE",
"549 506 LINE",
"549 407 LINE",
"531 405 LINE SMOOTH",
"509 403 OFFCURVE",
"498 386 OFFCURVE",
"484 367 CURVE SMOOTH",
"374 213 LINE",
"303 276 LINE",
"357 369 LINE SMOOTH",
"366 385 OFFCURVE",
"372 403 OFFCURVE",
"355 405 CURVE SMOOTH",
"337 407 LINE",
"337 507 LINE"
);
},
{
closed = 1;
nodes = (
"150 504 LINE",
"312 507 LINE",
"312 408 LINE",
"300 406 LINE SMOOTH",
"284 403 OFFCURVE",
"281 385 OFFCURVE",
"290 371 CURVE SMOOTH",
"343 294 LINE",
"378 275 LINE",
"487 122 LINE SMOOTH",
"499 105 OFFCURVE",
"508 93 OFFCURVE",
"525 91 CURVE SMOOTH",
"544 89 LINE",
"544 -3 LINE",
"414 0 LINE",
"256 -3 LINE",
"256 89 LINE",
"268 91 LINE SMOOTH",
"289 95 OFFCURVE",
"292 111 OFFCURVE",
"276 131 CURVE SMOOTH",
"204 225 LINE",
"177 231 LINE",
"93 356 LINE SMOOTH",
"73 385 OFFCURVE",
"61 403 OFFCURVE",
"38 405 CURVE SMOOTH",
"16 407 LINE",
"16 504 LINE"
);
},
{
closed = 1;
nodes = (
"32 91 LINE SMOOTH",
"53 93 OFFCURVE",
"71 110 OFFCURVE",
"84 131 CURVE SMOOTH",
"183 296 LINE",
"268 224 LINE",
"214 132 LINE SMOOTH",
"201 111 OFFCURVE",
"197 94 OFFCURVE",
"217 91 CURVE SMOOTH",
"230 89 LINE",
"230 -3 LINE",
"111 0 LINE",
"10 -3 LINE",
"10 89 LINE"
);
}
);
width = 549;
},
{
background = {
paths = (
{
closed = 1;
nodes = (
"-44 29 OFFCURVE",
"-42 9 OFFCURVE",
"-37 -2 CURVE",
"7 -2 OFFCURVE",
"36 0 OFFCURVE",
"80 0 CURVE SMOOTH",
"105 0 OFFCURVE",
"159 0 OFFCURVE",
"188 -2 CURVE",
"192 7 OFFCURVE",
"194 30 OFFCURVE",
"194 46 CURVE",
"172 51 OFFCURVE",
"140 54 OFFCURVE",
"111 57 CURVE",
"225 206 LINE",
"326 76 LINE",
"330 69 OFFCURVE",
"336 63 OFFCURVE",
"341 57 CURVE",
"319 52 OFFCURVE",
"289 48 OFFCURVE",
"265 46 CURVE",
"265 29 OFFCURVE",
"268 6 OFFCURVE",
"272 -2 CURVE",
"301 -2 OFFCURVE",
"353 0 OFFCURVE",
"397 0 CURVE SMOOTH",
"423 0 OFFCURVE",
"485 0 OFFCURVE",
"514 -2 CURVE",
"518 7 OFFCURVE",
"520 30 OFFCURVE",
"520 46 CURVE",
"501 54 OFFCURVE",
"469 62 OFFCURVE",
"440 65 CURVE",
"398 122 OFFCURVE",
"344 192 OFFCURVE",
"289 263 CURVE",
"419 434 LINE",
"451 438 OFFCURVE",
"474 445 OFFCURVE",
"494 452 CURVE",
"494 468 OFFCURVE",
"491 493 OFFCURVE",
"488 503 CURVE",
"461 502 OFFCURVE",
"426 501 OFFCURVE",
"402 501 CURVE SMOOTH",
"352 501 OFFCURVE",
"313 503 OFFCURVE",
"284 503 CURVE",
"278 489 OFFCURVE",
"278 474 OFFCURVE",
"277 454 CURVE",
"299 452 OFFCURVE",
"325 449 OFFCURVE",
"348 444 CURVE",
"249 313 LINE",
"213 358 OFFCURVE",
"177 402 OFFCURVE",
"143 442 CURVE",
"170 443 OFFCURVE",
"205 449 OFFCURVE",
"223 454 CURVE",
"223 470 OFFCURVE",
"221 493 OFFCURVE",
"217 503 CURVE",
"188 502 OFFCURVE",
"125 501 OFFCURVE",
"99 501 CURVE SMOOTH",
"55 501 OFFCURVE",
"2 503 OFFCURVE",
"-27 503 CURVE",
"-32 490 OFFCURVE",
"-34 471 OFFCURVE",
"-34 454 CURVE",
"-19 452 OFFCURVE",
"17 446 OFFCURVE",
"40 438 CURVE",
"140 316 LINE",
"186 256 LINE",
"40 64 LINE",
"19 57 OFFCURVE",
"-15 49 OFFCURVE",
"-44 46 CURVE"
);
}
);
};
layerId = "1B5E7594-BD1E-41E1-80E1-0DE241437139";
paths = (
{
closed = 1;
nodes = (
"371 496 LINE",
"469 500 LINE",
"469 465 LINE",
"445 461 LINE SMOOTH",
"424 457 OFFCURVE",
"411 439 OFFCURVE",
"395 418 CURVE SMOOTH",
"255 234 LINE",
"226 265 LINE",
"327 402 LINE SMOOTH",
"347 429 OFFCURVE",
"355 456 OFFCURVE",
"311 461 CURVE SMOOTH",
"274 465 LINE",
"274 500 LINE"
);
},
{
closed = 1;
nodes = (
"86 496 LINE",
"206 500 LINE",
"205 464 LINE",
"164 460 LINE SMOOTH",
"138 457 OFFCURVE",
"130 432 OFFCURVE",
"143 415 CURVE SMOOTH",
"250 280 LINE",
"269 265 LINE",
"430 66 LINE SMOOTH",
"441 52 OFFCURVE",
"455 33 OFFCURVE",
"474 32 CURVE SMOOTH",
"496 31 LINE",
"495 -4 LINE",
"387 0 LINE",
"291 -3 LINE",
"292 31 LINE",
"319 34 LINE SMOOTH",
"355 38 OFFCURVE",
"362 52 OFFCURVE",
"339 81 CURVE SMOOTH",
"224 226 LINE",
"203 240 LINE",
"54 428 LINE SMOOTH",
"44 440 OFFCURVE",
"34 458 OFFCURVE",
"7 460 CURVE SMOOTH",
"-15 462 LINE",
"-13 500 LINE"
);
},
{
closed = 1;
nodes = (
"16 38 LINE SMOOTH",
"34 41 OFFCURVE",
"56 63 OFFCURVE",
"75 88 CURVE SMOOTH",
"206 261 LINE",
"252 242 LINE",
"135 86 LINE SMOOTH",
"114 58 OFFCURVE",
"126 38 OFFCURVE",
"159 34 CURVE SMOOTH",
"201 29 LINE",
"201 -3 LINE",
"89 0 LINE",
"-17 -4 LINE",
"-17 32 LINE"
);
}
);
width = 498;
},
{
associatedMasterId = "1B5E7594-BD1E-41E1-80E1-0DE241437139";
background = {
paths = (
{
closed = 1;
nodes = (
"-44 29 OFFCURVE",
"-42 9 OFFCURVE",
"-37 -2 CURVE",
"7 -2 OFFCURVE",
"36 0 OFFCURVE",
"80 0 CURVE SMOOTH",
"105 0 OFFCURVE",
"159 0 OFFCURVE",
"188 -2 CURVE",
"192 7 OFFCURVE",
"194 30 OFFCURVE",
"194 46 CURVE",
"172 51 OFFCURVE",
"140 54 OFFCURVE",
"111 57 CURVE",
"225 206 LINE",
"326 76 LINE",
"330 69 OFFCURVE",
"336 63 OFFCURVE",
"341 57 CURVE",
"319 52 OFFCURVE",
"289 48 OFFCURVE",
"265 46 CURVE",
"265 29 OFFCURVE",
"268 6 OFFCURVE",
"272 -2 CURVE",
"301 -2 OFFCURVE",
"353 0 OFFCURVE",
"397 0 CURVE SMOOTH",
"423 0 OFFCURVE",
"485 0 OFFCURVE",
"514 -2 CURVE",
"518 7 OFFCURVE",
"520 30 OFFCURVE",
"520 46 CURVE",
"501 54 OFFCURVE",
"469 62 OFFCURVE",
"440 65 CURVE",
"398 122 OFFCURVE",
"344 192 OFFCURVE",
"289 263 CURVE",
"419 434 LINE",
"451 438 OFFCURVE",
"474 445 OFFCURVE",
"494 452 CURVE",
"494 468 OFFCURVE",
"491 493 OFFCURVE",
"488 503 CURVE",
"461 502 OFFCURVE",
"426 501 OFFCURVE",
"402 501 CURVE SMOOTH",
"352 501 OFFCURVE",
"313 503 OFFCURVE",
"284 503 CURVE",
"278 489 OFFCURVE",
"278 474 OFFCURVE",
"277 454 CURVE",
"299 452 OFFCURVE",
"325 449 OFFCURVE",
"348 444 CURVE",
"249 313 LINE",
"213 358 OFFCURVE",
"177 402 OFFCURVE",
"143 442 CURVE",
"170 443 OFFCURVE",
"205 449 OFFCURVE",
"223 454 CURVE",
"223 470 OFFCURVE",
"221 493 OFFCURVE",
"217 503 CURVE",
"188 502 OFFCURVE",
"125 501 OFFCURVE",
"99 501 CURVE SMOOTH",
"55 501 OFFCURVE",
"2 503 OFFCURVE",
"-27 503 CURVE",
"-32 490 OFFCURVE",
"-34 471 OFFCURVE",
"-34 454 CURVE",
"-19 452 OFFCURVE",
"17 446 OFFCURVE",
"40 438 CURVE",
"140 316 LINE",
"186 256 LINE",
"40 64 LINE",
"19 57 OFFCURVE",
"-15 49 OFFCURVE",
"-44 46 CURVE"
);
}
);
};
layerId = "BE41059E-06A2-481C-9A07-2A3DC764F638";
name = "Mar 27 18, 19:57";
paths = (
{
closed = 1;
nodes = (
"371 496 LINE",
"469 500 LINE",
"469 465 LINE",
"445 461 LINE SMOOTH",
"424 457 OFFCURVE",
"411 439 OFFCURVE",
"395 418 CURVE SMOOTH",
"255 234 LINE",
"226 265 LINE",
"327 402 LINE SMOOTH",
"347 429 OFFCURVE",
"355 456 OFFCURVE",
"311 461 CURVE SMOOTH",
"274 465 LINE",
"274 500 LINE"
);
},
{
closed = 1;
nodes = (
"115 496 LINE",
"229 500 LINE",
"228 464 LINE",
"187 460 LINE SMOOTH",
"161 457 OFFCURVE",
"154 433 OFFCURVE",
"166 415 CURVE SMOOTH",
"260 273 LINE",
"282 255 LINE",
"412 66 LINE SMOOTH",
"422 51 OFFCURVE",
"437 33 OFFCURVE",
"456 32 CURVE SMOOTH",
"478 31 LINE",
"477 -4 LINE",
"375 0 LINE",
"279 -3 LINE",
"280 31 LINE",
"307 34 LINE SMOOTH",
"343 38 OFFCURVE",
"348 51 OFFCURVE",
"327 81 CURVE SMOOTH",
"228 225 LINE",
"209 240 LINE",
"83 428 LINE SMOOTH",
"75 441 OFFCURVE",
"63 458 OFFCURVE",
"36 460 CURVE SMOOTH",
"14 462 LINE",
"16 500 LINE"
);
},
{
closed = 1;
nodes = (
"35 38 LINE SMOOTH",
"53 41 OFFCURVE",
"76 63 OFFCURVE",
"94 88 CURVE SMOOTH",
"216 261 LINE",
"262 242 LINE",
"154 86 LINE SMOOTH",
"134 58 OFFCURVE",
"145 38 OFFCURVE",
"178 34 CURVE SMOOTH",
"220 29 LINE",
"220 -3 LINE",
"108 0 LINE",
"2 -4 LINE",
"2 32 LINE"
);
}
);
width = 498;
}
);
unicode = 0078;
},
{
color = 1;
glyphname = y;
lastChange = "2018-03-25 19:05:37 +0000";
layers = (
{
background = {
components = (
{
name = v;
transform = "{1, 0, 0, 1, -4, 0}";
}
);
};
guideLines = (
{
angle = 180;
position = "{798, -199}";
}
);
layerId = "5A1ECF60-5C3D-4C60-84B4-C69E600E0422";
paths = (
{
closed = 1;
nodes = (
"-6 506 LINE",
"142 504 LINE",
"291 507 LINE",
"291 410 LINE",
"271 407 LINE SMOOTH",
"254 404 OFFCURVE",
"257 380 OFFCURVE",
"260 361 CURVE SMOOTH",
"292 128 LINE",
"303 128 LINE",
"353 351 LINE SMOOTH",
"358 373 OFFCURVE",
"364 407 OFFCURVE",
"343 408 CURVE SMOOTH",
"315 410 LINE",
"315 507 LINE",
"444 504 LINE",
"549 507 LINE",
"549 410 LINE",
"519 405 LINE SMOOTH",
"500 402 OFFCURVE",
"487 377 OFFCURVE",
"482 359 CURVE SMOOTH",
"406 73 LINE SMOOTH",
"366 -79 OFFCURVE",
"299 -280 OFFCURVE",
"35 -199 CURVE",
"2 -69 LINE",
"36 -35 LINE",
"128 -78 OFFCURVE",
"237 -61 OFFCURVE",
"252 2 CURVE",
"147 -10 LINE",
"52 373 LINE SMOOTH",
"47 392 OFFCURVE",
"34 404 OFFCURVE",
"19 406 CURVE SMOOTH",
"-6 409 LINE"
);
}
);
width = 532;
},
{
associatedMasterId = "1B5E7594-BD1E-41E1-80E1-0DE241437139";
background = {
paths = (
{
closed = 1;
nodes = (
"-14 501 LINE",
"175 501 LINE",
"175 460 LINE",
"154 458 LINE SMOOTH",
"129 456 OFFCURVE",
"119 442 OFFCURVE",
"124 421 CURVE SMOOTH",
"198 134 LINE",
"214 61 LINE",
"332 412 LINE SMOOTH",
"340 437 OFFCURVE",
"338 460 OFFCURVE",
"296 460 CURVE SMOOTH",
"252 460 LINE",
"252 501 LINE",
"451 501 LINE",
"451 460 LINE",
"436 460 LINE SMOOTH",
"418 460 OFFCURVE",
"409 451 OFFCURVE",
"403 435 CURVE SMOOTH",
"277 95 LINE",
"197 -176 LINE",
"115 -200 LINE",
"104 -193 LINE",
"198.996 11.749 LINE",
"168 4 LINE",
"45 424 LINE SMOOTH",
"40 441 OFFCURVE",
"29 456 OFFCURVE",
"8 458 CURVE SMOOTH",
"-14 460 LINE"
);
}
);
};
layerId = "B1AEC783-D669-4C54-90E6-2051BD492EA3";
name = "Sep 27 17, 15:26";
paths = (
{
closed = 1;
nodes = (
"-14 501 LINE",
"185 501 LINE",
"185 460 LINE",
"154 457 LINE SMOOTH",
"129 455 OFFCURVE",
"119 442 OFFCURVE",
"124 421 CURVE SMOOTH",
"198 134 LINE",
"214 61 LINE",
"328 398 LINE SMOOTH",
"336 423 OFFCURVE",
"334 454 OFFCURVE",
"292 457 CURVE SMOOTH",
"252 460 LINE",
"252 501 LINE",
"451 501 LINE",
"451 460 LINE",
"436 460 LINE SMOOTH",
"418 460 OFFCURVE",
"409 451 OFFCURVE",
"403 435 CURVE SMOOTH",
"277 95 LINE",
"197 -176 LINE",
"95 -200 LINE",
"84 -193 LINE",
"203 12 LINE",
"168 4 LINE",
"45 424 LINE SMOOTH",
"40 441 OFFCURVE",
"29 456 OFFCURVE",
"8 458 CURVE SMOOTH",
"-14 460 LINE"
);
}
);
width = 425;
},
{
background = {
components = (
{
name = g;
transform = "{1, 0, 0, 1, -20, 0}";
}
);
};
layerId = "1B5E7594-BD1E-41E1-80E1-0DE241437139";
paths = (
{
closed = 1;
nodes = (
"-9 500 LINE",
"83 496 LINE",
"187 500 LINE",
"187 462 LINE",
"155 460 LINE SMOOTH",
"121 458 OFFCURVE",
"117 439 OFFCURVE",
"124 414 CURVE SMOOTH",
"224 72 LINE",
"231 72 LINE",
"346 398 LINE SMOOTH",
"357 428 OFFCURVE",
"371 458 OFFCURVE",
"321 460 CURVE SMOOTH",
"272 462 LINE",
"272 500 LINE",
"384 496 LINE",
"467 500 LINE",
"467 463 LINE",
"452 463 LINE SMOOTH",
"434 463 OFFCURVE",
"424 451 OFFCURVE",
"418 435 CURVE SMOOTH",
"267 33 LINE SMOOTH",
"217 -101 OFFCURVE",
"177 -222 OFFCURVE",
"39 -200 CURVE",
"18 -128 LINE",
"36 -116 LINE",
"106 -148 OFFCURVE",
"170 -108 OFFCURVE",
"205 2 CURVE",
"186 0 LINE",
"44 434 LINE SMOOTH",
"38 451 OFFCURVE",
"29 460 OFFCURVE",
"12 462 CURVE SMOOTH",
"-9 464 LINE"
);
}
);
width = 465;
},
{
associatedMasterId = "5A1ECF60-5C3D-4C60-84B4-C69E600E0422";
background = {
components = (
{
name = v;
transform = "{1, 0, 0, 1, 10, 0}";
}
);
};
guideLines = (
{
position = "{819, -199}";
}
);
layerId = "BF21DE4A-CB32-4BB5-99A2-75E12A1CB238";
name = "Sep 27 17, 15:26";
paths = (
{
closed = 1;
nodes = (
"17 500 LINE",
"315 500 LINE",
"315 406 LINE",
"294 404 LINE SMOOTH",
"277 402 OFFCURVE",
"281 376 OFFCURVE",
"285 357 CURVE SMOOTH",
"317 186 LINE",
"327 125 LINE",
"381 347 LINE SMOOTH",
"386 369 OFFCURVE",
"392 402 OFFCURVE",
"370 404 CURVE SMOOTH",
"344 406 LINE",
"344 500 LINE",
"557 500 LINE",
"557 403 LINE",
"525 398 LINE SMOOTH",
"506 395 OFFCURVE",
"493 373 OFFCURVE",
"488 355 CURVE SMOOTH",
"408 73 LINE",
"342 -176 LINE",
"128 -199 LINE",
"107 -178 LINE",
"254 19 LINE",
"169 9 LINE",
"76 370 LINE SMOOTH",
"71 389 OFFCURVE",
"55 401 OFFCURVE",
"40 403 CURVE SMOOTH",
"17 406 LINE"
);
}
);
width = 545;
},
{
associatedMasterId = "1B5E7594-BD1E-41E1-80E1-0DE241437139";
background = {
components = (
{
name = v;
transform = "{1, 0, 0, 1, 14, 0}";
}
);
};
layerId = "5FC36906-1784-4AFE-9702-494E9DC1DB23";
name = "Mar 22 18, 20:34";
paths = (
{
closed = 1;
nodes = (
"10 504 LINE",
"103 500 LINE",
"209 504 LINE",
"209 469 LINE",
"177 466 LINE SMOOTH",
"143 463 OFFCURVE",
"140 446 OFFCURVE",
"148 421 CURVE SMOOTH",
"241 134 LINE",
"259 68 LINE",
"372 398 LINE SMOOTH",
"383 428 OFFCURVE",
"395 465 OFFCURVE",
"345 467 CURVE SMOOTH",
"296 469 LINE",
"296 504 LINE",
"407 500 LINE",
"495 504 LINE",
"495 469 LINE",
"480 469 LINE SMOOTH",
"462 469 OFFCURVE",
"453 451 OFFCURVE",
"447 435 CURVE SMOOTH",
"291 22 LINE SMOOTH",
"247 -95 OFFCURVE",
"175 -190 OFFCURVE",
"96 -200 CURVE",
"52 -147 LINE",
"52 -131 LINE",
"123 -111 OFFCURVE",
"202 -70 OFFCURVE",
"241 12 CURVE",
"211 4 LINE",
"67 434 LINE SMOOTH",
"61 451 OFFCURVE",
"53 465 OFFCURVE",
"32 467 CURVE SMOOTH",
"10 469 LINE"
);
}
);
width = 505;
},
{
associatedMasterId = "5A1ECF60-5C3D-4C60-84B4-C69E600E0422";
background = {
components = (
{
name = v;
transform = "{1, 0, 0, 1, -11, 0}";
}
);
};
guideLines = (
{
angle = 180;
position = "{798, -199}";
}
);
layerId = "64EC0153-9A07-493F-AA16-274D78019197";
name = "Mar 22 18, 20:44";
paths = (
{
closed = 1;
nodes = (
"-4 502 LINE",
"142 500 LINE",
"303 503 LINE",
"303 406 LINE",
"275 403 LINE SMOOTH",
"258 401 OFFCURVE",
"260 376 OFFCURVE",
"264 357 CURVE SMOOTH",
"296 186 LINE",
"306 125 LINE",
"360 347 LINE SMOOTH",
"365 369 OFFCURVE",
"370 402 OFFCURVE",
"348 404 CURVE SMOOTH",
"324 406 LINE",
"324 503 LINE",
"436 500 LINE",
"536 503 LINE",
"536 403 LINE",
"504 398 LINE SMOOTH",
"485 395 OFFCURVE",
"472 373 OFFCURVE",
"467 355 CURVE SMOOTH",
"383 73 LINE SMOOTH",
"337 -79 OFFCURVE",
"270 -220 OFFCURVE",
"96 -209 CURVE",
"1 -69 LINE",
"22 -38 LINE",
"101 -55 OFFCURVE",
"221 -35 OFFCURVE",
"253 18 CURVE",
"147 8 LINE",
"55 369 LINE SMOOTH",
"50 388 OFFCURVE",
"34 400 OFFCURVE",
"19 402 CURVE SMOOTH",
"-4 405 LINE"
);
}
);
width = 532;
},
{
associatedMasterId = "5A1ECF60-5C3D-4C60-84B4-C69E600E0422";
background = {
components = (
{
name = g;
transform = "{1, 0, 0, 1, 17, -20}";
}
);
};
guideLines = (
{
angle = 180;
position = "{798, -199}";
}
);
layerId = "089DEA41-8D0B-45A3-A3E0-6ED219586F96";
name = "Mar 25 18, 15:51";
paths = (
{
closed = 1;
nodes = (
"-4 506 LINE",
"142 504 LINE",
"295 507 LINE",
"295 410 LINE",
"275 407 LINE SMOOTH",
"258 404 OFFCURVE",
"261 380 OFFCURVE",
"264 361 CURVE SMOOTH",
"296 186 LINE",
"304 128 LINE",
"358 351 LINE SMOOTH",
"363 373 OFFCURVE",
"367 407 OFFCURVE",
"346 408 CURVE SMOOTH",
"318 410 LINE",
"318 507 LINE",
"444 504 LINE",
"549 507 LINE",
"549 410 LINE",
"519 405 LINE SMOOTH",
"500 402 OFFCURVE",
"487 377 OFFCURVE",
"482 359 CURVE SMOOTH",
"406 73 LINE SMOOTH",
"366 -79 OFFCURVE",
"270 -220 OFFCURVE",
"96 -209 CURVE",
"1 -69 LINE",
"22 -38 LINE",
"111 -59 OFFCURVE",
"225 -51 OFFCURVE",
"252 2 CURVE",
"147 -10 LINE",
"55 373 LINE SMOOTH",
"50 392 OFFCURVE",
"34 404 OFFCURVE",
"19 406 CURVE SMOOTH",
"-4 409 LINE"
);
}
);
width = 532;
}
);
unicode = 0079;
},
{
color = 1;
glyphname = z;
lastChange = "2018-03-27 17:34:56 +0000";
layers = (
{
layerId = "5A1ECF60-5C3D-4C60-84B4-C69E600E0422";
paths = (
{
closed = 1;
nodes = (
"184 5 OFFCURVE",
"322 5 OFFCURVE",
"460 -3 CURVE",
"483 22 LINE",
"462 226 LINE",
"359 226 LINE",
"360 159 OFFCURVE",
"340 104 OFFCURVE",
"280 103 CURVE SMOOTH",
"212 102 LINE",
"301 190 LINE",
"495 390 LINE",
"451 509 LINE",
"316 503 OFFCURVE",
"187 503 OFFCURVE",
"52 510 CURVE",
"31 489 LINE",
"46 276 LINE",
"148 276 LINE",
"146 342 OFFCURVE",
"162 396 OFFCURVE",
"211 397 CURVE SMOOTH",
"291 399 LINE",
"218 328 LINE",
"5 101 LINE",
"46 -3 LINE"
);
}
);
width = 509;
},
{
background = {
components = (
{
name = n;
transform = "{1, 0, 0, 1, -105, 0}";
}
);
};
layerId = "1B5E7594-BD1E-41E1-80E1-0DE241437139";
paths = (
{
closed = 1;
nodes = (
"135 3 OFFCURVE",
"255 4 OFFCURVE",
"381 -2 CURVE",
"395 13 LINE",
"378 135 LINE",
"343 135 LINE",
"347 67 OFFCURVE",
"328 49 OFFCURVE",
"295 48 CURVE SMOOTH",
"85 44 LINE",
"134 100 LINE",
"390 473 LINE",
"379 503 LINE",
"258 497 OFFCURVE",
"158 497 OFFCURVE",
"37 502 CURVE",
"25 490 LINE",
"25 345 LINE",
"64 345 LINE",
"69 415 OFFCURVE",
"70 449 OFFCURVE",
"118 450 CURVE SMOOTH",
"319 456 LINE",
"261 387 LINE",
"0 21 LINE",
"11 0 LINE"
);
}
);
width = 415;
},
{
associatedMasterId = "5A1ECF60-5C3D-4C60-84B4-C69E600E0422";
layerId = "3D5FB35E-3F1E-42D4-8943-CC621B949E96";
name = "Jan 1 18, 16:34";
paths = (
{
closed = 1;
nodes = (
"181 5 OFFCURVE",
"317 5 OFFCURVE",
"455 -3 CURVE",
"478 22 LINE",
"457 228 LINE",
"366 228 LINE",
"367 161 OFFCURVE",
"347 144 OFFCURVE",
"307 142 CURVE SMOOTH",
"209 138 LINE",
"282 205 LINE",
"486 426 LINE",
"456 501 LINE",
"321 496 OFFCURVE",
"186 495 OFFCURVE",
"51 502 CURVE",
"30 481 LINE",
"50 270 LINE",
"140 270 LINE",
"138 336 OFFCURVE",
"152 351 OFFCURVE",
"196 352 CURVE SMOOTH",
"293 354 LINE",
"227 294 LINE",
"12 67 LINE",
"43 -3 LINE"
);
}
);
width = 505;
},
{
associatedMasterId = "5A1ECF60-5C3D-4C60-84B4-C69E600E0422";
layerId = "AFEF7E76-8D79-4A95-916A-2381A7311DCB";
name = "Mar 22 18, 19:15";
paths = (
{
closed = 1;
nodes = (
"181 5 OFFCURVE",
"317 5 OFFCURVE",
"455 -3 CURVE",
"478 22 LINE",
"457 228 LINE",
"354 228 LINE",
"355 161 OFFCURVE",
"335 144 OFFCURVE",
"295 142 CURVE SMOOTH",
"209 138 LINE",
"282 205 LINE",
"486 426 LINE",
"456 501 LINE",
"321 496 OFFCURVE",
"186 495 OFFCURVE",
"51 502 CURVE",
"30 481 LINE",
"50 270 LINE",
"152 270 LINE",
"150 336 OFFCURVE",
"164 351 OFFCURVE",
"208 352 CURVE SMOOTH",
"293 354 LINE",
"227 294 LINE",
"12 67 LINE",
"43 -3 LINE"
);
}
);
width = 505;
},
{
associatedMasterId = "1B5E7594-BD1E-41E1-80E1-0DE241437139";
background = {
paths = (
{
closed = 1;
nodes = (
"25 500 LINE",
"12 482 LINE",
"25 366 LINE",
"64 366 LINE",
"64 433 OFFCURVE",
"74 439 OFFCURVE",
"107 440 CURVE SMOOTH",
"323 444 LINE",
"280 399 LINE",
"9 25 LINE",
"19 -1 LINE",
"383 0 LINE",
"395 13 LINE",
"378 134 LINE",
"342 134 LINE",
"341 70 OFFCURVE",
"332 60 OFFCURVE",
"284 59 CURVE SMOOTH",
"84 56 LINE",
"125 98 LINE",
"404 477 LINE",
"394 495 LINE"
);
}
);
};
layerId = "73890089-33CF-4D24-9F30-706ED95C0423";
name = "Mar 22 18, 20:36";
paths = (
{
closed = 1;
nodes = (
"135 3 OFFCURVE",
"255 4 OFFCURVE",
"381 -2 CURVE",
"395 13 LINE",
"378 133 LINE",
"343 133 LINE",
"345 71 OFFCURVE",
"328 61 OFFCURVE",
"295 60 CURVE SMOOTH",
"81 54 LINE",
"124 100 LINE",
"398 474 LINE",
"388 500 LINE",
"267 495 OFFCURVE",
"168 495 OFFCURVE",
"47 500 CURVE",
"35 488 LINE",
"35 345 LINE",
"74 345 LINE",
"79 415 OFFCURVE",
"80 438 OFFCURVE",
"128 438 CURVE SMOOTH",
"323 438 LINE",
"282 399 LINE",
"0 21 LINE",
"11 0 LINE"
);
}
);
width = 395;
}
);
unicode = 007A;
},
{
export = 0;
glyphname = _part_bowl;
lastChange = "2018-03-27 19:04:26 +0000";
layers = (
{
background = {
components = (
{
name = o;
transform = "{1, 0, 0, 1, 16, 0}";
}
);
};
guideLines = (
{
position = "{162, 511}";
},
{
position = "{-341, 455}";
}
);
layerId = "1B5E7594-BD1E-41E1-80E1-0DE241437139";
paths = (
{
closed = 1;
nodes = (
"115 404 LINE",
"181 469 OFFCURVE",
"244 509 OFFCURVE",
"328 509 CURVE SMOOTH",
"428 509 OFFCURVE",
"516 416 OFFCURVE",
"516 257 CURVE SMOOTH",
"516 95 OFFCURVE",
"421 -14 OFFCURVE",
"285 -14 CURVE SMOOTH",
"209 -14 OFFCURVE",
"156 15 OFFCURVE",
"119 50 CURVE",
"126 95 LINE",
"179 53 OFFCURVE",
"228 31 OFFCURVE",
"284 31 CURVE SMOOTH",
"381 31 OFFCURVE",
"440 113 OFFCURVE",
"440 256 CURVE SMOOTH",
"440 388 OFFCURVE",
"392 455 OFFCURVE",
"309 455 CURVE SMOOTH",
"248 455 OFFCURVE",
"172 431 OFFCURVE",
"110 355 CURVE"
);
}
);
width = 607;
},
{
background = {
components = (
{
name = n;
transform = "{1, 0, 0, 1, -12, 0}";
}
);
};
guideLines = (
{
position = "{274, 514}";
},
{
position = "{42, -15}";
}
);
layerId = "5A1ECF60-5C3D-4C60-84B4-C69E600E0422";
paths = (
{
closed = 1;
nodes = (
"182 362 LINE",
"222 444 OFFCURVE",
"286 516 OFFCURVE",
"380 516 CURVE SMOOTH",
"493 516 OFFCURVE",
"556 417 OFFCURVE",
"556 269 CURVE SMOOTH",
"556 103 OFFCURVE",
"491 -17 OFFCURVE",
"342 -17 CURVE SMOOTH",
"261 -17 OFFCURVE",
"205 22 OFFCURVE",
"169 112 CURVE",
"224 126 LINE",
"239 110 OFFCURVE",
"258 99 OFFCURVE",
"279 100 CURVE SMOOTH",
"312 102 OFFCURVE",
"331 138 OFFCURVE",
"333 220 CURVE SMOOTH",
"336 332 OFFCURVE",
"321 376 OFFCURVE",
"283 376 CURVE SMOOTH",
"262 376 OFFCURVE",
"243 367 OFFCURVE",
"225 346 CURVE"
);
}
);
userData = {
PartSelection = {
"d,q" = 2;
};
};
width = 600;
},
{
associatedMasterId = "1B5E7594-BD1E-41E1-80E1-0DE241437139";
background = {
paths = (
{
closed = 1;
nodes = (
"166 80 OFFCURVE",
"227 39 OFFCURVE",
"296 39 CURVE SMOOTH",
"380 39 OFFCURVE",
"442 112 OFFCURVE",
"442 242 CURVE SMOOTH",
"442 377 OFFCURVE",
"378 459 OFFCURVE",
"282 459 CURVE SMOOTH",
"228 459 OFFCURVE",
"159 438 OFFCURVE",
"114 384 CURVE",
"104 411 LINE",
"147 487 OFFCURVE",
"220 507 OFFCURVE",
"287 507 CURVE SMOOTH",
"428 507 OFFCURVE",
"513 400 OFFCURVE",
"513 238 CURVE SMOOTH",
"513 86 OFFCURVE",
"438 -12 OFFCURVE",
"318 -12 CURVE SMOOTH",
"185 -12 OFFCURVE",
"116 87 OFFCURVE",
"100 147 CURVE",
"114 149 LINE"
);
}
);
};
layerId = "9AD2550B-8CDA-401C-88F2-25DCDF6597F5";
name = "Mar 22 18, 19:06";
paths = (
{
closed = 1;
nodes = (
"100 348 LINE",
"116 408 OFFCURVE",
"185 507 OFFCURVE",
"318 507 CURVE SMOOTH",
"438 507 OFFCURVE",
"513 409 OFFCURVE",
"513 257 CURVE SMOOTH",
"513 95 OFFCURVE",
"428 -12 OFFCURVE",
"287 -12 CURVE SMOOTH",
"220 -12 OFFCURVE",
"147 8 OFFCURVE",
"104 84 CURVE",
"114 111 LINE",
"159 57 OFFCURVE",
"228 36 OFFCURVE",
"282 36 CURVE SMOOTH",
"378 36 OFFCURVE",
"442 118 OFFCURVE",
"442 253 CURVE SMOOTH",
"442 383 OFFCURVE",
"380 456 OFFCURVE",
"296 456 CURVE SMOOTH",
"227 456 OFFCURVE",
"166 415 OFFCURVE",
"114 346 CURVE"
);
}
);
width = 607;
}
);
partsSettings = (
{
name = "d,q";
bottomName = Low;
bottomValue = 0;
topName = High;
topValue = 1;
}
);
},
